G04 #@! TF.GenerationSoftware,KiCad,Pcbnew,5.1.8-db9833491~87~ubuntu18.04.1*
G04 #@! TF.CreationDate,2020-11-18T16:13:39-03:00*
G04 #@! TF.ProjectId,Franzininho WIFI,4672616e-7a69-46e6-996e-686f20574946,rev?*
G04 #@! TF.SameCoordinates,Original*
G04 #@! TF.FileFunction,Copper,L1,Top*
G04 #@! TF.FilePolarity,Positive*
%FSLAX46Y46*%
G04 Gerber Fmt 4.6, Leading zero omitted, Abs format (unit mm)*
G04 Created by KiCad (PCBNEW 5.1.8-db9833491~87~ubuntu18.04.1) date 2020-11-18 16:13:39*
%MOMM*%
%LPD*%
G01*
G04 APERTURE LIST*
G04 #@! TA.AperFunction,ComponentPad*
%ADD10R,1.700000X1.700000*%
G04 #@! TD*
G04 #@! TA.AperFunction,ComponentPad*
%ADD11O,1.700000X1.700000*%
G04 #@! TD*
G04 #@! TA.AperFunction,ComponentPad*
%ADD12C,0.400000*%
G04 #@! TD*
G04 #@! TA.AperFunction,SMDPad,CuDef*
%ADD13R,1.100000X1.100000*%
G04 #@! TD*
G04 #@! TA.AperFunction,ComponentPad*
%ADD14C,1.879600*%
G04 #@! TD*
G04 #@! TA.AperFunction,ComponentPad*
%ADD15C,3.216000*%
G04 #@! TD*
G04 #@! TA.AperFunction,SMDPad,CuDef*
%ADD16R,0.600000X0.700000*%
G04 #@! TD*
G04 #@! TA.AperFunction,SMDPad,CuDef*
%ADD17R,2.000000X3.800000*%
G04 #@! TD*
G04 #@! TA.AperFunction,SMDPad,CuDef*
%ADD18R,2.000000X1.500000*%
G04 #@! TD*
G04 #@! TA.AperFunction,SMDPad,CuDef*
%ADD19R,1.700000X0.900000*%
G04 #@! TD*
G04 #@! TA.AperFunction,SMDPad,CuDef*
%ADD20R,1.500000X1.000000*%
G04 #@! TD*
G04 #@! TA.AperFunction,ViaPad*
%ADD21C,0.800000*%
G04 #@! TD*
G04 #@! TA.AperFunction,Conductor*
%ADD22C,0.254000*%
G04 #@! TD*
G04 #@! TA.AperFunction,Conductor*
%ADD23C,0.250000*%
G04 #@! TD*
G04 #@! TA.AperFunction,Conductor*
%ADD24C,0.381000*%
G04 #@! TD*
G04 #@! TA.AperFunction,Conductor*
%ADD25C,0.508000*%
G04 #@! TD*
G04 #@! TA.AperFunction,Conductor*
%ADD26C,0.100000*%
G04 #@! TD*
G04 APERTURE END LIST*
D10*
X124460000Y-118745000D03*
D11*
X127000000Y-118745000D03*
X129540000Y-118745000D03*
X132080000Y-118745000D03*
X134620000Y-118745000D03*
X137160000Y-118745000D03*
X139700000Y-118745000D03*
X142240000Y-118745000D03*
X144780000Y-118745000D03*
X147320000Y-118745000D03*
X149860000Y-118745000D03*
X152400000Y-118745000D03*
X154940000Y-118745000D03*
X157480000Y-118745000D03*
X160020000Y-118745000D03*
X162560000Y-118745000D03*
X165100000Y-118745000D03*
X167640000Y-118745000D03*
X170180000Y-118745000D03*
X172720000Y-118745000D03*
G04 #@! TA.AperFunction,SMDPad,CuDef*
G36*
G01*
X145333000Y-99564000D02*
X145333000Y-99064000D01*
G75*
G02*
X145558000Y-98839000I225000J0D01*
G01*
X146008000Y-98839000D01*
G75*
G02*
X146233000Y-99064000I0J-225000D01*
G01*
X146233000Y-99564000D01*
G75*
G02*
X146008000Y-99789000I-225000J0D01*
G01*
X145558000Y-99789000D01*
G75*
G02*
X145333000Y-99564000I0J225000D01*
G01*
G37*
G04 #@! TD.AperFunction*
G04 #@! TA.AperFunction,SMDPad,CuDef*
G36*
G01*
X146883000Y-99564000D02*
X146883000Y-99064000D01*
G75*
G02*
X147108000Y-98839000I225000J0D01*
G01*
X147558000Y-98839000D01*
G75*
G02*
X147783000Y-99064000I0J-225000D01*
G01*
X147783000Y-99564000D01*
G75*
G02*
X147558000Y-99789000I-225000J0D01*
G01*
X147108000Y-99789000D01*
G75*
G02*
X146883000Y-99564000I0J225000D01*
G01*
G37*
G04 #@! TD.AperFunction*
G04 #@! TA.AperFunction,SMDPad,CuDef*
G36*
G01*
X145333000Y-104415000D02*
X145333000Y-103865000D01*
G75*
G02*
X145533000Y-103665000I200000J0D01*
G01*
X145933000Y-103665000D01*
G75*
G02*
X146133000Y-103865000I0J-200000D01*
G01*
X146133000Y-104415000D01*
G75*
G02*
X145933000Y-104615000I-200000J0D01*
G01*
X145533000Y-104615000D01*
G75*
G02*
X145333000Y-104415000I0J200000D01*
G01*
G37*
G04 #@! TD.AperFunction*
G04 #@! TA.AperFunction,SMDPad,CuDef*
G36*
G01*
X146983000Y-104415000D02*
X146983000Y-103865000D01*
G75*
G02*
X147183000Y-103665000I200000J0D01*
G01*
X147583000Y-103665000D01*
G75*
G02*
X147783000Y-103865000I0J-200000D01*
G01*
X147783000Y-104415000D01*
G75*
G02*
X147583000Y-104615000I-200000J0D01*
G01*
X147183000Y-104615000D01*
G75*
G02*
X146983000Y-104415000I0J200000D01*
G01*
G37*
G04 #@! TD.AperFunction*
G04 #@! TA.AperFunction,SMDPad,CuDef*
G36*
G01*
X137497000Y-111739000D02*
X137497000Y-112289000D01*
G75*
G02*
X137297000Y-112489000I-200000J0D01*
G01*
X136897000Y-112489000D01*
G75*
G02*
X136697000Y-112289000I0J200000D01*
G01*
X136697000Y-111739000D01*
G75*
G02*
X136897000Y-111539000I200000J0D01*
G01*
X137297000Y-111539000D01*
G75*
G02*
X137497000Y-111739000I0J-200000D01*
G01*
G37*
G04 #@! TD.AperFunction*
G04 #@! TA.AperFunction,SMDPad,CuDef*
G36*
G01*
X139147000Y-111739000D02*
X139147000Y-112289000D01*
G75*
G02*
X138947000Y-112489000I-200000J0D01*
G01*
X138547000Y-112489000D01*
G75*
G02*
X138347000Y-112289000I0J200000D01*
G01*
X138347000Y-111739000D01*
G75*
G02*
X138547000Y-111539000I200000J0D01*
G01*
X138947000Y-111539000D01*
G75*
G02*
X139147000Y-111739000I0J-200000D01*
G01*
G37*
G04 #@! TD.AperFunction*
D12*
X164193200Y-103773200D03*
X165666400Y-103824000D03*
X165006000Y-104586000D03*
X164955200Y-103062000D03*
X164193200Y-102300000D03*
X163482000Y-103062000D03*
X163482000Y-104535200D03*
X164193200Y-105297200D03*
X165666400Y-105297200D03*
X166479200Y-104586000D03*
X166479200Y-103062000D03*
X165666400Y-102300000D03*
G04 #@! TA.AperFunction,SMDPad,CuDef*
G36*
G01*
X163888100Y-105860000D02*
X162961900Y-105860000D01*
G75*
G02*
X162875000Y-105773100I0J86900D01*
G01*
X162875000Y-104846900D01*
G75*
G02*
X162961900Y-104760000I86900J0D01*
G01*
X163888100Y-104760000D01*
G75*
G02*
X163975000Y-104846900I0J-86900D01*
G01*
X163975000Y-105773100D01*
G75*
G02*
X163888100Y-105860000I-86900J0D01*
G01*
G37*
G04 #@! TD.AperFunction*
G04 #@! TA.AperFunction,SMDPad,CuDef*
G36*
G01*
X163888100Y-104360000D02*
X162961900Y-104360000D01*
G75*
G02*
X162875000Y-104273100I0J86900D01*
G01*
X162875000Y-103346900D01*
G75*
G02*
X162961900Y-103260000I86900J0D01*
G01*
X163888100Y-103260000D01*
G75*
G02*
X163975000Y-103346900I0J-86900D01*
G01*
X163975000Y-104273100D01*
G75*
G02*
X163888100Y-104360000I-86900J0D01*
G01*
G37*
G04 #@! TD.AperFunction*
G04 #@! TA.AperFunction,SMDPad,CuDef*
G36*
G01*
X163888100Y-102860000D02*
X162961900Y-102860000D01*
G75*
G02*
X162875000Y-102773100I0J86900D01*
G01*
X162875000Y-101846900D01*
G75*
G02*
X162961900Y-101760000I86900J0D01*
G01*
X163888100Y-101760000D01*
G75*
G02*
X163975000Y-101846900I0J-86900D01*
G01*
X163975000Y-102773100D01*
G75*
G02*
X163888100Y-102860000I-86900J0D01*
G01*
G37*
G04 #@! TD.AperFunction*
G04 #@! TA.AperFunction,SMDPad,CuDef*
G36*
G01*
X165388100Y-105860000D02*
X164461900Y-105860000D01*
G75*
G02*
X164375000Y-105773100I0J86900D01*
G01*
X164375000Y-104846900D01*
G75*
G02*
X164461900Y-104760000I86900J0D01*
G01*
X165388100Y-104760000D01*
G75*
G02*
X165475000Y-104846900I0J-86900D01*
G01*
X165475000Y-105773100D01*
G75*
G02*
X165388100Y-105860000I-86900J0D01*
G01*
G37*
G04 #@! TD.AperFunction*
G04 #@! TA.AperFunction,SMDPad,CuDef*
G36*
G01*
X165388100Y-104360000D02*
X164461900Y-104360000D01*
G75*
G02*
X164375000Y-104273100I0J86900D01*
G01*
X164375000Y-103346900D01*
G75*
G02*
X164461900Y-103260000I86900J0D01*
G01*
X165388100Y-103260000D01*
G75*
G02*
X165475000Y-103346900I0J-86900D01*
G01*
X165475000Y-104273100D01*
G75*
G02*
X165388100Y-104360000I-86900J0D01*
G01*
G37*
G04 #@! TD.AperFunction*
G04 #@! TA.AperFunction,SMDPad,CuDef*
G36*
G01*
X165388100Y-102860000D02*
X164461900Y-102860000D01*
G75*
G02*
X164375000Y-102773100I0J86900D01*
G01*
X164375000Y-101846900D01*
G75*
G02*
X164461900Y-101760000I86900J0D01*
G01*
X165388100Y-101760000D01*
G75*
G02*
X165475000Y-101846900I0J-86900D01*
G01*
X165475000Y-102773100D01*
G75*
G02*
X165388100Y-102860000I-86900J0D01*
G01*
G37*
G04 #@! TD.AperFunction*
G04 #@! TA.AperFunction,SMDPad,CuDef*
G36*
G01*
X166888100Y-105860000D02*
X165961900Y-105860000D01*
G75*
G02*
X165875000Y-105773100I0J86900D01*
G01*
X165875000Y-104846900D01*
G75*
G02*
X165961900Y-104760000I86900J0D01*
G01*
X166888100Y-104760000D01*
G75*
G02*
X166975000Y-104846900I0J-86900D01*
G01*
X166975000Y-105773100D01*
G75*
G02*
X166888100Y-105860000I-86900J0D01*
G01*
G37*
G04 #@! TD.AperFunction*
G04 #@! TA.AperFunction,SMDPad,CuDef*
G36*
G01*
X166888100Y-104360000D02*
X165961900Y-104360000D01*
G75*
G02*
X165875000Y-104273100I0J86900D01*
G01*
X165875000Y-103346900D01*
G75*
G02*
X165961900Y-103260000I86900J0D01*
G01*
X166888100Y-103260000D01*
G75*
G02*
X166975000Y-103346900I0J-86900D01*
G01*
X166975000Y-104273100D01*
G75*
G02*
X166888100Y-104360000I-86900J0D01*
G01*
G37*
G04 #@! TD.AperFunction*
G04 #@! TA.AperFunction,SMDPad,CuDef*
G36*
G01*
X166888100Y-102860000D02*
X165961900Y-102860000D01*
G75*
G02*
X165875000Y-102773100I0J86900D01*
G01*
X165875000Y-101846900D01*
G75*
G02*
X165961900Y-101760000I86900J0D01*
G01*
X166888100Y-101760000D01*
G75*
G02*
X166975000Y-101846900I0J-86900D01*
G01*
X166975000Y-102773100D01*
G75*
G02*
X166888100Y-102860000I-86900J0D01*
G01*
G37*
G04 #@! TD.AperFunction*
G04 #@! TA.AperFunction,SMDPad,CuDef*
G36*
G01*
X173378900Y-114450000D02*
X172621100Y-114450000D01*
G75*
G02*
X172550000Y-114378900I0J71100D01*
G01*
X172550000Y-113021100D01*
G75*
G02*
X172621100Y-112950000I71100J0D01*
G01*
X173378900Y-112950000D01*
G75*
G02*
X173450000Y-113021100I0J-71100D01*
G01*
X173450000Y-114378900D01*
G75*
G02*
X173378900Y-114450000I-71100J0D01*
G01*
G37*
G04 #@! TD.AperFunction*
G04 #@! TA.AperFunction,SMDPad,CuDef*
G36*
G01*
X171878900Y-114450000D02*
X171121100Y-114450000D01*
G75*
G02*
X171050000Y-114378900I0J71100D01*
G01*
X171050000Y-113021100D01*
G75*
G02*
X171121100Y-112950000I71100J0D01*
G01*
X171878900Y-112950000D01*
G75*
G02*
X171950000Y-113021100I0J-71100D01*
G01*
X171950000Y-114378900D01*
G75*
G02*
X171878900Y-114450000I-71100J0D01*
G01*
G37*
G04 #@! TD.AperFunction*
G04 #@! TA.AperFunction,SMDPad,CuDef*
G36*
G01*
X170378900Y-114450000D02*
X169621100Y-114450000D01*
G75*
G02*
X169550000Y-114378900I0J71100D01*
G01*
X169550000Y-113021100D01*
G75*
G02*
X169621100Y-112950000I71100J0D01*
G01*
X170378900Y-112950000D01*
G75*
G02*
X170450000Y-113021100I0J-71100D01*
G01*
X170450000Y-114378900D01*
G75*
G02*
X170378900Y-114450000I-71100J0D01*
G01*
G37*
G04 #@! TD.AperFunction*
G04 #@! TA.AperFunction,SMDPad,CuDef*
G36*
G01*
X168878900Y-114450000D02*
X168121100Y-114450000D01*
G75*
G02*
X168050000Y-114378900I0J71100D01*
G01*
X168050000Y-113021100D01*
G75*
G02*
X168121100Y-112950000I71100J0D01*
G01*
X168878900Y-112950000D01*
G75*
G02*
X168950000Y-113021100I0J-71100D01*
G01*
X168950000Y-114378900D01*
G75*
G02*
X168878900Y-114450000I-71100J0D01*
G01*
G37*
G04 #@! TD.AperFunction*
G04 #@! TA.AperFunction,SMDPad,CuDef*
G36*
G01*
X167378900Y-114450000D02*
X166621100Y-114450000D01*
G75*
G02*
X166550000Y-114378900I0J71100D01*
G01*
X166550000Y-113021100D01*
G75*
G02*
X166621100Y-112950000I71100J0D01*
G01*
X167378900Y-112950000D01*
G75*
G02*
X167450000Y-113021100I0J-71100D01*
G01*
X167450000Y-114378900D01*
G75*
G02*
X167378900Y-114450000I-71100J0D01*
G01*
G37*
G04 #@! TD.AperFunction*
G04 #@! TA.AperFunction,SMDPad,CuDef*
G36*
G01*
X165878900Y-114450000D02*
X165121100Y-114450000D01*
G75*
G02*
X165050000Y-114378900I0J71100D01*
G01*
X165050000Y-113021100D01*
G75*
G02*
X165121100Y-112950000I71100J0D01*
G01*
X165878900Y-112950000D01*
G75*
G02*
X165950000Y-113021100I0J-71100D01*
G01*
X165950000Y-114378900D01*
G75*
G02*
X165878900Y-114450000I-71100J0D01*
G01*
G37*
G04 #@! TD.AperFunction*
G04 #@! TA.AperFunction,SMDPad,CuDef*
G36*
G01*
X164378900Y-114450000D02*
X163621100Y-114450000D01*
G75*
G02*
X163550000Y-114378900I0J71100D01*
G01*
X163550000Y-113021100D01*
G75*
G02*
X163621100Y-112950000I71100J0D01*
G01*
X164378900Y-112950000D01*
G75*
G02*
X164450000Y-113021100I0J-71100D01*
G01*
X164450000Y-114378900D01*
G75*
G02*
X164378900Y-114450000I-71100J0D01*
G01*
G37*
G04 #@! TD.AperFunction*
G04 #@! TA.AperFunction,SMDPad,CuDef*
G36*
G01*
X162878900Y-114450000D02*
X162121100Y-114450000D01*
G75*
G02*
X162050000Y-114378900I0J71100D01*
G01*
X162050000Y-113021100D01*
G75*
G02*
X162121100Y-112950000I71100J0D01*
G01*
X162878900Y-112950000D01*
G75*
G02*
X162950000Y-113021100I0J-71100D01*
G01*
X162950000Y-114378900D01*
G75*
G02*
X162878900Y-114450000I-71100J0D01*
G01*
G37*
G04 #@! TD.AperFunction*
G04 #@! TA.AperFunction,SMDPad,CuDef*
G36*
G01*
X161378900Y-114450000D02*
X160621100Y-114450000D01*
G75*
G02*
X160550000Y-114378900I0J71100D01*
G01*
X160550000Y-113021100D01*
G75*
G02*
X160621100Y-112950000I71100J0D01*
G01*
X161378900Y-112950000D01*
G75*
G02*
X161450000Y-113021100I0J-71100D01*
G01*
X161450000Y-114378900D01*
G75*
G02*
X161378900Y-114450000I-71100J0D01*
G01*
G37*
G04 #@! TD.AperFunction*
G04 #@! TA.AperFunction,SMDPad,CuDef*
G36*
G01*
X159878900Y-114450000D02*
X159121100Y-114450000D01*
G75*
G02*
X159050000Y-114378900I0J71100D01*
G01*
X159050000Y-113021100D01*
G75*
G02*
X159121100Y-112950000I71100J0D01*
G01*
X159878900Y-112950000D01*
G75*
G02*
X159950000Y-113021100I0J-71100D01*
G01*
X159950000Y-114378900D01*
G75*
G02*
X159878900Y-114450000I-71100J0D01*
G01*
G37*
G04 #@! TD.AperFunction*
G04 #@! TA.AperFunction,SMDPad,CuDef*
G36*
G01*
X158378900Y-114450000D02*
X157621100Y-114450000D01*
G75*
G02*
X157550000Y-114378900I0J71100D01*
G01*
X157550000Y-113021100D01*
G75*
G02*
X157621100Y-112950000I71100J0D01*
G01*
X158378900Y-112950000D01*
G75*
G02*
X158450000Y-113021100I0J-71100D01*
G01*
X158450000Y-114378900D01*
G75*
G02*
X158378900Y-114450000I-71100J0D01*
G01*
G37*
G04 #@! TD.AperFunction*
G04 #@! TA.AperFunction,SMDPad,CuDef*
G36*
G01*
X156878900Y-114450000D02*
X156121100Y-114450000D01*
G75*
G02*
X156050000Y-114378900I0J71100D01*
G01*
X156050000Y-113021100D01*
G75*
G02*
X156121100Y-112950000I71100J0D01*
G01*
X156878900Y-112950000D01*
G75*
G02*
X156950000Y-113021100I0J-71100D01*
G01*
X156950000Y-114378900D01*
G75*
G02*
X156878900Y-114450000I-71100J0D01*
G01*
G37*
G04 #@! TD.AperFunction*
G04 #@! TA.AperFunction,SMDPad,CuDef*
G36*
G01*
X155378900Y-114450000D02*
X154621100Y-114450000D01*
G75*
G02*
X154550000Y-114378900I0J71100D01*
G01*
X154550000Y-113021100D01*
G75*
G02*
X154621100Y-112950000I71100J0D01*
G01*
X155378900Y-112950000D01*
G75*
G02*
X155450000Y-113021100I0J-71100D01*
G01*
X155450000Y-114378900D01*
G75*
G02*
X155378900Y-114450000I-71100J0D01*
G01*
G37*
G04 #@! TD.AperFunction*
G04 #@! TA.AperFunction,SMDPad,CuDef*
G36*
G01*
X153878900Y-114450000D02*
X153121100Y-114450000D01*
G75*
G02*
X153050000Y-114378900I0J71100D01*
G01*
X153050000Y-113021100D01*
G75*
G02*
X153121100Y-112950000I71100J0D01*
G01*
X153878900Y-112950000D01*
G75*
G02*
X153950000Y-113021100I0J-71100D01*
G01*
X153950000Y-114378900D01*
G75*
G02*
X153878900Y-114450000I-71100J0D01*
G01*
G37*
G04 #@! TD.AperFunction*
G04 #@! TA.AperFunction,SMDPad,CuDef*
G36*
G01*
X152378900Y-114450000D02*
X151621100Y-114450000D01*
G75*
G02*
X151550000Y-114378900I0J71100D01*
G01*
X151550000Y-113021100D01*
G75*
G02*
X151621100Y-112950000I71100J0D01*
G01*
X152378900Y-112950000D01*
G75*
G02*
X152450000Y-113021100I0J-71100D01*
G01*
X152450000Y-114378900D01*
G75*
G02*
X152378900Y-114450000I-71100J0D01*
G01*
G37*
G04 #@! TD.AperFunction*
G04 #@! TA.AperFunction,SMDPad,CuDef*
G36*
G01*
X150878900Y-114450000D02*
X150121100Y-114450000D01*
G75*
G02*
X150050000Y-114378900I0J71100D01*
G01*
X150050000Y-113021100D01*
G75*
G02*
X150121100Y-112950000I71100J0D01*
G01*
X150878900Y-112950000D01*
G75*
G02*
X150950000Y-113021100I0J-71100D01*
G01*
X150950000Y-114378900D01*
G75*
G02*
X150878900Y-114450000I-71100J0D01*
G01*
G37*
G04 #@! TD.AperFunction*
G04 #@! TA.AperFunction,SMDPad,CuDef*
G36*
G01*
X149000000Y-112078900D02*
X149000000Y-111321100D01*
G75*
G02*
X149071100Y-111250000I71100J0D01*
G01*
X150428900Y-111250000D01*
G75*
G02*
X150500000Y-111321100I0J-71100D01*
G01*
X150500000Y-112078900D01*
G75*
G02*
X150428900Y-112150000I-71100J0D01*
G01*
X149071100Y-112150000D01*
G75*
G02*
X149000000Y-112078900I0J71100D01*
G01*
G37*
G04 #@! TD.AperFunction*
G04 #@! TA.AperFunction,SMDPad,CuDef*
G36*
G01*
X149000000Y-110578900D02*
X149000000Y-109821100D01*
G75*
G02*
X149071100Y-109750000I71100J0D01*
G01*
X150428900Y-109750000D01*
G75*
G02*
X150500000Y-109821100I0J-71100D01*
G01*
X150500000Y-110578900D01*
G75*
G02*
X150428900Y-110650000I-71100J0D01*
G01*
X149071100Y-110650000D01*
G75*
G02*
X149000000Y-110578900I0J71100D01*
G01*
G37*
G04 #@! TD.AperFunction*
G04 #@! TA.AperFunction,SMDPad,CuDef*
G36*
G01*
X149000000Y-109078900D02*
X149000000Y-108321100D01*
G75*
G02*
X149071100Y-108250000I71100J0D01*
G01*
X150428900Y-108250000D01*
G75*
G02*
X150500000Y-108321100I0J-71100D01*
G01*
X150500000Y-109078900D01*
G75*
G02*
X150428900Y-109150000I-71100J0D01*
G01*
X149071100Y-109150000D01*
G75*
G02*
X149000000Y-109078900I0J71100D01*
G01*
G37*
G04 #@! TD.AperFunction*
G04 #@! TA.AperFunction,SMDPad,CuDef*
G36*
G01*
X149000000Y-107578900D02*
X149000000Y-106821100D01*
G75*
G02*
X149071100Y-106750000I71100J0D01*
G01*
X150428900Y-106750000D01*
G75*
G02*
X150500000Y-106821100I0J-71100D01*
G01*
X150500000Y-107578900D01*
G75*
G02*
X150428900Y-107650000I-71100J0D01*
G01*
X149071100Y-107650000D01*
G75*
G02*
X149000000Y-107578900I0J71100D01*
G01*
G37*
G04 #@! TD.AperFunction*
G04 #@! TA.AperFunction,SMDPad,CuDef*
G36*
G01*
X149000000Y-106078900D02*
X149000000Y-105321100D01*
G75*
G02*
X149071100Y-105250000I71100J0D01*
G01*
X150428900Y-105250000D01*
G75*
G02*
X150500000Y-105321100I0J-71100D01*
G01*
X150500000Y-106078900D01*
G75*
G02*
X150428900Y-106150000I-71100J0D01*
G01*
X149071100Y-106150000D01*
G75*
G02*
X149000000Y-106078900I0J71100D01*
G01*
G37*
G04 #@! TD.AperFunction*
G04 #@! TA.AperFunction,SMDPad,CuDef*
G36*
G01*
X149000000Y-104578900D02*
X149000000Y-103821100D01*
G75*
G02*
X149071100Y-103750000I71100J0D01*
G01*
X150428900Y-103750000D01*
G75*
G02*
X150500000Y-103821100I0J-71100D01*
G01*
X150500000Y-104578900D01*
G75*
G02*
X150428900Y-104650000I-71100J0D01*
G01*
X149071100Y-104650000D01*
G75*
G02*
X149000000Y-104578900I0J71100D01*
G01*
G37*
G04 #@! TD.AperFunction*
G04 #@! TA.AperFunction,SMDPad,CuDef*
G36*
G01*
X149000000Y-103078900D02*
X149000000Y-102321100D01*
G75*
G02*
X149071100Y-102250000I71100J0D01*
G01*
X150428900Y-102250000D01*
G75*
G02*
X150500000Y-102321100I0J-71100D01*
G01*
X150500000Y-103078900D01*
G75*
G02*
X150428900Y-103150000I-71100J0D01*
G01*
X149071100Y-103150000D01*
G75*
G02*
X149000000Y-103078900I0J71100D01*
G01*
G37*
G04 #@! TD.AperFunction*
G04 #@! TA.AperFunction,SMDPad,CuDef*
G36*
G01*
X149000000Y-101578900D02*
X149000000Y-100821100D01*
G75*
G02*
X149071100Y-100750000I71100J0D01*
G01*
X150428900Y-100750000D01*
G75*
G02*
X150500000Y-100821100I0J-71100D01*
G01*
X150500000Y-101578900D01*
G75*
G02*
X150428900Y-101650000I-71100J0D01*
G01*
X149071100Y-101650000D01*
G75*
G02*
X149000000Y-101578900I0J71100D01*
G01*
G37*
G04 #@! TD.AperFunction*
G04 #@! TA.AperFunction,SMDPad,CuDef*
G36*
G01*
X149000000Y-100078900D02*
X149000000Y-99321100D01*
G75*
G02*
X149071100Y-99250000I71100J0D01*
G01*
X150428900Y-99250000D01*
G75*
G02*
X150500000Y-99321100I0J-71100D01*
G01*
X150500000Y-100078900D01*
G75*
G02*
X150428900Y-100150000I-71100J0D01*
G01*
X149071100Y-100150000D01*
G75*
G02*
X149000000Y-100078900I0J71100D01*
G01*
G37*
G04 #@! TD.AperFunction*
G04 #@! TA.AperFunction,SMDPad,CuDef*
G36*
G01*
X149000000Y-98578900D02*
X149000000Y-97821100D01*
G75*
G02*
X149071100Y-97750000I71100J0D01*
G01*
X150428900Y-97750000D01*
G75*
G02*
X150500000Y-97821100I0J-71100D01*
G01*
X150500000Y-98578900D01*
G75*
G02*
X150428900Y-98650000I-71100J0D01*
G01*
X149071100Y-98650000D01*
G75*
G02*
X149000000Y-98578900I0J71100D01*
G01*
G37*
G04 #@! TD.AperFunction*
G04 #@! TA.AperFunction,SMDPad,CuDef*
G36*
G01*
X150121100Y-95450000D02*
X150878900Y-95450000D01*
G75*
G02*
X150950000Y-95521100I0J-71100D01*
G01*
X150950000Y-96878900D01*
G75*
G02*
X150878900Y-96950000I-71100J0D01*
G01*
X150121100Y-96950000D01*
G75*
G02*
X150050000Y-96878900I0J71100D01*
G01*
X150050000Y-95521100D01*
G75*
G02*
X150121100Y-95450000I71100J0D01*
G01*
G37*
G04 #@! TD.AperFunction*
G04 #@! TA.AperFunction,SMDPad,CuDef*
G36*
G01*
X151621100Y-95450000D02*
X152378900Y-95450000D01*
G75*
G02*
X152450000Y-95521100I0J-71100D01*
G01*
X152450000Y-96878900D01*
G75*
G02*
X152378900Y-96950000I-71100J0D01*
G01*
X151621100Y-96950000D01*
G75*
G02*
X151550000Y-96878900I0J71100D01*
G01*
X151550000Y-95521100D01*
G75*
G02*
X151621100Y-95450000I71100J0D01*
G01*
G37*
G04 #@! TD.AperFunction*
G04 #@! TA.AperFunction,SMDPad,CuDef*
G36*
G01*
X153121100Y-95450000D02*
X153878900Y-95450000D01*
G75*
G02*
X153950000Y-95521100I0J-71100D01*
G01*
X153950000Y-96878900D01*
G75*
G02*
X153878900Y-96950000I-71100J0D01*
G01*
X153121100Y-96950000D01*
G75*
G02*
X153050000Y-96878900I0J71100D01*
G01*
X153050000Y-95521100D01*
G75*
G02*
X153121100Y-95450000I71100J0D01*
G01*
G37*
G04 #@! TD.AperFunction*
G04 #@! TA.AperFunction,SMDPad,CuDef*
G36*
G01*
X154621100Y-95450000D02*
X155378900Y-95450000D01*
G75*
G02*
X155450000Y-95521100I0J-71100D01*
G01*
X155450000Y-96878900D01*
G75*
G02*
X155378900Y-96950000I-71100J0D01*
G01*
X154621100Y-96950000D01*
G75*
G02*
X154550000Y-96878900I0J71100D01*
G01*
X154550000Y-95521100D01*
G75*
G02*
X154621100Y-95450000I71100J0D01*
G01*
G37*
G04 #@! TD.AperFunction*
G04 #@! TA.AperFunction,SMDPad,CuDef*
G36*
G01*
X156121100Y-95450000D02*
X156878900Y-95450000D01*
G75*
G02*
X156950000Y-95521100I0J-71100D01*
G01*
X156950000Y-96878900D01*
G75*
G02*
X156878900Y-96950000I-71100J0D01*
G01*
X156121100Y-96950000D01*
G75*
G02*
X156050000Y-96878900I0J71100D01*
G01*
X156050000Y-95521100D01*
G75*
G02*
X156121100Y-95450000I71100J0D01*
G01*
G37*
G04 #@! TD.AperFunction*
G04 #@! TA.AperFunction,SMDPad,CuDef*
G36*
G01*
X157621100Y-95450000D02*
X158378900Y-95450000D01*
G75*
G02*
X158450000Y-95521100I0J-71100D01*
G01*
X158450000Y-96878900D01*
G75*
G02*
X158378900Y-96950000I-71100J0D01*
G01*
X157621100Y-96950000D01*
G75*
G02*
X157550000Y-96878900I0J71100D01*
G01*
X157550000Y-95521100D01*
G75*
G02*
X157621100Y-95450000I71100J0D01*
G01*
G37*
G04 #@! TD.AperFunction*
G04 #@! TA.AperFunction,SMDPad,CuDef*
G36*
G01*
X159121100Y-95450000D02*
X159878900Y-95450000D01*
G75*
G02*
X159950000Y-95521100I0J-71100D01*
G01*
X159950000Y-96878900D01*
G75*
G02*
X159878900Y-96950000I-71100J0D01*
G01*
X159121100Y-96950000D01*
G75*
G02*
X159050000Y-96878900I0J71100D01*
G01*
X159050000Y-95521100D01*
G75*
G02*
X159121100Y-95450000I71100J0D01*
G01*
G37*
G04 #@! TD.AperFunction*
G04 #@! TA.AperFunction,SMDPad,CuDef*
G36*
G01*
X160621100Y-95450000D02*
X161378900Y-95450000D01*
G75*
G02*
X161450000Y-95521100I0J-71100D01*
G01*
X161450000Y-96878900D01*
G75*
G02*
X161378900Y-96950000I-71100J0D01*
G01*
X160621100Y-96950000D01*
G75*
G02*
X160550000Y-96878900I0J71100D01*
G01*
X160550000Y-95521100D01*
G75*
G02*
X160621100Y-95450000I71100J0D01*
G01*
G37*
G04 #@! TD.AperFunction*
G04 #@! TA.AperFunction,SMDPad,CuDef*
G36*
G01*
X162121100Y-95450000D02*
X162878900Y-95450000D01*
G75*
G02*
X162950000Y-95521100I0J-71100D01*
G01*
X162950000Y-96878900D01*
G75*
G02*
X162878900Y-96950000I-71100J0D01*
G01*
X162121100Y-96950000D01*
G75*
G02*
X162050000Y-96878900I0J71100D01*
G01*
X162050000Y-95521100D01*
G75*
G02*
X162121100Y-95450000I71100J0D01*
G01*
G37*
G04 #@! TD.AperFunction*
G04 #@! TA.AperFunction,SMDPad,CuDef*
G36*
G01*
X163621100Y-95450000D02*
X164378900Y-95450000D01*
G75*
G02*
X164450000Y-95521100I0J-71100D01*
G01*
X164450000Y-96878900D01*
G75*
G02*
X164378900Y-96950000I-71100J0D01*
G01*
X163621100Y-96950000D01*
G75*
G02*
X163550000Y-96878900I0J71100D01*
G01*
X163550000Y-95521100D01*
G75*
G02*
X163621100Y-95450000I71100J0D01*
G01*
G37*
G04 #@! TD.AperFunction*
G04 #@! TA.AperFunction,SMDPad,CuDef*
G36*
G01*
X165121100Y-95450000D02*
X165878900Y-95450000D01*
G75*
G02*
X165950000Y-95521100I0J-71100D01*
G01*
X165950000Y-96878900D01*
G75*
G02*
X165878900Y-96950000I-71100J0D01*
G01*
X165121100Y-96950000D01*
G75*
G02*
X165050000Y-96878900I0J71100D01*
G01*
X165050000Y-95521100D01*
G75*
G02*
X165121100Y-95450000I71100J0D01*
G01*
G37*
G04 #@! TD.AperFunction*
G04 #@! TA.AperFunction,SMDPad,CuDef*
G36*
G01*
X166621100Y-95450000D02*
X167378900Y-95450000D01*
G75*
G02*
X167450000Y-95521100I0J-71100D01*
G01*
X167450000Y-96878900D01*
G75*
G02*
X167378900Y-96950000I-71100J0D01*
G01*
X166621100Y-96950000D01*
G75*
G02*
X166550000Y-96878900I0J71100D01*
G01*
X166550000Y-95521100D01*
G75*
G02*
X166621100Y-95450000I71100J0D01*
G01*
G37*
G04 #@! TD.AperFunction*
G04 #@! TA.AperFunction,SMDPad,CuDef*
G36*
G01*
X168121100Y-95450000D02*
X168878900Y-95450000D01*
G75*
G02*
X168950000Y-95521100I0J-71100D01*
G01*
X168950000Y-96878900D01*
G75*
G02*
X168878900Y-96950000I-71100J0D01*
G01*
X168121100Y-96950000D01*
G75*
G02*
X168050000Y-96878900I0J71100D01*
G01*
X168050000Y-95521100D01*
G75*
G02*
X168121100Y-95450000I71100J0D01*
G01*
G37*
G04 #@! TD.AperFunction*
G04 #@! TA.AperFunction,SMDPad,CuDef*
G36*
G01*
X169621100Y-95450000D02*
X170378900Y-95450000D01*
G75*
G02*
X170450000Y-95521100I0J-71100D01*
G01*
X170450000Y-96878900D01*
G75*
G02*
X170378900Y-96950000I-71100J0D01*
G01*
X169621100Y-96950000D01*
G75*
G02*
X169550000Y-96878900I0J71100D01*
G01*
X169550000Y-95521100D01*
G75*
G02*
X169621100Y-95450000I71100J0D01*
G01*
G37*
G04 #@! TD.AperFunction*
G04 #@! TA.AperFunction,SMDPad,CuDef*
G36*
G01*
X171121100Y-95450000D02*
X171878900Y-95450000D01*
G75*
G02*
X171950000Y-95521100I0J-71100D01*
G01*
X171950000Y-96878900D01*
G75*
G02*
X171878900Y-96950000I-71100J0D01*
G01*
X171121100Y-96950000D01*
G75*
G02*
X171050000Y-96878900I0J71100D01*
G01*
X171050000Y-95521100D01*
G75*
G02*
X171121100Y-95450000I71100J0D01*
G01*
G37*
G04 #@! TD.AperFunction*
G04 #@! TA.AperFunction,SMDPad,CuDef*
G36*
G01*
X172621100Y-95450000D02*
X173378900Y-95450000D01*
G75*
G02*
X173450000Y-95521100I0J-71100D01*
G01*
X173450000Y-96878900D01*
G75*
G02*
X173378900Y-96950000I-71100J0D01*
G01*
X172621100Y-96950000D01*
G75*
G02*
X172550000Y-96878900I0J71100D01*
G01*
X172550000Y-95521100D01*
G75*
G02*
X172621100Y-95450000I71100J0D01*
G01*
G37*
G04 #@! TD.AperFunction*
G04 #@! TA.AperFunction,SMDPad,CuDef*
G36*
G01*
X145333000Y-98040000D02*
X145333000Y-97540000D01*
G75*
G02*
X145558000Y-97315000I225000J0D01*
G01*
X146008000Y-97315000D01*
G75*
G02*
X146233000Y-97540000I0J-225000D01*
G01*
X146233000Y-98040000D01*
G75*
G02*
X146008000Y-98265000I-225000J0D01*
G01*
X145558000Y-98265000D01*
G75*
G02*
X145333000Y-98040000I0J225000D01*
G01*
G37*
G04 #@! TD.AperFunction*
G04 #@! TA.AperFunction,SMDPad,CuDef*
G36*
G01*
X146883000Y-98040000D02*
X146883000Y-97540000D01*
G75*
G02*
X147108000Y-97315000I225000J0D01*
G01*
X147558000Y-97315000D01*
G75*
G02*
X147783000Y-97540000I0J-225000D01*
G01*
X147783000Y-98040000D01*
G75*
G02*
X147558000Y-98265000I-225000J0D01*
G01*
X147108000Y-98265000D01*
G75*
G02*
X146883000Y-98040000I0J225000D01*
G01*
G37*
G04 #@! TD.AperFunction*
G04 #@! TA.AperFunction,SMDPad,CuDef*
G36*
G01*
X141269000Y-98040000D02*
X141269000Y-97540000D01*
G75*
G02*
X141494000Y-97315000I225000J0D01*
G01*
X141944000Y-97315000D01*
G75*
G02*
X142169000Y-97540000I0J-225000D01*
G01*
X142169000Y-98040000D01*
G75*
G02*
X141944000Y-98265000I-225000J0D01*
G01*
X141494000Y-98265000D01*
G75*
G02*
X141269000Y-98040000I0J225000D01*
G01*
G37*
G04 #@! TD.AperFunction*
G04 #@! TA.AperFunction,SMDPad,CuDef*
G36*
G01*
X142819000Y-98040000D02*
X142819000Y-97540000D01*
G75*
G02*
X143044000Y-97315000I225000J0D01*
G01*
X143494000Y-97315000D01*
G75*
G02*
X143719000Y-97540000I0J-225000D01*
G01*
X143719000Y-98040000D01*
G75*
G02*
X143494000Y-98265000I-225000J0D01*
G01*
X143044000Y-98265000D01*
G75*
G02*
X142819000Y-98040000I0J225000D01*
G01*
G37*
G04 #@! TD.AperFunction*
G04 #@! TA.AperFunction,SMDPad,CuDef*
G36*
G01*
X142169000Y-106938000D02*
X142169000Y-107438000D01*
G75*
G02*
X141944000Y-107663000I-225000J0D01*
G01*
X141494000Y-107663000D01*
G75*
G02*
X141269000Y-107438000I0J225000D01*
G01*
X141269000Y-106938000D01*
G75*
G02*
X141494000Y-106713000I225000J0D01*
G01*
X141944000Y-106713000D01*
G75*
G02*
X142169000Y-106938000I0J-225000D01*
G01*
G37*
G04 #@! TD.AperFunction*
G04 #@! TA.AperFunction,SMDPad,CuDef*
G36*
G01*
X143719000Y-106938000D02*
X143719000Y-107438000D01*
G75*
G02*
X143494000Y-107663000I-225000J0D01*
G01*
X143044000Y-107663000D01*
G75*
G02*
X142819000Y-107438000I0J225000D01*
G01*
X142819000Y-106938000D01*
G75*
G02*
X143044000Y-106713000I225000J0D01*
G01*
X143494000Y-106713000D01*
G75*
G02*
X143719000Y-106938000I0J-225000D01*
G01*
G37*
G04 #@! TD.AperFunction*
G04 #@! TA.AperFunction,SMDPad,CuDef*
G36*
G01*
X142169000Y-105414000D02*
X142169000Y-105914000D01*
G75*
G02*
X141944000Y-106139000I-225000J0D01*
G01*
X141494000Y-106139000D01*
G75*
G02*
X141269000Y-105914000I0J225000D01*
G01*
X141269000Y-105414000D01*
G75*
G02*
X141494000Y-105189000I225000J0D01*
G01*
X141944000Y-105189000D01*
G75*
G02*
X142169000Y-105414000I0J-225000D01*
G01*
G37*
G04 #@! TD.AperFunction*
G04 #@! TA.AperFunction,SMDPad,CuDef*
G36*
G01*
X143719000Y-105414000D02*
X143719000Y-105914000D01*
G75*
G02*
X143494000Y-106139000I-225000J0D01*
G01*
X143044000Y-106139000D01*
G75*
G02*
X142819000Y-105914000I0J225000D01*
G01*
X142819000Y-105414000D01*
G75*
G02*
X143044000Y-105189000I225000J0D01*
G01*
X143494000Y-105189000D01*
G75*
G02*
X143719000Y-105414000I0J-225000D01*
G01*
G37*
G04 #@! TD.AperFunction*
G04 #@! TA.AperFunction,SMDPad,CuDef*
G36*
G01*
X136697000Y-113788000D02*
X136697000Y-113288000D01*
G75*
G02*
X136922000Y-113063000I225000J0D01*
G01*
X137372000Y-113063000D01*
G75*
G02*
X137597000Y-113288000I0J-225000D01*
G01*
X137597000Y-113788000D01*
G75*
G02*
X137372000Y-114013000I-225000J0D01*
G01*
X136922000Y-114013000D01*
G75*
G02*
X136697000Y-113788000I0J225000D01*
G01*
G37*
G04 #@! TD.AperFunction*
G04 #@! TA.AperFunction,SMDPad,CuDef*
G36*
G01*
X138247000Y-113788000D02*
X138247000Y-113288000D01*
G75*
G02*
X138472000Y-113063000I225000J0D01*
G01*
X138922000Y-113063000D01*
G75*
G02*
X139147000Y-113288000I0J-225000D01*
G01*
X139147000Y-113788000D01*
G75*
G02*
X138922000Y-114013000I-225000J0D01*
G01*
X138472000Y-114013000D01*
G75*
G02*
X138247000Y-113788000I0J225000D01*
G01*
G37*
G04 #@! TD.AperFunction*
D13*
X135004000Y-107696000D03*
X132204000Y-107696000D03*
D14*
X128352350Y-101518600D03*
X128352350Y-103891600D03*
X128352350Y-106145600D03*
X128352350Y-108518600D03*
D15*
X125952350Y-110818600D03*
X125952350Y-99218600D03*
G04 #@! TA.AperFunction,SMDPad,CuDef*
G36*
G01*
X145333000Y-107463000D02*
X145333000Y-106913000D01*
G75*
G02*
X145533000Y-106713000I200000J0D01*
G01*
X145933000Y-106713000D01*
G75*
G02*
X146133000Y-106913000I0J-200000D01*
G01*
X146133000Y-107463000D01*
G75*
G02*
X145933000Y-107663000I-200000J0D01*
G01*
X145533000Y-107663000D01*
G75*
G02*
X145333000Y-107463000I0J200000D01*
G01*
G37*
G04 #@! TD.AperFunction*
G04 #@! TA.AperFunction,SMDPad,CuDef*
G36*
G01*
X146983000Y-107463000D02*
X146983000Y-106913000D01*
G75*
G02*
X147183000Y-106713000I200000J0D01*
G01*
X147583000Y-106713000D01*
G75*
G02*
X147783000Y-106913000I0J-200000D01*
G01*
X147783000Y-107463000D01*
G75*
G02*
X147583000Y-107663000I-200000J0D01*
G01*
X147183000Y-107663000D01*
G75*
G02*
X146983000Y-107463000I0J200000D01*
G01*
G37*
G04 #@! TD.AperFunction*
G04 #@! TA.AperFunction,SMDPad,CuDef*
G36*
G01*
X146133000Y-105389000D02*
X146133000Y-105939000D01*
G75*
G02*
X145933000Y-106139000I-200000J0D01*
G01*
X145533000Y-106139000D01*
G75*
G02*
X145333000Y-105939000I0J200000D01*
G01*
X145333000Y-105389000D01*
G75*
G02*
X145533000Y-105189000I200000J0D01*
G01*
X145933000Y-105189000D01*
G75*
G02*
X146133000Y-105389000I0J-200000D01*
G01*
G37*
G04 #@! TD.AperFunction*
G04 #@! TA.AperFunction,SMDPad,CuDef*
G36*
G01*
X147783000Y-105389000D02*
X147783000Y-105939000D01*
G75*
G02*
X147583000Y-106139000I-200000J0D01*
G01*
X147183000Y-106139000D01*
G75*
G02*
X146983000Y-105939000I0J200000D01*
G01*
X146983000Y-105389000D01*
G75*
G02*
X147183000Y-105189000I200000J0D01*
G01*
X147583000Y-105189000D01*
G75*
G02*
X147783000Y-105389000I0J-200000D01*
G01*
G37*
G04 #@! TD.AperFunction*
D16*
X138876000Y-110490000D03*
X137476000Y-110490000D03*
X138876000Y-108966000D03*
X137476000Y-108966000D03*
X137476000Y-107442000D03*
X138876000Y-107442000D03*
G04 #@! TA.AperFunction,SMDPad,CuDef*
G36*
G01*
X142819000Y-101088000D02*
X142819000Y-100588000D01*
G75*
G02*
X143044000Y-100363000I225000J0D01*
G01*
X143494000Y-100363000D01*
G75*
G02*
X143719000Y-100588000I0J-225000D01*
G01*
X143719000Y-101088000D01*
G75*
G02*
X143494000Y-101313000I-225000J0D01*
G01*
X143044000Y-101313000D01*
G75*
G02*
X142819000Y-101088000I0J225000D01*
G01*
G37*
G04 #@! TD.AperFunction*
G04 #@! TA.AperFunction,SMDPad,CuDef*
G36*
G01*
X141269000Y-101088000D02*
X141269000Y-100588000D01*
G75*
G02*
X141494000Y-100363000I225000J0D01*
G01*
X141944000Y-100363000D01*
G75*
G02*
X142169000Y-100588000I0J-225000D01*
G01*
X142169000Y-101088000D01*
G75*
G02*
X141944000Y-101313000I-225000J0D01*
G01*
X141494000Y-101313000D01*
G75*
G02*
X141269000Y-101088000I0J225000D01*
G01*
G37*
G04 #@! TD.AperFunction*
G04 #@! TA.AperFunction,SMDPad,CuDef*
G36*
G01*
X141256000Y-99564000D02*
X141256000Y-99064000D01*
G75*
G02*
X141481000Y-98839000I225000J0D01*
G01*
X141931000Y-98839000D01*
G75*
G02*
X142156000Y-99064000I0J-225000D01*
G01*
X142156000Y-99564000D01*
G75*
G02*
X141931000Y-99789000I-225000J0D01*
G01*
X141481000Y-99789000D01*
G75*
G02*
X141256000Y-99564000I0J225000D01*
G01*
G37*
G04 #@! TD.AperFunction*
G04 #@! TA.AperFunction,SMDPad,CuDef*
G36*
G01*
X142806000Y-99564000D02*
X142806000Y-99064000D01*
G75*
G02*
X143031000Y-98839000I225000J0D01*
G01*
X143481000Y-98839000D01*
G75*
G02*
X143706000Y-99064000I0J-225000D01*
G01*
X143706000Y-99564000D01*
G75*
G02*
X143481000Y-99789000I-225000J0D01*
G01*
X143031000Y-99789000D01*
G75*
G02*
X142806000Y-99564000I0J225000D01*
G01*
G37*
G04 #@! TD.AperFunction*
G04 #@! TA.AperFunction,SMDPad,CuDef*
G36*
G01*
X146883000Y-102866000D02*
X146883000Y-102366000D01*
G75*
G02*
X147108000Y-102141000I225000J0D01*
G01*
X147558000Y-102141000D01*
G75*
G02*
X147783000Y-102366000I0J-225000D01*
G01*
X147783000Y-102866000D01*
G75*
G02*
X147558000Y-103091000I-225000J0D01*
G01*
X147108000Y-103091000D01*
G75*
G02*
X146883000Y-102866000I0J225000D01*
G01*
G37*
G04 #@! TD.AperFunction*
G04 #@! TA.AperFunction,SMDPad,CuDef*
G36*
G01*
X145333000Y-102866000D02*
X145333000Y-102366000D01*
G75*
G02*
X145558000Y-102141000I225000J0D01*
G01*
X146008000Y-102141000D01*
G75*
G02*
X146233000Y-102366000I0J-225000D01*
G01*
X146233000Y-102866000D01*
G75*
G02*
X146008000Y-103091000I-225000J0D01*
G01*
X145558000Y-103091000D01*
G75*
G02*
X145333000Y-102866000I0J225000D01*
G01*
G37*
G04 #@! TD.AperFunction*
G04 #@! TA.AperFunction,SMDPad,CuDef*
G36*
G01*
X145320000Y-101342000D02*
X145320000Y-100842000D01*
G75*
G02*
X145545000Y-100617000I225000J0D01*
G01*
X145995000Y-100617000D01*
G75*
G02*
X146220000Y-100842000I0J-225000D01*
G01*
X146220000Y-101342000D01*
G75*
G02*
X145995000Y-101567000I-225000J0D01*
G01*
X145545000Y-101567000D01*
G75*
G02*
X145320000Y-101342000I0J225000D01*
G01*
G37*
G04 #@! TD.AperFunction*
G04 #@! TA.AperFunction,SMDPad,CuDef*
G36*
G01*
X146870000Y-101342000D02*
X146870000Y-100842000D01*
G75*
G02*
X147095000Y-100617000I225000J0D01*
G01*
X147545000Y-100617000D01*
G75*
G02*
X147770000Y-100842000I0J-225000D01*
G01*
X147770000Y-101342000D01*
G75*
G02*
X147545000Y-101567000I-225000J0D01*
G01*
X147095000Y-101567000D01*
G75*
G02*
X146870000Y-101342000I0J225000D01*
G01*
G37*
G04 #@! TD.AperFunction*
D17*
X132232000Y-100824000D03*
D18*
X138532000Y-100824000D03*
X138532000Y-98524000D03*
X138532000Y-103124000D03*
D10*
X124460000Y-91440000D03*
D11*
X127000000Y-91440000D03*
X129540000Y-91440000D03*
X132080000Y-91440000D03*
X134620000Y-91440000D03*
X137160000Y-91440000D03*
X139700000Y-91440000D03*
X142240000Y-91440000D03*
X144780000Y-91440000D03*
X147320000Y-91440000D03*
X149860000Y-91440000D03*
X152400000Y-91440000D03*
X154940000Y-91440000D03*
X157480000Y-91440000D03*
X160020000Y-91440000D03*
X162560000Y-91440000D03*
X165100000Y-91440000D03*
X167640000Y-91440000D03*
X170180000Y-91440000D03*
X172720000Y-91440000D03*
G04 #@! TA.AperFunction,SMDPad,CuDef*
G36*
G01*
X141269000Y-104142250D02*
X141269000Y-103629750D01*
G75*
G02*
X141487750Y-103411000I218750J0D01*
G01*
X141925250Y-103411000D01*
G75*
G02*
X142144000Y-103629750I0J-218750D01*
G01*
X142144000Y-104142250D01*
G75*
G02*
X141925250Y-104361000I-218750J0D01*
G01*
X141487750Y-104361000D01*
G75*
G02*
X141269000Y-104142250I0J218750D01*
G01*
G37*
G04 #@! TD.AperFunction*
G04 #@! TA.AperFunction,SMDPad,CuDef*
G36*
G01*
X142844000Y-104142250D02*
X142844000Y-103629750D01*
G75*
G02*
X143062750Y-103411000I218750J0D01*
G01*
X143500250Y-103411000D01*
G75*
G02*
X143719000Y-103629750I0J-218750D01*
G01*
X143719000Y-104142250D01*
G75*
G02*
X143500250Y-104361000I-218750J0D01*
G01*
X143062750Y-104361000D01*
G75*
G02*
X142844000Y-104142250I0J218750D01*
G01*
G37*
G04 #@! TD.AperFunction*
G04 #@! TA.AperFunction,SMDPad,CuDef*
G36*
G01*
X141269000Y-102637000D02*
X141269000Y-102087000D01*
G75*
G02*
X141469000Y-101887000I200000J0D01*
G01*
X141869000Y-101887000D01*
G75*
G02*
X142069000Y-102087000I0J-200000D01*
G01*
X142069000Y-102637000D01*
G75*
G02*
X141869000Y-102837000I-200000J0D01*
G01*
X141469000Y-102837000D01*
G75*
G02*
X141269000Y-102637000I0J200000D01*
G01*
G37*
G04 #@! TD.AperFunction*
G04 #@! TA.AperFunction,SMDPad,CuDef*
G36*
G01*
X142919000Y-102637000D02*
X142919000Y-102087000D01*
G75*
G02*
X143119000Y-101887000I200000J0D01*
G01*
X143519000Y-101887000D01*
G75*
G02*
X143719000Y-102087000I0J-200000D01*
G01*
X143719000Y-102637000D01*
G75*
G02*
X143519000Y-102837000I-200000J0D01*
G01*
X143119000Y-102837000D01*
G75*
G02*
X142919000Y-102637000I0J200000D01*
G01*
G37*
G04 #@! TD.AperFunction*
D19*
X131064000Y-110314000D03*
X131064000Y-113714000D03*
X134620000Y-110314000D03*
X134620000Y-113714000D03*
D20*
X146976000Y-112598000D03*
X146976000Y-109398000D03*
X142076000Y-112598000D03*
X142076000Y-109398000D03*
D21*
X143764000Y-109728000D03*
X148844000Y-113030000D03*
X136398000Y-107950000D03*
X151638000Y-111760000D03*
X171450000Y-116840000D03*
X134366000Y-116332000D03*
X140208000Y-100838000D03*
X144526000Y-101092000D03*
X168656000Y-93916500D03*
X135800000Y-93890000D03*
X144526000Y-104140000D03*
X141986000Y-110998000D03*
X133604000Y-107696000D03*
X136525000Y-98742500D03*
X152146000Y-106680000D03*
X151578000Y-104200000D03*
X145542000Y-109474000D03*
X134874000Y-115316000D03*
X171450000Y-115570000D03*
X170180000Y-98044000D03*
X135382000Y-112014000D03*
X159512000Y-102108000D03*
X153670000Y-102616000D03*
X168656000Y-98044000D03*
X151765000Y-98425000D03*
X151765000Y-100965000D03*
X151765000Y-102870000D03*
X159512000Y-112268000D03*
X161036000Y-112268000D03*
X162560000Y-112268000D03*
X153162000Y-110236000D03*
X170180000Y-111760000D03*
X139192000Y-105418600D03*
X144526000Y-107188000D03*
X140395715Y-107188000D03*
X144526000Y-105664000D03*
X140462000Y-105664000D03*
D22*
X137476000Y-108966000D02*
X137476000Y-109090000D01*
D23*
X134874000Y-113968000D02*
X134620000Y-113714000D01*
X131064000Y-110314000D02*
X131064000Y-110998000D01*
D24*
X171437000Y-96137000D02*
X171500000Y-96200000D01*
D25*
X145783000Y-104090000D02*
X145733000Y-104140000D01*
X145733000Y-97840000D02*
X145783000Y-97790000D01*
X145733000Y-104140000D02*
X145733000Y-97840000D01*
D24*
X142076000Y-109398000D02*
X142062000Y-109398000D01*
X142076000Y-109398000D02*
X141808000Y-109398000D01*
D25*
X124460000Y-91440000D02*
X124460000Y-94234000D01*
X124460000Y-94234000D02*
X126238000Y-96012000D01*
X126238000Y-96012000D02*
X130302000Y-96012000D01*
X130302000Y-96012000D02*
X132232000Y-97942000D01*
X138532000Y-100824000D02*
X132232000Y-100824000D01*
X138532000Y-100824000D02*
X140194000Y-100824000D01*
X140194000Y-100824000D02*
X140208000Y-100838000D01*
X144526000Y-101092000D02*
X145770000Y-101092000D01*
D24*
X132232000Y-98246500D02*
X132232000Y-98259500D01*
D25*
X132232000Y-97942000D02*
X132232000Y-98259500D01*
X132232000Y-98259500D02*
X132232000Y-100824000D01*
X132232000Y-97458000D02*
X132232000Y-97942000D01*
X135800000Y-93890000D02*
X132232000Y-97458000D01*
X168656000Y-93916500D02*
X170878500Y-93916500D01*
X171500000Y-94538000D02*
X171500000Y-96200000D01*
X170878500Y-93916500D02*
X171500000Y-94538000D01*
D22*
X145733000Y-104140000D02*
X144526000Y-104140000D01*
X140970000Y-110998000D02*
X141986000Y-110998000D01*
X139954000Y-112014000D02*
X140970000Y-110998000D01*
X139954000Y-112014000D02*
X138747000Y-112014000D01*
D25*
X141986000Y-109488000D02*
X142076000Y-109398000D01*
X141986000Y-110998000D02*
X141986000Y-109488000D01*
X128545750Y-108712000D02*
X128352350Y-108518600D01*
X128352350Y-108518600D02*
X129479400Y-108518600D01*
X130302000Y-107696000D02*
X132204000Y-107696000D01*
X129479400Y-108518600D02*
X130302000Y-107696000D01*
D22*
X132204000Y-107696000D02*
X133728000Y-109220000D01*
X133728000Y-109220000D02*
X135890000Y-109220000D01*
X135890000Y-109220000D02*
X136398000Y-109728000D01*
X136398000Y-109728000D02*
X136398000Y-110236000D01*
X136652000Y-110490000D02*
X137476000Y-110490000D01*
X136398000Y-110236000D02*
X136652000Y-110490000D01*
X149738000Y-107188000D02*
X149750000Y-107200000D01*
X147383000Y-107188000D02*
X149738000Y-107188000D01*
X145542000Y-108204000D02*
X147066000Y-108204000D01*
X144780000Y-108966000D02*
X145542000Y-108204000D01*
X147066000Y-108204000D02*
X147383000Y-107887000D01*
X147383000Y-107887000D02*
X147383000Y-107188000D01*
X144780000Y-110744000D02*
X144780000Y-108966000D01*
X144272000Y-111252000D02*
X144780000Y-110744000D01*
X142545812Y-115115990D02*
X144272000Y-113389802D01*
X141292772Y-115115990D02*
X142545812Y-115115990D01*
X140472782Y-115935980D02*
X141292772Y-115115990D01*
X144272000Y-112776000D02*
X144272000Y-111252000D01*
X144272000Y-112881802D02*
X144272000Y-112776000D01*
X136789782Y-115935980D02*
X140472782Y-115935980D01*
X144272000Y-113389802D02*
X144272000Y-112776000D01*
X135631762Y-117094000D02*
X136789782Y-115935980D01*
X135631762Y-117094000D02*
X132588000Y-117094000D01*
X132080000Y-117602000D02*
X132080000Y-118745000D01*
X132588000Y-117094000D02*
X132080000Y-117602000D01*
D25*
X141678000Y-99286000D02*
X141706000Y-99314000D01*
X141706000Y-100825000D02*
X141719000Y-100838000D01*
X141706000Y-99314000D02*
X141706000Y-100825000D01*
X141669000Y-100888000D02*
X141719000Y-100838000D01*
X141669000Y-102362000D02*
X141669000Y-100888000D01*
X141706000Y-97803000D02*
X141719000Y-97790000D01*
X141706000Y-99314000D02*
X141706000Y-97803000D01*
X139266000Y-97790000D02*
X138532000Y-98524000D01*
X141719000Y-97790000D02*
X139266000Y-97790000D01*
X135004000Y-107696000D02*
X133604000Y-107696000D01*
X138313500Y-98742500D02*
X138532000Y-98524000D01*
X136525000Y-98742500D02*
X138313500Y-98742500D01*
D22*
X149714000Y-105664000D02*
X149750000Y-105700000D01*
X147383000Y-105664000D02*
X149714000Y-105664000D01*
X149786000Y-105664000D02*
X149750000Y-105700000D01*
X151166000Y-105700000D02*
X152146000Y-106680000D01*
X149750000Y-105700000D02*
X151166000Y-105700000D01*
X151130000Y-105664000D02*
X152146000Y-106680000D01*
X149690000Y-104140000D02*
X149750000Y-104200000D01*
X147383000Y-104140000D02*
X149690000Y-104140000D01*
X149750000Y-104200000D02*
X151578000Y-104200000D01*
X146900000Y-109474000D02*
X146976000Y-109398000D01*
X145542000Y-109474000D02*
X146900000Y-109474000D01*
D24*
X171310000Y-113890000D02*
X171500000Y-113700000D01*
X137147000Y-112064000D02*
X137097000Y-112014000D01*
X137147000Y-113538000D02*
X137147000Y-112064000D01*
D23*
X171450000Y-113750000D02*
X171500000Y-113700000D01*
X171450000Y-115570000D02*
X171450000Y-113750000D01*
D22*
X134620000Y-115062000D02*
X134874000Y-115316000D01*
X132412000Y-115062000D02*
X134620000Y-115062000D01*
X131064000Y-113714000D02*
X132412000Y-115062000D01*
X134874000Y-115316000D02*
X136144000Y-115316000D01*
X137147000Y-114313000D02*
X137147000Y-113538000D01*
X136144000Y-115316000D02*
X137147000Y-114313000D01*
D24*
X170000000Y-96200000D02*
X170000000Y-97864000D01*
X170000000Y-97864000D02*
X170180000Y-98044000D01*
D22*
X159004000Y-102616000D02*
X159512000Y-102108000D01*
X153670000Y-102616000D02*
X159004000Y-102616000D01*
X134620000Y-111252000D02*
X135382000Y-112014000D01*
X134620000Y-110314000D02*
X134620000Y-111252000D01*
D24*
X168500000Y-96200000D02*
X168500000Y-97888000D01*
X168500000Y-97888000D02*
X168656000Y-98044000D01*
X167640000Y-91440000D02*
X167640000Y-92354400D01*
X167000000Y-92994400D02*
X167000000Y-96200000D01*
X167640000Y-92354400D02*
X167000000Y-92994400D01*
X165100000Y-91440000D02*
X165100000Y-93014800D01*
X165500000Y-93414800D02*
X165500000Y-96200000D01*
X165100000Y-93014800D02*
X165500000Y-93414800D01*
X162560000Y-91440000D02*
X163830000Y-92710000D01*
X163830000Y-96030000D02*
X164000000Y-96200000D01*
X163830000Y-92710000D02*
X163830000Y-96030000D01*
X162500000Y-93920000D02*
X162500000Y-96200000D01*
X160020000Y-91440000D02*
X162500000Y-93920000D01*
X157480000Y-91440000D02*
X158953200Y-92913200D01*
X158953200Y-92913200D02*
X160274000Y-92913200D01*
X161000000Y-93639200D02*
X161000000Y-96200000D01*
X160274000Y-92913200D02*
X161000000Y-93639200D01*
X154940000Y-91440000D02*
X156464000Y-92964000D01*
X159500000Y-94281672D02*
X159500000Y-96200000D01*
X158182328Y-92964000D02*
X159500000Y-94281672D01*
X156464000Y-92964000D02*
X158182328Y-92964000D01*
X152400000Y-91440000D02*
X153877636Y-92917636D01*
X155595964Y-92917636D02*
X156223338Y-93545010D01*
X153877636Y-92917636D02*
X155595964Y-92917636D01*
X156223338Y-93545010D02*
X157502210Y-93545010D01*
X158000000Y-94042800D02*
X158000000Y-96200000D01*
X157502210Y-93545010D02*
X158000000Y-94042800D01*
X149860000Y-91440000D02*
X151333200Y-92913200D01*
X153051528Y-92913200D02*
X153636974Y-93498646D01*
X151333200Y-92913200D02*
X153051528Y-92913200D01*
X156500000Y-94643344D02*
X156500000Y-96200000D01*
X155355302Y-93498646D02*
X156500000Y-94643344D01*
X153636974Y-93498646D02*
X155355302Y-93498646D01*
X147320000Y-91440000D02*
X148844000Y-92964000D01*
X150562328Y-92964000D02*
X151092538Y-93494210D01*
X148844000Y-92964000D02*
X150562328Y-92964000D01*
X152810866Y-93494210D02*
X153396312Y-94079656D01*
X151092538Y-93494210D02*
X152810866Y-93494210D01*
X153396312Y-94079656D02*
X154785656Y-94079656D01*
X155000000Y-94294000D02*
X155000000Y-96200000D01*
X154785656Y-94079656D02*
X155000000Y-94294000D01*
X144780000Y-91440000D02*
X146304000Y-92964000D01*
X148603338Y-93545010D02*
X150321666Y-93545010D01*
X146304000Y-92964000D02*
X148022328Y-92964000D01*
X148022328Y-92964000D02*
X148603338Y-93545010D01*
X150321666Y-93545010D02*
X150851876Y-94075220D01*
X153500000Y-95005016D02*
X153500000Y-96200000D01*
X152570204Y-94075220D02*
X153500000Y-95005016D01*
X150851876Y-94075220D02*
X152570204Y-94075220D01*
X152000000Y-96200000D02*
X152000000Y-95018230D01*
X151638000Y-94656230D02*
X150611213Y-94656229D01*
X152000000Y-95018230D02*
X151638000Y-94656230D01*
X150081004Y-94126020D02*
X148362675Y-94126019D01*
X150611213Y-94656229D02*
X150081004Y-94126020D01*
X147781666Y-93545010D02*
X142821010Y-93545010D01*
X148362675Y-94126019D02*
X147781666Y-93545010D01*
X142240000Y-92964000D02*
X142240000Y-91440000D01*
X142821010Y-93545010D02*
X142240000Y-92964000D01*
X139700000Y-92456000D02*
X139700000Y-91440000D01*
X140462000Y-93218000D02*
X139700000Y-92456000D01*
X150500000Y-96200000D02*
X149042000Y-94742000D01*
X149042000Y-94742000D02*
X148156984Y-94742000D01*
X148156984Y-94742000D02*
X147541004Y-94126020D01*
X141672328Y-93218000D02*
X140462000Y-93218000D01*
X147541004Y-94126020D02*
X142580348Y-94126020D01*
X142580348Y-94126020D02*
X141672328Y-93218000D01*
D23*
X141605000Y-93980000D02*
X138430000Y-93980000D01*
X147327474Y-94641530D02*
X142266530Y-94641530D01*
X138430000Y-93980000D02*
X137160000Y-92710000D01*
X142266530Y-94641530D02*
X141605000Y-93980000D01*
X149635000Y-98200000D02*
X149225000Y-97790000D01*
X149225000Y-95885000D02*
X148597510Y-95257510D01*
X137160000Y-92710000D02*
X137160000Y-91440000D01*
X149750000Y-98200000D02*
X149635000Y-98200000D01*
X149225000Y-97790000D02*
X149225000Y-95885000D01*
X148597510Y-95257510D02*
X147943453Y-95257509D01*
X147943453Y-95257509D02*
X147327474Y-94641530D01*
X149750000Y-99700000D02*
X151125000Y-99700000D01*
X151125000Y-99700000D02*
X151765000Y-99060000D01*
X151765000Y-99060000D02*
X151765000Y-98425000D01*
X149750000Y-101200000D02*
X151530000Y-101200000D01*
X151530000Y-101200000D02*
X151765000Y-100965000D01*
X149920000Y-102870000D02*
X149750000Y-102700000D01*
X151765000Y-102870000D02*
X149920000Y-102870000D01*
X140843000Y-116205000D02*
X140660010Y-116387990D01*
X136977010Y-116387990D02*
X134620000Y-118745000D01*
X140660010Y-116387990D02*
X136977010Y-116387990D01*
X140955868Y-116205000D02*
X140843000Y-116205000D01*
D22*
X149000000Y-108700000D02*
X149750000Y-108700000D01*
X148425990Y-109274010D02*
X149000000Y-108700000D01*
X148425990Y-110011944D02*
X148425990Y-109274010D01*
X147766944Y-110670990D02*
X148425990Y-110011944D01*
X141590868Y-115570000D02*
X142733868Y-115570000D01*
X140955868Y-116205000D02*
X141590868Y-115570000D01*
X142733868Y-115570000D02*
X144780000Y-113523868D01*
X144780000Y-113523868D02*
X144780000Y-111486980D01*
X144780000Y-111486980D02*
X145595990Y-110670990D01*
X145595990Y-110670990D02*
X147766944Y-110670990D01*
X148880000Y-110200000D02*
X149750000Y-110200000D01*
X145415000Y-111760000D02*
X146050000Y-111125000D01*
X146050000Y-111125000D02*
X147955000Y-111125000D01*
X137160000Y-118745000D02*
X137160000Y-117475000D01*
X137160000Y-117475000D02*
X137795000Y-116840000D01*
X137795000Y-116840000D02*
X140962934Y-116840000D01*
X147955000Y-111125000D02*
X148880000Y-110200000D01*
X145415000Y-113530934D02*
X145415000Y-111760000D01*
X140962934Y-116840000D02*
X141597934Y-116205000D01*
X141597934Y-116205000D02*
X142740934Y-116205000D01*
X142740934Y-116205000D02*
X145415000Y-113530934D01*
X150500000Y-113700000D02*
X149825000Y-113700000D01*
X149825000Y-113700000D02*
X149225000Y-114300000D01*
X142748000Y-116840000D02*
X145288000Y-114300000D01*
X139700000Y-118745000D02*
X141605000Y-116840000D01*
X149225000Y-114300000D02*
X145288000Y-114300000D01*
X141605000Y-116840000D02*
X142748000Y-116840000D01*
D24*
X152000000Y-113700000D02*
X152000000Y-114450000D01*
X142240000Y-118745000D02*
X145923000Y-115062000D01*
X145923000Y-115062000D02*
X151638000Y-115062000D01*
X152000000Y-114700000D02*
X152000000Y-113700000D01*
X151638000Y-115062000D02*
X152000000Y-114700000D01*
X153500000Y-113700000D02*
X153500000Y-114450000D01*
X147881990Y-115643010D02*
X152580990Y-115643010D01*
X144780000Y-118745000D02*
X147881990Y-115643010D01*
X153500000Y-114724000D02*
X153500000Y-113700000D01*
X152580990Y-115643010D02*
X153500000Y-114724000D01*
X155000000Y-113700000D02*
X155000000Y-114450000D01*
X147320000Y-118745000D02*
X147320000Y-117348000D01*
X148443980Y-116224020D02*
X153777980Y-116224020D01*
X147320000Y-117348000D02*
X148443980Y-116224020D01*
X155000000Y-115002000D02*
X155000000Y-113700000D01*
X153777980Y-116224020D02*
X155000000Y-115002000D01*
X149860000Y-118745000D02*
X149860000Y-117856000D01*
X149860000Y-118745000D02*
X149860000Y-117348000D01*
X149860000Y-117348000D02*
X150402970Y-116805030D01*
X154144970Y-116805030D02*
X153704970Y-116805030D01*
X156500000Y-114450000D02*
X154144970Y-116805030D01*
X156500000Y-113700000D02*
X156500000Y-114450000D01*
X150402970Y-116805030D02*
X153704970Y-116805030D01*
X158000000Y-113700000D02*
X158000000Y-114450000D01*
X158000000Y-114347672D02*
X158000000Y-113700000D01*
X158000000Y-113700000D02*
X158000000Y-114796000D01*
X158000000Y-114796000D02*
X157480000Y-115316000D01*
X156455672Y-115316000D02*
X154385632Y-117386040D01*
X157480000Y-115316000D02*
X156455672Y-115316000D01*
X154385632Y-117386040D02*
X152869960Y-117386040D01*
X152400000Y-117856000D02*
X152400000Y-118745000D01*
X152869960Y-117386040D02*
X152400000Y-117856000D01*
X159500000Y-113700000D02*
X159500000Y-114450000D01*
X159500000Y-113700000D02*
X159500000Y-115328000D01*
X159500000Y-115328000D02*
X157988000Y-116840000D01*
X156845000Y-116840000D02*
X154940000Y-118745000D01*
X157988000Y-116840000D02*
X156845000Y-116840000D01*
D23*
X159500000Y-113700000D02*
X159500000Y-112280000D01*
X159500000Y-112280000D02*
X159512000Y-112268000D01*
D24*
X157480000Y-117970000D02*
X157480000Y-118745000D01*
X161000000Y-113700000D02*
X161000000Y-114450000D01*
X161000000Y-113700000D02*
X161000000Y-116368000D01*
X161000000Y-116368000D02*
X160020000Y-117348000D01*
X158877000Y-117348000D02*
X157480000Y-118745000D01*
X160020000Y-117348000D02*
X158877000Y-117348000D01*
D23*
X161036000Y-113664000D02*
X161000000Y-113700000D01*
X161036000Y-112268000D02*
X161036000Y-113664000D01*
D24*
X162500000Y-113700000D02*
X162500000Y-114450000D01*
X162500000Y-116265000D02*
X160020000Y-118745000D01*
X162500000Y-113700000D02*
X162500000Y-116265000D01*
D23*
X162560000Y-113640000D02*
X162500000Y-113700000D01*
X162560000Y-112268000D02*
X162560000Y-113640000D01*
D24*
X164000000Y-117305000D02*
X162560000Y-118745000D01*
X164000000Y-113700000D02*
X164000000Y-117305000D01*
D23*
X164000000Y-113700000D02*
X164000000Y-111930000D01*
X164000000Y-111930000D02*
X162814000Y-110744000D01*
D22*
X162306000Y-110236000D02*
X162814000Y-110744000D01*
X153162000Y-110236000D02*
X162306000Y-110236000D01*
D24*
X165500000Y-118345000D02*
X165100000Y-118745000D01*
X165500000Y-113700000D02*
X165500000Y-118345000D01*
X167000000Y-113700000D02*
X167000000Y-115692000D01*
X167640000Y-116332000D02*
X167640000Y-118745000D01*
X167000000Y-115692000D02*
X167640000Y-116332000D01*
X168500000Y-113700000D02*
X168500000Y-115414000D01*
X170180000Y-117094000D02*
X170180000Y-118745000D01*
X168500000Y-115414000D02*
X170180000Y-117094000D01*
D22*
X170180000Y-113520000D02*
X170000000Y-113700000D01*
X170180000Y-111760000D02*
X170180000Y-113520000D01*
X128352350Y-103891600D02*
X130124750Y-105664000D01*
X130124750Y-105664000D02*
X138946600Y-105664000D01*
X138946600Y-105664000D02*
X139192000Y-105418600D01*
X144526000Y-107188000D02*
X145733000Y-107188000D01*
X138876000Y-108966000D02*
X139446000Y-108966000D01*
X139446000Y-108966000D02*
X140395715Y-108016285D01*
X140395715Y-108016285D02*
X140395715Y-107188000D01*
X144526000Y-107188000D02*
X143269000Y-107188000D01*
D24*
X145733000Y-105664000D02*
X145333000Y-105664000D01*
X144780000Y-105664000D02*
X145733000Y-105664000D01*
X144526000Y-105664000D02*
X143269000Y-105664000D01*
D22*
X139980400Y-106145600D02*
X140462000Y-105664000D01*
X128352350Y-106145600D02*
X139980400Y-106145600D01*
X138938000Y-107188000D02*
X140462000Y-105664000D01*
X138938000Y-107442000D02*
X138938000Y-107188000D01*
D24*
X143319000Y-103848500D02*
X143281500Y-103886000D01*
X143319000Y-102362000D02*
X143319000Y-103848500D01*
D22*
X123610000Y-92825980D02*
X123672600Y-92825980D01*
X123672601Y-94195327D01*
X123668792Y-94234000D01*
X123683995Y-94388357D01*
X123729018Y-94536782D01*
X123785002Y-94641519D01*
X123802135Y-94673572D01*
X123900532Y-94793469D01*
X123930573Y-94818123D01*
X125653881Y-96541433D01*
X125678531Y-96571469D01*
X125708567Y-96596119D01*
X125708570Y-96596122D01*
X125798427Y-96669866D01*
X125935217Y-96742982D01*
X126083643Y-96788006D01*
X126199327Y-96799400D01*
X126199335Y-96799400D01*
X126238000Y-96803208D01*
X126276665Y-96799400D01*
X129975850Y-96799400D01*
X131444600Y-98268152D01*
X131444600Y-98388020D01*
X131232000Y-98388020D01*
X131127435Y-98398319D01*
X131026889Y-98428819D01*
X130934225Y-98478349D01*
X130853005Y-98545005D01*
X130786349Y-98626225D01*
X130736819Y-98718889D01*
X130706319Y-98819435D01*
X130696020Y-98924000D01*
X130696020Y-102724000D01*
X130706319Y-102828565D01*
X130736819Y-102929111D01*
X130786349Y-103021775D01*
X130853005Y-103102995D01*
X130934225Y-103169651D01*
X131026889Y-103219181D01*
X131127435Y-103249681D01*
X131232000Y-103259980D01*
X133232000Y-103259980D01*
X133336565Y-103249681D01*
X133437111Y-103219181D01*
X133529775Y-103169651D01*
X133610995Y-103102995D01*
X133677651Y-103021775D01*
X133727181Y-102929111D01*
X133757681Y-102828565D01*
X133767980Y-102724000D01*
X133767980Y-101611400D01*
X136999704Y-101611400D01*
X137006319Y-101678565D01*
X137036819Y-101779111D01*
X137086349Y-101871775D01*
X137109152Y-101899560D01*
X137080815Y-101922815D01*
X137001463Y-102019506D01*
X136942498Y-102129820D01*
X136906188Y-102249518D01*
X136893928Y-102374000D01*
X136897000Y-102838250D01*
X137055750Y-102997000D01*
X138405000Y-102997000D01*
X138405000Y-102977000D01*
X138659000Y-102977000D01*
X138659000Y-102997000D01*
X140008250Y-102997000D01*
X140167000Y-102838250D01*
X140170072Y-102374000D01*
X140157812Y-102249518D01*
X140121502Y-102129820D01*
X140062537Y-102019506D01*
X139983185Y-101922815D01*
X139954848Y-101899560D01*
X139977651Y-101871775D01*
X140027181Y-101779111D01*
X140034445Y-101755164D01*
X140116068Y-101771400D01*
X140299932Y-101771400D01*
X140480263Y-101735530D01*
X140650131Y-101665168D01*
X140803008Y-101563019D01*
X140859171Y-101506856D01*
X140861268Y-101510778D01*
X140881601Y-101535553D01*
X140881600Y-101648203D01*
X140857055Y-101678111D01*
X140789043Y-101805353D01*
X140747162Y-101943417D01*
X140733020Y-102087000D01*
X140733020Y-102637000D01*
X140747162Y-102780583D01*
X140789043Y-102918647D01*
X140813717Y-102964809D01*
X140738463Y-103056506D01*
X140679498Y-103166820D01*
X140643188Y-103286518D01*
X140630928Y-103411000D01*
X140634000Y-103600250D01*
X140792750Y-103759000D01*
X141579500Y-103759000D01*
X141579500Y-103739000D01*
X141833500Y-103739000D01*
X141833500Y-103759000D01*
X141853500Y-103759000D01*
X141853500Y-104013000D01*
X141833500Y-104013000D01*
X141833500Y-104837250D01*
X141846000Y-104849750D01*
X141846000Y-105537000D01*
X141866000Y-105537000D01*
X141866000Y-105791000D01*
X141846000Y-105791000D01*
X141846000Y-107061000D01*
X141866000Y-107061000D01*
X141866000Y-107315000D01*
X141846000Y-107315000D01*
X141846000Y-108139250D01*
X142004750Y-108298000D01*
X142169000Y-108301072D01*
X142293482Y-108288812D01*
X142413180Y-108252502D01*
X142523494Y-108193537D01*
X142620185Y-108114185D01*
X142645289Y-108083596D01*
X142752786Y-108141054D01*
X142895540Y-108184358D01*
X143044000Y-108198980D01*
X143494000Y-108198980D01*
X143642460Y-108184358D01*
X143785214Y-108141054D01*
X143916778Y-108070732D01*
X144029086Y-107978563D01*
X144083869Y-108015168D01*
X144253737Y-108085530D01*
X144434068Y-108121400D01*
X144617932Y-108121400D01*
X144708710Y-108103343D01*
X144335967Y-108476087D01*
X144310768Y-108496767D01*
X144228242Y-108597326D01*
X144201137Y-108648036D01*
X144166918Y-108712054D01*
X144129156Y-108836540D01*
X144116405Y-108966000D01*
X144119601Y-108998448D01*
X144119600Y-110470454D01*
X143827968Y-110762086D01*
X143802768Y-110782767D01*
X143720242Y-110883326D01*
X143687509Y-110944565D01*
X143658918Y-110998054D01*
X143621156Y-111122540D01*
X143608405Y-111252000D01*
X143611601Y-111284448D01*
X143611600Y-112743561D01*
X143611600Y-113116256D01*
X142272266Y-114455590D01*
X141325211Y-114455590D01*
X141292772Y-114452395D01*
X141260333Y-114455590D01*
X141163311Y-114465146D01*
X141038825Y-114502908D01*
X140924098Y-114564231D01*
X140823539Y-114646757D01*
X140802860Y-114671955D01*
X140199236Y-115275580D01*
X137118367Y-115275580D01*
X137591034Y-114802913D01*
X137616233Y-114782233D01*
X137698759Y-114681674D01*
X137760082Y-114566947D01*
X137792485Y-114460127D01*
X137795815Y-114464185D01*
X137892506Y-114543537D01*
X138002820Y-114602502D01*
X138122518Y-114638812D01*
X138247000Y-114651072D01*
X138411250Y-114648000D01*
X138570000Y-114489250D01*
X138570000Y-113665000D01*
X138824000Y-113665000D01*
X138824000Y-114489250D01*
X138982750Y-114648000D01*
X139147000Y-114651072D01*
X139271482Y-114638812D01*
X139391180Y-114602502D01*
X139501494Y-114543537D01*
X139598185Y-114464185D01*
X139677537Y-114367494D01*
X139736502Y-114257180D01*
X139772812Y-114137482D01*
X139785072Y-114013000D01*
X139782000Y-113823750D01*
X139623250Y-113665000D01*
X138824000Y-113665000D01*
X138570000Y-113665000D01*
X138550000Y-113665000D01*
X138550000Y-113411000D01*
X138570000Y-113411000D01*
X138570000Y-113391000D01*
X138824000Y-113391000D01*
X138824000Y-113411000D01*
X139623250Y-113411000D01*
X139782000Y-113252250D01*
X139785072Y-113063000D01*
X139772812Y-112938518D01*
X139736502Y-112818820D01*
X139677537Y-112708506D01*
X139649547Y-112674400D01*
X139921561Y-112674400D01*
X139954000Y-112677595D01*
X139986439Y-112674400D01*
X140083461Y-112664844D01*
X140207947Y-112627082D01*
X140322674Y-112565759D01*
X140423233Y-112483233D01*
X140443918Y-112458028D01*
X140790020Y-112111926D01*
X140790020Y-113098000D01*
X140800319Y-113202565D01*
X140830819Y-113303111D01*
X140880349Y-113395775D01*
X140947005Y-113476995D01*
X141028225Y-113543651D01*
X141120889Y-113593181D01*
X141221435Y-113623681D01*
X141326000Y-113633980D01*
X142826000Y-113633980D01*
X142930565Y-113623681D01*
X143031111Y-113593181D01*
X143123775Y-113543651D01*
X143204995Y-113476995D01*
X143271651Y-113395775D01*
X143321181Y-113303111D01*
X143351681Y-113202565D01*
X143361980Y-113098000D01*
X143361980Y-112098000D01*
X143351681Y-111993435D01*
X143321181Y-111892889D01*
X143271651Y-111800225D01*
X143204995Y-111719005D01*
X143123775Y-111652349D01*
X143031111Y-111602819D01*
X142930565Y-111572319D01*
X142826000Y-111562020D01*
X142731724Y-111562020D01*
X142813168Y-111440131D01*
X142883530Y-111270263D01*
X142919400Y-111089932D01*
X142919400Y-110906068D01*
X142883530Y-110725737D01*
X142813168Y-110555869D01*
X142773400Y-110496352D01*
X142773400Y-110433980D01*
X142826000Y-110433980D01*
X142930565Y-110423681D01*
X143031111Y-110393181D01*
X143123775Y-110343651D01*
X143204995Y-110276995D01*
X143271651Y-110195775D01*
X143321181Y-110103111D01*
X143351681Y-110002565D01*
X143361980Y-109898000D01*
X143361980Y-108898000D01*
X143351681Y-108793435D01*
X143321181Y-108692889D01*
X143271651Y-108600225D01*
X143204995Y-108519005D01*
X143123775Y-108452349D01*
X143031111Y-108402819D01*
X142930565Y-108372319D01*
X142826000Y-108362020D01*
X141326000Y-108362020D01*
X141221435Y-108372319D01*
X141120889Y-108402819D01*
X141028225Y-108452349D01*
X140947005Y-108519005D01*
X140880349Y-108600225D01*
X140830819Y-108692889D01*
X140800319Y-108793435D01*
X140790020Y-108898000D01*
X140790020Y-109898000D01*
X140800319Y-110002565D01*
X140830819Y-110103111D01*
X140880349Y-110195775D01*
X140947005Y-110276995D01*
X141020852Y-110337600D01*
X141002439Y-110337600D01*
X140970000Y-110334405D01*
X140937561Y-110337600D01*
X140840539Y-110347156D01*
X140716053Y-110384918D01*
X140601326Y-110446241D01*
X140500767Y-110528767D01*
X140480086Y-110553967D01*
X139680454Y-111353600D01*
X139571500Y-111353600D01*
X139565290Y-111341981D01*
X139627185Y-111291185D01*
X139706537Y-111194494D01*
X139765502Y-111084180D01*
X139801812Y-110964482D01*
X139814072Y-110840000D01*
X139811000Y-110775750D01*
X139652250Y-110617000D01*
X139003000Y-110617000D01*
X139003000Y-110637000D01*
X138749000Y-110637000D01*
X138749000Y-110617000D01*
X138729000Y-110617000D01*
X138729000Y-110363000D01*
X138749000Y-110363000D01*
X138749000Y-110343000D01*
X139003000Y-110343000D01*
X139003000Y-110363000D01*
X139652250Y-110363000D01*
X139811000Y-110204250D01*
X139814072Y-110140000D01*
X139801812Y-110015518D01*
X139765502Y-109895820D01*
X139706537Y-109785506D01*
X139627185Y-109688815D01*
X139587079Y-109655901D01*
X139621651Y-109613775D01*
X139628632Y-109600715D01*
X139699947Y-109579082D01*
X139814674Y-109517759D01*
X139915233Y-109435233D01*
X139935918Y-109410028D01*
X140839749Y-108506198D01*
X140864948Y-108485518D01*
X140947474Y-108384959D01*
X141008797Y-108270232D01*
X141015660Y-108247606D01*
X141024820Y-108252502D01*
X141144518Y-108288812D01*
X141269000Y-108301072D01*
X141433250Y-108298000D01*
X141592000Y-108139250D01*
X141592000Y-107315000D01*
X141572000Y-107315000D01*
X141572000Y-107061000D01*
X141592000Y-107061000D01*
X141592000Y-105791000D01*
X141572000Y-105791000D01*
X141572000Y-105537000D01*
X141592000Y-105537000D01*
X141592000Y-104712750D01*
X141579500Y-104700250D01*
X141579500Y-104013000D01*
X140792750Y-104013000D01*
X140634000Y-104171750D01*
X140630928Y-104361000D01*
X140643188Y-104485482D01*
X140679498Y-104605180D01*
X140738463Y-104715494D01*
X140787298Y-104775000D01*
X140779068Y-104785029D01*
X140734263Y-104766470D01*
X140553932Y-104730600D01*
X140370068Y-104730600D01*
X140189737Y-104766470D01*
X140019869Y-104836832D01*
X139954881Y-104880256D01*
X139917019Y-104823592D01*
X139787008Y-104693581D01*
X139634131Y-104591432D01*
X139464263Y-104521070D01*
X139416530Y-104511575D01*
X139532000Y-104512072D01*
X139656482Y-104499812D01*
X139776180Y-104463502D01*
X139886494Y-104404537D01*
X139983185Y-104325185D01*
X140062537Y-104228494D01*
X140121502Y-104118180D01*
X140157812Y-103998482D01*
X140170072Y-103874000D01*
X140167000Y-103409750D01*
X140008250Y-103251000D01*
X138659000Y-103251000D01*
X138659000Y-104350250D01*
X138817750Y-104509000D01*
X138976974Y-104509685D01*
X138919737Y-104521070D01*
X138749869Y-104591432D01*
X138596992Y-104693581D01*
X138466981Y-104823592D01*
X138364832Y-104976469D01*
X138353594Y-105003600D01*
X130398297Y-105003600D01*
X129753435Y-104358739D01*
X129768936Y-104321317D01*
X129825550Y-104036698D01*
X129825550Y-103874000D01*
X136893928Y-103874000D01*
X136906188Y-103998482D01*
X136942498Y-104118180D01*
X137001463Y-104228494D01*
X137080815Y-104325185D01*
X137177506Y-104404537D01*
X137287820Y-104463502D01*
X137407518Y-104499812D01*
X137532000Y-104512072D01*
X138246250Y-104509000D01*
X138405000Y-104350250D01*
X138405000Y-103251000D01*
X137055750Y-103251000D01*
X136897000Y-103409750D01*
X136893928Y-103874000D01*
X129825550Y-103874000D01*
X129825550Y-103746502D01*
X129768936Y-103461883D01*
X129657883Y-103193778D01*
X129496659Y-102952490D01*
X129291460Y-102747291D01*
X129232129Y-102707647D01*
X129265221Y-102611076D01*
X128352350Y-101698205D01*
X127439479Y-102611076D01*
X127472571Y-102707647D01*
X127413240Y-102747291D01*
X127208041Y-102952490D01*
X127046817Y-103193778D01*
X126935764Y-103461883D01*
X126879150Y-103746502D01*
X126879150Y-104036698D01*
X126935764Y-104321317D01*
X127046817Y-104589422D01*
X127208041Y-104830710D01*
X127395931Y-105018600D01*
X127208041Y-105206490D01*
X127046817Y-105447778D01*
X126935764Y-105715883D01*
X126879150Y-106000502D01*
X126879150Y-106290698D01*
X126935764Y-106575317D01*
X127046817Y-106843422D01*
X127208041Y-107084710D01*
X127413240Y-107289909D01*
X127476383Y-107332100D01*
X127413240Y-107374291D01*
X127208041Y-107579490D01*
X127046817Y-107820778D01*
X126935764Y-108088883D01*
X126879150Y-108373502D01*
X126879150Y-108663698D01*
X126927048Y-108904499D01*
X126576973Y-108759493D01*
X126163259Y-108677200D01*
X125741441Y-108677200D01*
X125327727Y-108759493D01*
X124938017Y-108920916D01*
X124587287Y-109155266D01*
X124289016Y-109453537D01*
X124054666Y-109804267D01*
X123893243Y-110193977D01*
X123810950Y-110607691D01*
X123810950Y-111029509D01*
X123893243Y-111443223D01*
X124054666Y-111832933D01*
X124289016Y-112183663D01*
X124587287Y-112481934D01*
X124938017Y-112716284D01*
X125327727Y-112877707D01*
X125741441Y-112960000D01*
X126163259Y-112960000D01*
X126576973Y-112877707D01*
X126966683Y-112716284D01*
X127317413Y-112481934D01*
X127615684Y-112183663D01*
X127850034Y-111832933D01*
X128011457Y-111443223D01*
X128093750Y-111029509D01*
X128093750Y-110764000D01*
X129575928Y-110764000D01*
X129588188Y-110888482D01*
X129624498Y-111008180D01*
X129683463Y-111118494D01*
X129762815Y-111215185D01*
X129859506Y-111294537D01*
X129969820Y-111353502D01*
X130089518Y-111389812D01*
X130214000Y-111402072D01*
X130778250Y-111399000D01*
X130937000Y-111240250D01*
X130937000Y-110441000D01*
X131191000Y-110441000D01*
X131191000Y-111240250D01*
X131349750Y-111399000D01*
X131914000Y-111402072D01*
X132038482Y-111389812D01*
X132158180Y-111353502D01*
X132268494Y-111294537D01*
X132365185Y-111215185D01*
X132444537Y-111118494D01*
X132503502Y-111008180D01*
X132539812Y-110888482D01*
X132552072Y-110764000D01*
X132549000Y-110599750D01*
X132390250Y-110441000D01*
X131191000Y-110441000D01*
X130937000Y-110441000D01*
X129737750Y-110441000D01*
X129579000Y-110599750D01*
X129575928Y-110764000D01*
X128093750Y-110764000D01*
X128093750Y-110607691D01*
X128011457Y-110193977D01*
X127900458Y-109926001D01*
X127922633Y-109935186D01*
X128207252Y-109991800D01*
X128497448Y-109991800D01*
X128782067Y-109935186D01*
X128953924Y-109864000D01*
X129575928Y-109864000D01*
X129579000Y-110028250D01*
X129737750Y-110187000D01*
X130937000Y-110187000D01*
X130937000Y-109387750D01*
X131191000Y-109387750D01*
X131191000Y-110187000D01*
X132390250Y-110187000D01*
X132549000Y-110028250D01*
X132552072Y-109864000D01*
X132539812Y-109739518D01*
X132503502Y-109619820D01*
X132444537Y-109509506D01*
X132365185Y-109412815D01*
X132268494Y-109333463D01*
X132158180Y-109274498D01*
X132038482Y-109238188D01*
X131914000Y-109225928D01*
X131349750Y-109229000D01*
X131191000Y-109387750D01*
X130937000Y-109387750D01*
X130778250Y-109229000D01*
X130214000Y-109225928D01*
X130089518Y-109238188D01*
X129969820Y-109274498D01*
X129859506Y-109333463D01*
X129762815Y-109412815D01*
X129683463Y-109509506D01*
X129624498Y-109619820D01*
X129588188Y-109739518D01*
X129575928Y-109864000D01*
X128953924Y-109864000D01*
X129050172Y-109824133D01*
X129291460Y-109662909D01*
X129496659Y-109457710D01*
X129603661Y-109297570D01*
X129633757Y-109294606D01*
X129782183Y-109249582D01*
X129918972Y-109176466D01*
X130038869Y-109078069D01*
X130063527Y-109048023D01*
X130628151Y-108483400D01*
X131176078Y-108483400D01*
X131208349Y-108543775D01*
X131275005Y-108624995D01*
X131356225Y-108691651D01*
X131448889Y-108741181D01*
X131549435Y-108771681D01*
X131654000Y-108781980D01*
X132356034Y-108781980D01*
X133238082Y-109664028D01*
X133258767Y-109689233D01*
X133264249Y-109693732D01*
X133244319Y-109759435D01*
X133234020Y-109864000D01*
X133234020Y-110764000D01*
X133244319Y-110868565D01*
X133274819Y-110969111D01*
X133324349Y-111061775D01*
X133391005Y-111142995D01*
X133472225Y-111209651D01*
X133564889Y-111259181D01*
X133665435Y-111289681D01*
X133770000Y-111299980D01*
X133961131Y-111299980D01*
X133969156Y-111381460D01*
X134006918Y-111505946D01*
X134026714Y-111542981D01*
X134068242Y-111620674D01*
X134150768Y-111721233D01*
X134175967Y-111741913D01*
X134448600Y-112014546D01*
X134448600Y-112105932D01*
X134484470Y-112286263D01*
X134554832Y-112456131D01*
X134656981Y-112609008D01*
X134786992Y-112739019D01*
X134792231Y-112742519D01*
X134747000Y-112787750D01*
X134747000Y-113587000D01*
X135946250Y-113587000D01*
X136105000Y-113428250D01*
X136108072Y-113264000D01*
X136095812Y-113139518D01*
X136059502Y-113019820D01*
X136000537Y-112909506D01*
X135921185Y-112812815D01*
X135896672Y-112792698D01*
X135977008Y-112739019D01*
X136107019Y-112609008D01*
X136190693Y-112483781D01*
X136217043Y-112570647D01*
X136285055Y-112697889D01*
X136355825Y-112784122D01*
X136289268Y-112865222D01*
X136218946Y-112996786D01*
X136175642Y-113139540D01*
X136161020Y-113288000D01*
X136161020Y-113788000D01*
X136175642Y-113936460D01*
X136218946Y-114079214D01*
X136289268Y-114210778D01*
X136300991Y-114225062D01*
X135968398Y-114557656D01*
X136000537Y-114518494D01*
X136059502Y-114408180D01*
X136095812Y-114288482D01*
X136108072Y-114164000D01*
X136105000Y-113999750D01*
X135946250Y-113841000D01*
X134747000Y-113841000D01*
X134747000Y-113861000D01*
X134493000Y-113861000D01*
X134493000Y-113841000D01*
X133293750Y-113841000D01*
X133135000Y-113999750D01*
X133131928Y-114164000D01*
X133144188Y-114288482D01*
X133178502Y-114401600D01*
X132685547Y-114401600D01*
X132449798Y-114165851D01*
X132449980Y-114164000D01*
X132449980Y-113264000D01*
X133131928Y-113264000D01*
X133135000Y-113428250D01*
X133293750Y-113587000D01*
X134493000Y-113587000D01*
X134493000Y-112787750D01*
X134334250Y-112629000D01*
X133770000Y-112625928D01*
X133645518Y-112638188D01*
X133525820Y-112674498D01*
X133415506Y-112733463D01*
X133318815Y-112812815D01*
X133239463Y-112909506D01*
X133180498Y-113019820D01*
X133144188Y-113139518D01*
X133131928Y-113264000D01*
X132449980Y-113264000D01*
X132439681Y-113159435D01*
X132409181Y-113058889D01*
X132359651Y-112966225D01*
X132292995Y-112885005D01*
X132211775Y-112818349D01*
X132119111Y-112768819D01*
X132018565Y-112738319D01*
X131914000Y-112728020D01*
X130214000Y-112728020D01*
X130109435Y-112738319D01*
X130008889Y-112768819D01*
X129916225Y-112818349D01*
X129835005Y-112885005D01*
X129768349Y-112966225D01*
X129718819Y-113058889D01*
X129688319Y-113159435D01*
X129678020Y-113264000D01*
X129678020Y-114164000D01*
X129688319Y-114268565D01*
X129718819Y-114369111D01*
X129768349Y-114461775D01*
X129835005Y-114542995D01*
X129916225Y-114609651D01*
X130008889Y-114659181D01*
X130109435Y-114689681D01*
X130214000Y-114699980D01*
X131116034Y-114699980D01*
X131922086Y-115506033D01*
X131942767Y-115531233D01*
X132043326Y-115613759D01*
X132158053Y-115675082D01*
X132282539Y-115712844D01*
X132356433Y-115720122D01*
X132412000Y-115725595D01*
X132444439Y-115722400D01*
X134032032Y-115722400D01*
X134046832Y-115758131D01*
X134148981Y-115911008D01*
X134278992Y-116041019D01*
X134431869Y-116143168D01*
X134601737Y-116213530D01*
X134782068Y-116249400D01*
X134965932Y-116249400D01*
X135146263Y-116213530D01*
X135316131Y-116143168D01*
X135469008Y-116041019D01*
X135533627Y-115976400D01*
X135815415Y-115976400D01*
X135358216Y-116433600D01*
X132620438Y-116433600D01*
X132587999Y-116430405D01*
X132532432Y-116435878D01*
X132458539Y-116443156D01*
X132334053Y-116480918D01*
X132219326Y-116542241D01*
X132118767Y-116624767D01*
X132098082Y-116649972D01*
X131635972Y-117112082D01*
X131610767Y-117132767D01*
X131528241Y-117233327D01*
X131476616Y-117329911D01*
X131466918Y-117348054D01*
X131429156Y-117472540D01*
X131424566Y-117519146D01*
X131198134Y-117670443D01*
X131005443Y-117863134D01*
X130854047Y-118089714D01*
X130810000Y-118196053D01*
X130765953Y-118089714D01*
X130614557Y-117863134D01*
X130421866Y-117670443D01*
X130195286Y-117519047D01*
X129943523Y-117414763D01*
X129676253Y-117361600D01*
X129403747Y-117361600D01*
X129136477Y-117414763D01*
X128884714Y-117519047D01*
X128658134Y-117670443D01*
X128465443Y-117863134D01*
X128322397Y-118077218D01*
X128195178Y-117863645D01*
X128000269Y-117647412D01*
X127766920Y-117473359D01*
X127504099Y-117348175D01*
X127356890Y-117303524D01*
X127127000Y-117424845D01*
X127127000Y-118618000D01*
X127147000Y-118618000D01*
X127147000Y-118872000D01*
X127127000Y-118872000D01*
X127127000Y-118892000D01*
X126873000Y-118892000D01*
X126873000Y-118872000D01*
X126853000Y-118872000D01*
X126853000Y-118618000D01*
X126873000Y-118618000D01*
X126873000Y-117424845D01*
X126643110Y-117303524D01*
X126495901Y-117348175D01*
X126233080Y-117473359D01*
X125999731Y-117647412D01*
X125839142Y-117825571D01*
X125835681Y-117790435D01*
X125805181Y-117689889D01*
X125755651Y-117597225D01*
X125688995Y-117516005D01*
X125607775Y-117449349D01*
X125515111Y-117399819D01*
X125414565Y-117369319D01*
X125310000Y-117359020D01*
X123610000Y-117359020D01*
X123575750Y-117362393D01*
X123575750Y-107161894D01*
X124768950Y-107161894D01*
X124768950Y-107375306D01*
X124810585Y-107584616D01*
X124892253Y-107781782D01*
X125010818Y-107959227D01*
X125161723Y-108110132D01*
X125339168Y-108228697D01*
X125536334Y-108310365D01*
X125745644Y-108352000D01*
X125959056Y-108352000D01*
X126168366Y-108310365D01*
X126365532Y-108228697D01*
X126542977Y-108110132D01*
X126693882Y-107959227D01*
X126812447Y-107781782D01*
X126894115Y-107584616D01*
X126935750Y-107375306D01*
X126935750Y-107161894D01*
X126894115Y-106952584D01*
X126812447Y-106755418D01*
X126693882Y-106577973D01*
X126542977Y-106427068D01*
X126365532Y-106308503D01*
X126168366Y-106226835D01*
X125959056Y-106185200D01*
X125745644Y-106185200D01*
X125536334Y-106226835D01*
X125339168Y-106308503D01*
X125161723Y-106427068D01*
X125010818Y-106577973D01*
X124892253Y-106755418D01*
X124810585Y-106952584D01*
X124768950Y-107161894D01*
X123575750Y-107161894D01*
X123575750Y-102661894D01*
X124768950Y-102661894D01*
X124768950Y-102875306D01*
X124810585Y-103084616D01*
X124892253Y-103281782D01*
X125010818Y-103459227D01*
X125161723Y-103610132D01*
X125339168Y-103728697D01*
X125536334Y-103810365D01*
X125745644Y-103852000D01*
X125959056Y-103852000D01*
X126168366Y-103810365D01*
X126365532Y-103728697D01*
X126542977Y-103610132D01*
X126693882Y-103459227D01*
X126812447Y-103281782D01*
X126894115Y-103084616D01*
X126935750Y-102875306D01*
X126935750Y-102661894D01*
X126894115Y-102452584D01*
X126812447Y-102255418D01*
X126693882Y-102077973D01*
X126542977Y-101927068D01*
X126365532Y-101808503D01*
X126168366Y-101726835D01*
X125959056Y-101685200D01*
X125745644Y-101685200D01*
X125536334Y-101726835D01*
X125339168Y-101808503D01*
X125161723Y-101927068D01*
X125010818Y-102077973D01*
X124892253Y-102255418D01*
X124810585Y-102452584D01*
X124768950Y-102661894D01*
X123575750Y-102661894D01*
X123575750Y-99007691D01*
X123810950Y-99007691D01*
X123810950Y-99429509D01*
X123893243Y-99843223D01*
X124054666Y-100232933D01*
X124289016Y-100583663D01*
X124587287Y-100881934D01*
X124938017Y-101116284D01*
X125327727Y-101277707D01*
X125741441Y-101360000D01*
X126163259Y-101360000D01*
X126576973Y-101277707D01*
X126813336Y-101179802D01*
X126788969Y-101273875D01*
X126771266Y-101583577D01*
X126814323Y-101890784D01*
X126916485Y-102183686D01*
X127001627Y-102342977D01*
X127259874Y-102431471D01*
X128172745Y-101518600D01*
X128531955Y-101518600D01*
X129444826Y-102431471D01*
X129703073Y-102342977D01*
X129837947Y-102063624D01*
X129915731Y-101763325D01*
X129933434Y-101453623D01*
X129890377Y-101146416D01*
X129788215Y-100853514D01*
X129703073Y-100694223D01*
X129444826Y-100605729D01*
X128531955Y-101518600D01*
X128172745Y-101518600D01*
X128158603Y-101504458D01*
X128338208Y-101324853D01*
X128352350Y-101338995D01*
X129265221Y-100426124D01*
X129176727Y-100167877D01*
X128897374Y-100033003D01*
X128597075Y-99955219D01*
X128287373Y-99937516D01*
X127980166Y-99980573D01*
X127950242Y-99991010D01*
X128011457Y-99843223D01*
X128093750Y-99429509D01*
X128093750Y-99007691D01*
X128011457Y-98593977D01*
X127850034Y-98204267D01*
X127615684Y-97853537D01*
X127317413Y-97555266D01*
X126966683Y-97320916D01*
X126576973Y-97159493D01*
X126163259Y-97077200D01*
X125741441Y-97077200D01*
X125327727Y-97159493D01*
X124938017Y-97320916D01*
X124587287Y-97555266D01*
X124289016Y-97853537D01*
X124054666Y-98204267D01*
X123893243Y-98593977D01*
X123810950Y-99007691D01*
X123575750Y-99007691D01*
X123575750Y-92822607D01*
X123610000Y-92825980D01*
G04 #@! TA.AperFunction,Conductor*
D26*
G36*
X123610000Y-92825980D02*
G01*
X123672600Y-92825980D01*
X123672601Y-94195327D01*
X123668792Y-94234000D01*
X123683995Y-94388357D01*
X123729018Y-94536782D01*
X123785002Y-94641519D01*
X123802135Y-94673572D01*
X123900532Y-94793469D01*
X123930573Y-94818123D01*
X125653881Y-96541433D01*
X125678531Y-96571469D01*
X125708567Y-96596119D01*
X125708570Y-96596122D01*
X125798427Y-96669866D01*
X125935217Y-96742982D01*
X126083643Y-96788006D01*
X126199327Y-96799400D01*
X126199335Y-96799400D01*
X126238000Y-96803208D01*
X126276665Y-96799400D01*
X129975850Y-96799400D01*
X131444600Y-98268152D01*
X131444600Y-98388020D01*
X131232000Y-98388020D01*
X131127435Y-98398319D01*
X131026889Y-98428819D01*
X130934225Y-98478349D01*
X130853005Y-98545005D01*
X130786349Y-98626225D01*
X130736819Y-98718889D01*
X130706319Y-98819435D01*
X130696020Y-98924000D01*
X130696020Y-102724000D01*
X130706319Y-102828565D01*
X130736819Y-102929111D01*
X130786349Y-103021775D01*
X130853005Y-103102995D01*
X130934225Y-103169651D01*
X131026889Y-103219181D01*
X131127435Y-103249681D01*
X131232000Y-103259980D01*
X133232000Y-103259980D01*
X133336565Y-103249681D01*
X133437111Y-103219181D01*
X133529775Y-103169651D01*
X133610995Y-103102995D01*
X133677651Y-103021775D01*
X133727181Y-102929111D01*
X133757681Y-102828565D01*
X133767980Y-102724000D01*
X133767980Y-101611400D01*
X136999704Y-101611400D01*
X137006319Y-101678565D01*
X137036819Y-101779111D01*
X137086349Y-101871775D01*
X137109152Y-101899560D01*
X137080815Y-101922815D01*
X137001463Y-102019506D01*
X136942498Y-102129820D01*
X136906188Y-102249518D01*
X136893928Y-102374000D01*
X136897000Y-102838250D01*
X137055750Y-102997000D01*
X138405000Y-102997000D01*
X138405000Y-102977000D01*
X138659000Y-102977000D01*
X138659000Y-102997000D01*
X140008250Y-102997000D01*
X140167000Y-102838250D01*
X140170072Y-102374000D01*
X140157812Y-102249518D01*
X140121502Y-102129820D01*
X140062537Y-102019506D01*
X139983185Y-101922815D01*
X139954848Y-101899560D01*
X139977651Y-101871775D01*
X140027181Y-101779111D01*
X140034445Y-101755164D01*
X140116068Y-101771400D01*
X140299932Y-101771400D01*
X140480263Y-101735530D01*
X140650131Y-101665168D01*
X140803008Y-101563019D01*
X140859171Y-101506856D01*
X140861268Y-101510778D01*
X140881601Y-101535553D01*
X140881600Y-101648203D01*
X140857055Y-101678111D01*
X140789043Y-101805353D01*
X140747162Y-101943417D01*
X140733020Y-102087000D01*
X140733020Y-102637000D01*
X140747162Y-102780583D01*
X140789043Y-102918647D01*
X140813717Y-102964809D01*
X140738463Y-103056506D01*
X140679498Y-103166820D01*
X140643188Y-103286518D01*
X140630928Y-103411000D01*
X140634000Y-103600250D01*
X140792750Y-103759000D01*
X141579500Y-103759000D01*
X141579500Y-103739000D01*
X141833500Y-103739000D01*
X141833500Y-103759000D01*
X141853500Y-103759000D01*
X141853500Y-104013000D01*
X141833500Y-104013000D01*
X141833500Y-104837250D01*
X141846000Y-104849750D01*
X141846000Y-105537000D01*
X141866000Y-105537000D01*
X141866000Y-105791000D01*
X141846000Y-105791000D01*
X141846000Y-107061000D01*
X141866000Y-107061000D01*
X141866000Y-107315000D01*
X141846000Y-107315000D01*
X141846000Y-108139250D01*
X142004750Y-108298000D01*
X142169000Y-108301072D01*
X142293482Y-108288812D01*
X142413180Y-108252502D01*
X142523494Y-108193537D01*
X142620185Y-108114185D01*
X142645289Y-108083596D01*
X142752786Y-108141054D01*
X142895540Y-108184358D01*
X143044000Y-108198980D01*
X143494000Y-108198980D01*
X143642460Y-108184358D01*
X143785214Y-108141054D01*
X143916778Y-108070732D01*
X144029086Y-107978563D01*
X144083869Y-108015168D01*
X144253737Y-108085530D01*
X144434068Y-108121400D01*
X144617932Y-108121400D01*
X144708710Y-108103343D01*
X144335967Y-108476087D01*
X144310768Y-108496767D01*
X144228242Y-108597326D01*
X144201137Y-108648036D01*
X144166918Y-108712054D01*
X144129156Y-108836540D01*
X144116405Y-108966000D01*
X144119601Y-108998448D01*
X144119600Y-110470454D01*
X143827968Y-110762086D01*
X143802768Y-110782767D01*
X143720242Y-110883326D01*
X143687509Y-110944565D01*
X143658918Y-110998054D01*
X143621156Y-111122540D01*
X143608405Y-111252000D01*
X143611601Y-111284448D01*
X143611600Y-112743561D01*
X143611600Y-113116256D01*
X142272266Y-114455590D01*
X141325211Y-114455590D01*
X141292772Y-114452395D01*
X141260333Y-114455590D01*
X141163311Y-114465146D01*
X141038825Y-114502908D01*
X140924098Y-114564231D01*
X140823539Y-114646757D01*
X140802860Y-114671955D01*
X140199236Y-115275580D01*
X137118367Y-115275580D01*
X137591034Y-114802913D01*
X137616233Y-114782233D01*
X137698759Y-114681674D01*
X137760082Y-114566947D01*
X137792485Y-114460127D01*
X137795815Y-114464185D01*
X137892506Y-114543537D01*
X138002820Y-114602502D01*
X138122518Y-114638812D01*
X138247000Y-114651072D01*
X138411250Y-114648000D01*
X138570000Y-114489250D01*
X138570000Y-113665000D01*
X138824000Y-113665000D01*
X138824000Y-114489250D01*
X138982750Y-114648000D01*
X139147000Y-114651072D01*
X139271482Y-114638812D01*
X139391180Y-114602502D01*
X139501494Y-114543537D01*
X139598185Y-114464185D01*
X139677537Y-114367494D01*
X139736502Y-114257180D01*
X139772812Y-114137482D01*
X139785072Y-114013000D01*
X139782000Y-113823750D01*
X139623250Y-113665000D01*
X138824000Y-113665000D01*
X138570000Y-113665000D01*
X138550000Y-113665000D01*
X138550000Y-113411000D01*
X138570000Y-113411000D01*
X138570000Y-113391000D01*
X138824000Y-113391000D01*
X138824000Y-113411000D01*
X139623250Y-113411000D01*
X139782000Y-113252250D01*
X139785072Y-113063000D01*
X139772812Y-112938518D01*
X139736502Y-112818820D01*
X139677537Y-112708506D01*
X139649547Y-112674400D01*
X139921561Y-112674400D01*
X139954000Y-112677595D01*
X139986439Y-112674400D01*
X140083461Y-112664844D01*
X140207947Y-112627082D01*
X140322674Y-112565759D01*
X140423233Y-112483233D01*
X140443918Y-112458028D01*
X140790020Y-112111926D01*
X140790020Y-113098000D01*
X140800319Y-113202565D01*
X140830819Y-113303111D01*
X140880349Y-113395775D01*
X140947005Y-113476995D01*
X141028225Y-113543651D01*
X141120889Y-113593181D01*
X141221435Y-113623681D01*
X141326000Y-113633980D01*
X142826000Y-113633980D01*
X142930565Y-113623681D01*
X143031111Y-113593181D01*
X143123775Y-113543651D01*
X143204995Y-113476995D01*
X143271651Y-113395775D01*
X143321181Y-113303111D01*
X143351681Y-113202565D01*
X143361980Y-113098000D01*
X143361980Y-112098000D01*
X143351681Y-111993435D01*
X143321181Y-111892889D01*
X143271651Y-111800225D01*
X143204995Y-111719005D01*
X143123775Y-111652349D01*
X143031111Y-111602819D01*
X142930565Y-111572319D01*
X142826000Y-111562020D01*
X142731724Y-111562020D01*
X142813168Y-111440131D01*
X142883530Y-111270263D01*
X142919400Y-111089932D01*
X142919400Y-110906068D01*
X142883530Y-110725737D01*
X142813168Y-110555869D01*
X142773400Y-110496352D01*
X142773400Y-110433980D01*
X142826000Y-110433980D01*
X142930565Y-110423681D01*
X143031111Y-110393181D01*
X143123775Y-110343651D01*
X143204995Y-110276995D01*
X143271651Y-110195775D01*
X143321181Y-110103111D01*
X143351681Y-110002565D01*
X143361980Y-109898000D01*
X143361980Y-108898000D01*
X143351681Y-108793435D01*
X143321181Y-108692889D01*
X143271651Y-108600225D01*
X143204995Y-108519005D01*
X143123775Y-108452349D01*
X143031111Y-108402819D01*
X142930565Y-108372319D01*
X142826000Y-108362020D01*
X141326000Y-108362020D01*
X141221435Y-108372319D01*
X141120889Y-108402819D01*
X141028225Y-108452349D01*
X140947005Y-108519005D01*
X140880349Y-108600225D01*
X140830819Y-108692889D01*
X140800319Y-108793435D01*
X140790020Y-108898000D01*
X140790020Y-109898000D01*
X140800319Y-110002565D01*
X140830819Y-110103111D01*
X140880349Y-110195775D01*
X140947005Y-110276995D01*
X141020852Y-110337600D01*
X141002439Y-110337600D01*
X140970000Y-110334405D01*
X140937561Y-110337600D01*
X140840539Y-110347156D01*
X140716053Y-110384918D01*
X140601326Y-110446241D01*
X140500767Y-110528767D01*
X140480086Y-110553967D01*
X139680454Y-111353600D01*
X139571500Y-111353600D01*
X139565290Y-111341981D01*
X139627185Y-111291185D01*
X139706537Y-111194494D01*
X139765502Y-111084180D01*
X139801812Y-110964482D01*
X139814072Y-110840000D01*
X139811000Y-110775750D01*
X139652250Y-110617000D01*
X139003000Y-110617000D01*
X139003000Y-110637000D01*
X138749000Y-110637000D01*
X138749000Y-110617000D01*
X138729000Y-110617000D01*
X138729000Y-110363000D01*
X138749000Y-110363000D01*
X138749000Y-110343000D01*
X139003000Y-110343000D01*
X139003000Y-110363000D01*
X139652250Y-110363000D01*
X139811000Y-110204250D01*
X139814072Y-110140000D01*
X139801812Y-110015518D01*
X139765502Y-109895820D01*
X139706537Y-109785506D01*
X139627185Y-109688815D01*
X139587079Y-109655901D01*
X139621651Y-109613775D01*
X139628632Y-109600715D01*
X139699947Y-109579082D01*
X139814674Y-109517759D01*
X139915233Y-109435233D01*
X139935918Y-109410028D01*
X140839749Y-108506198D01*
X140864948Y-108485518D01*
X140947474Y-108384959D01*
X141008797Y-108270232D01*
X141015660Y-108247606D01*
X141024820Y-108252502D01*
X141144518Y-108288812D01*
X141269000Y-108301072D01*
X141433250Y-108298000D01*
X141592000Y-108139250D01*
X141592000Y-107315000D01*
X141572000Y-107315000D01*
X141572000Y-107061000D01*
X141592000Y-107061000D01*
X141592000Y-105791000D01*
X141572000Y-105791000D01*
X141572000Y-105537000D01*
X141592000Y-105537000D01*
X141592000Y-104712750D01*
X141579500Y-104700250D01*
X141579500Y-104013000D01*
X140792750Y-104013000D01*
X140634000Y-104171750D01*
X140630928Y-104361000D01*
X140643188Y-104485482D01*
X140679498Y-104605180D01*
X140738463Y-104715494D01*
X140787298Y-104775000D01*
X140779068Y-104785029D01*
X140734263Y-104766470D01*
X140553932Y-104730600D01*
X140370068Y-104730600D01*
X140189737Y-104766470D01*
X140019869Y-104836832D01*
X139954881Y-104880256D01*
X139917019Y-104823592D01*
X139787008Y-104693581D01*
X139634131Y-104591432D01*
X139464263Y-104521070D01*
X139416530Y-104511575D01*
X139532000Y-104512072D01*
X139656482Y-104499812D01*
X139776180Y-104463502D01*
X139886494Y-104404537D01*
X139983185Y-104325185D01*
X140062537Y-104228494D01*
X140121502Y-104118180D01*
X140157812Y-103998482D01*
X140170072Y-103874000D01*
X140167000Y-103409750D01*
X140008250Y-103251000D01*
X138659000Y-103251000D01*
X138659000Y-104350250D01*
X138817750Y-104509000D01*
X138976974Y-104509685D01*
X138919737Y-104521070D01*
X138749869Y-104591432D01*
X138596992Y-104693581D01*
X138466981Y-104823592D01*
X138364832Y-104976469D01*
X138353594Y-105003600D01*
X130398297Y-105003600D01*
X129753435Y-104358739D01*
X129768936Y-104321317D01*
X129825550Y-104036698D01*
X129825550Y-103874000D01*
X136893928Y-103874000D01*
X136906188Y-103998482D01*
X136942498Y-104118180D01*
X137001463Y-104228494D01*
X137080815Y-104325185D01*
X137177506Y-104404537D01*
X137287820Y-104463502D01*
X137407518Y-104499812D01*
X137532000Y-104512072D01*
X138246250Y-104509000D01*
X138405000Y-104350250D01*
X138405000Y-103251000D01*
X137055750Y-103251000D01*
X136897000Y-103409750D01*
X136893928Y-103874000D01*
X129825550Y-103874000D01*
X129825550Y-103746502D01*
X129768936Y-103461883D01*
X129657883Y-103193778D01*
X129496659Y-102952490D01*
X129291460Y-102747291D01*
X129232129Y-102707647D01*
X129265221Y-102611076D01*
X128352350Y-101698205D01*
X127439479Y-102611076D01*
X127472571Y-102707647D01*
X127413240Y-102747291D01*
X127208041Y-102952490D01*
X127046817Y-103193778D01*
X126935764Y-103461883D01*
X126879150Y-103746502D01*
X126879150Y-104036698D01*
X126935764Y-104321317D01*
X127046817Y-104589422D01*
X127208041Y-104830710D01*
X127395931Y-105018600D01*
X127208041Y-105206490D01*
X127046817Y-105447778D01*
X126935764Y-105715883D01*
X126879150Y-106000502D01*
X126879150Y-106290698D01*
X126935764Y-106575317D01*
X127046817Y-106843422D01*
X127208041Y-107084710D01*
X127413240Y-107289909D01*
X127476383Y-107332100D01*
X127413240Y-107374291D01*
X127208041Y-107579490D01*
X127046817Y-107820778D01*
X126935764Y-108088883D01*
X126879150Y-108373502D01*
X126879150Y-108663698D01*
X126927048Y-108904499D01*
X126576973Y-108759493D01*
X126163259Y-108677200D01*
X125741441Y-108677200D01*
X125327727Y-108759493D01*
X124938017Y-108920916D01*
X124587287Y-109155266D01*
X124289016Y-109453537D01*
X124054666Y-109804267D01*
X123893243Y-110193977D01*
X123810950Y-110607691D01*
X123810950Y-111029509D01*
X123893243Y-111443223D01*
X124054666Y-111832933D01*
X124289016Y-112183663D01*
X124587287Y-112481934D01*
X124938017Y-112716284D01*
X125327727Y-112877707D01*
X125741441Y-112960000D01*
X126163259Y-112960000D01*
X126576973Y-112877707D01*
X126966683Y-112716284D01*
X127317413Y-112481934D01*
X127615684Y-112183663D01*
X127850034Y-111832933D01*
X128011457Y-111443223D01*
X128093750Y-111029509D01*
X128093750Y-110764000D01*
X129575928Y-110764000D01*
X129588188Y-110888482D01*
X129624498Y-111008180D01*
X129683463Y-111118494D01*
X129762815Y-111215185D01*
X129859506Y-111294537D01*
X129969820Y-111353502D01*
X130089518Y-111389812D01*
X130214000Y-111402072D01*
X130778250Y-111399000D01*
X130937000Y-111240250D01*
X130937000Y-110441000D01*
X131191000Y-110441000D01*
X131191000Y-111240250D01*
X131349750Y-111399000D01*
X131914000Y-111402072D01*
X132038482Y-111389812D01*
X132158180Y-111353502D01*
X132268494Y-111294537D01*
X132365185Y-111215185D01*
X132444537Y-111118494D01*
X132503502Y-111008180D01*
X132539812Y-110888482D01*
X132552072Y-110764000D01*
X132549000Y-110599750D01*
X132390250Y-110441000D01*
X131191000Y-110441000D01*
X130937000Y-110441000D01*
X129737750Y-110441000D01*
X129579000Y-110599750D01*
X129575928Y-110764000D01*
X128093750Y-110764000D01*
X128093750Y-110607691D01*
X128011457Y-110193977D01*
X127900458Y-109926001D01*
X127922633Y-109935186D01*
X128207252Y-109991800D01*
X128497448Y-109991800D01*
X128782067Y-109935186D01*
X128953924Y-109864000D01*
X129575928Y-109864000D01*
X129579000Y-110028250D01*
X129737750Y-110187000D01*
X130937000Y-110187000D01*
X130937000Y-109387750D01*
X131191000Y-109387750D01*
X131191000Y-110187000D01*
X132390250Y-110187000D01*
X132549000Y-110028250D01*
X132552072Y-109864000D01*
X132539812Y-109739518D01*
X132503502Y-109619820D01*
X132444537Y-109509506D01*
X132365185Y-109412815D01*
X132268494Y-109333463D01*
X132158180Y-109274498D01*
X132038482Y-109238188D01*
X131914000Y-109225928D01*
X131349750Y-109229000D01*
X131191000Y-109387750D01*
X130937000Y-109387750D01*
X130778250Y-109229000D01*
X130214000Y-109225928D01*
X130089518Y-109238188D01*
X129969820Y-109274498D01*
X129859506Y-109333463D01*
X129762815Y-109412815D01*
X129683463Y-109509506D01*
X129624498Y-109619820D01*
X129588188Y-109739518D01*
X129575928Y-109864000D01*
X128953924Y-109864000D01*
X129050172Y-109824133D01*
X129291460Y-109662909D01*
X129496659Y-109457710D01*
X129603661Y-109297570D01*
X129633757Y-109294606D01*
X129782183Y-109249582D01*
X129918972Y-109176466D01*
X130038869Y-109078069D01*
X130063527Y-109048023D01*
X130628151Y-108483400D01*
X131176078Y-108483400D01*
X131208349Y-108543775D01*
X131275005Y-108624995D01*
X131356225Y-108691651D01*
X131448889Y-108741181D01*
X131549435Y-108771681D01*
X131654000Y-108781980D01*
X132356034Y-108781980D01*
X133238082Y-109664028D01*
X133258767Y-109689233D01*
X133264249Y-109693732D01*
X133244319Y-109759435D01*
X133234020Y-109864000D01*
X133234020Y-110764000D01*
X133244319Y-110868565D01*
X133274819Y-110969111D01*
X133324349Y-111061775D01*
X133391005Y-111142995D01*
X133472225Y-111209651D01*
X133564889Y-111259181D01*
X133665435Y-111289681D01*
X133770000Y-111299980D01*
X133961131Y-111299980D01*
X133969156Y-111381460D01*
X134006918Y-111505946D01*
X134026714Y-111542981D01*
X134068242Y-111620674D01*
X134150768Y-111721233D01*
X134175967Y-111741913D01*
X134448600Y-112014546D01*
X134448600Y-112105932D01*
X134484470Y-112286263D01*
X134554832Y-112456131D01*
X134656981Y-112609008D01*
X134786992Y-112739019D01*
X134792231Y-112742519D01*
X134747000Y-112787750D01*
X134747000Y-113587000D01*
X135946250Y-113587000D01*
X136105000Y-113428250D01*
X136108072Y-113264000D01*
X136095812Y-113139518D01*
X136059502Y-113019820D01*
X136000537Y-112909506D01*
X135921185Y-112812815D01*
X135896672Y-112792698D01*
X135977008Y-112739019D01*
X136107019Y-112609008D01*
X136190693Y-112483781D01*
X136217043Y-112570647D01*
X136285055Y-112697889D01*
X136355825Y-112784122D01*
X136289268Y-112865222D01*
X136218946Y-112996786D01*
X136175642Y-113139540D01*
X136161020Y-113288000D01*
X136161020Y-113788000D01*
X136175642Y-113936460D01*
X136218946Y-114079214D01*
X136289268Y-114210778D01*
X136300991Y-114225062D01*
X135968398Y-114557656D01*
X136000537Y-114518494D01*
X136059502Y-114408180D01*
X136095812Y-114288482D01*
X136108072Y-114164000D01*
X136105000Y-113999750D01*
X135946250Y-113841000D01*
X134747000Y-113841000D01*
X134747000Y-113861000D01*
X134493000Y-113861000D01*
X134493000Y-113841000D01*
X133293750Y-113841000D01*
X133135000Y-113999750D01*
X133131928Y-114164000D01*
X133144188Y-114288482D01*
X133178502Y-114401600D01*
X132685547Y-114401600D01*
X132449798Y-114165851D01*
X132449980Y-114164000D01*
X132449980Y-113264000D01*
X133131928Y-113264000D01*
X133135000Y-113428250D01*
X133293750Y-113587000D01*
X134493000Y-113587000D01*
X134493000Y-112787750D01*
X134334250Y-112629000D01*
X133770000Y-112625928D01*
X133645518Y-112638188D01*
X133525820Y-112674498D01*
X133415506Y-112733463D01*
X133318815Y-112812815D01*
X133239463Y-112909506D01*
X133180498Y-113019820D01*
X133144188Y-113139518D01*
X133131928Y-113264000D01*
X132449980Y-113264000D01*
X132439681Y-113159435D01*
X132409181Y-113058889D01*
X132359651Y-112966225D01*
X132292995Y-112885005D01*
X132211775Y-112818349D01*
X132119111Y-112768819D01*
X132018565Y-112738319D01*
X131914000Y-112728020D01*
X130214000Y-112728020D01*
X130109435Y-112738319D01*
X130008889Y-112768819D01*
X129916225Y-112818349D01*
X129835005Y-112885005D01*
X129768349Y-112966225D01*
X129718819Y-113058889D01*
X129688319Y-113159435D01*
X129678020Y-113264000D01*
X129678020Y-114164000D01*
X129688319Y-114268565D01*
X129718819Y-114369111D01*
X129768349Y-114461775D01*
X129835005Y-114542995D01*
X129916225Y-114609651D01*
X130008889Y-114659181D01*
X130109435Y-114689681D01*
X130214000Y-114699980D01*
X131116034Y-114699980D01*
X131922086Y-115506033D01*
X131942767Y-115531233D01*
X132043326Y-115613759D01*
X132158053Y-115675082D01*
X132282539Y-115712844D01*
X132356433Y-115720122D01*
X132412000Y-115725595D01*
X132444439Y-115722400D01*
X134032032Y-115722400D01*
X134046832Y-115758131D01*
X134148981Y-115911008D01*
X134278992Y-116041019D01*
X134431869Y-116143168D01*
X134601737Y-116213530D01*
X134782068Y-116249400D01*
X134965932Y-116249400D01*
X135146263Y-116213530D01*
X135316131Y-116143168D01*
X135469008Y-116041019D01*
X135533627Y-115976400D01*
X135815415Y-115976400D01*
X135358216Y-116433600D01*
X132620438Y-116433600D01*
X132587999Y-116430405D01*
X132532432Y-116435878D01*
X132458539Y-116443156D01*
X132334053Y-116480918D01*
X132219326Y-116542241D01*
X132118767Y-116624767D01*
X132098082Y-116649972D01*
X131635972Y-117112082D01*
X131610767Y-117132767D01*
X131528241Y-117233327D01*
X131476616Y-117329911D01*
X131466918Y-117348054D01*
X131429156Y-117472540D01*
X131424566Y-117519146D01*
X131198134Y-117670443D01*
X131005443Y-117863134D01*
X130854047Y-118089714D01*
X130810000Y-118196053D01*
X130765953Y-118089714D01*
X130614557Y-117863134D01*
X130421866Y-117670443D01*
X130195286Y-117519047D01*
X129943523Y-117414763D01*
X129676253Y-117361600D01*
X129403747Y-117361600D01*
X129136477Y-117414763D01*
X128884714Y-117519047D01*
X128658134Y-117670443D01*
X128465443Y-117863134D01*
X128322397Y-118077218D01*
X128195178Y-117863645D01*
X128000269Y-117647412D01*
X127766920Y-117473359D01*
X127504099Y-117348175D01*
X127356890Y-117303524D01*
X127127000Y-117424845D01*
X127127000Y-118618000D01*
X127147000Y-118618000D01*
X127147000Y-118872000D01*
X127127000Y-118872000D01*
X127127000Y-118892000D01*
X126873000Y-118892000D01*
X126873000Y-118872000D01*
X126853000Y-118872000D01*
X126853000Y-118618000D01*
X126873000Y-118618000D01*
X126873000Y-117424845D01*
X126643110Y-117303524D01*
X126495901Y-117348175D01*
X126233080Y-117473359D01*
X125999731Y-117647412D01*
X125839142Y-117825571D01*
X125835681Y-117790435D01*
X125805181Y-117689889D01*
X125755651Y-117597225D01*
X125688995Y-117516005D01*
X125607775Y-117449349D01*
X125515111Y-117399819D01*
X125414565Y-117369319D01*
X125310000Y-117359020D01*
X123610000Y-117359020D01*
X123575750Y-117362393D01*
X123575750Y-107161894D01*
X124768950Y-107161894D01*
X124768950Y-107375306D01*
X124810585Y-107584616D01*
X124892253Y-107781782D01*
X125010818Y-107959227D01*
X125161723Y-108110132D01*
X125339168Y-108228697D01*
X125536334Y-108310365D01*
X125745644Y-108352000D01*
X125959056Y-108352000D01*
X126168366Y-108310365D01*
X126365532Y-108228697D01*
X126542977Y-108110132D01*
X126693882Y-107959227D01*
X126812447Y-107781782D01*
X126894115Y-107584616D01*
X126935750Y-107375306D01*
X126935750Y-107161894D01*
X126894115Y-106952584D01*
X126812447Y-106755418D01*
X126693882Y-106577973D01*
X126542977Y-106427068D01*
X126365532Y-106308503D01*
X126168366Y-106226835D01*
X125959056Y-106185200D01*
X125745644Y-106185200D01*
X125536334Y-106226835D01*
X125339168Y-106308503D01*
X125161723Y-106427068D01*
X125010818Y-106577973D01*
X124892253Y-106755418D01*
X124810585Y-106952584D01*
X124768950Y-107161894D01*
X123575750Y-107161894D01*
X123575750Y-102661894D01*
X124768950Y-102661894D01*
X124768950Y-102875306D01*
X124810585Y-103084616D01*
X124892253Y-103281782D01*
X125010818Y-103459227D01*
X125161723Y-103610132D01*
X125339168Y-103728697D01*
X125536334Y-103810365D01*
X125745644Y-103852000D01*
X125959056Y-103852000D01*
X126168366Y-103810365D01*
X126365532Y-103728697D01*
X126542977Y-103610132D01*
X126693882Y-103459227D01*
X126812447Y-103281782D01*
X126894115Y-103084616D01*
X126935750Y-102875306D01*
X126935750Y-102661894D01*
X126894115Y-102452584D01*
X126812447Y-102255418D01*
X126693882Y-102077973D01*
X126542977Y-101927068D01*
X126365532Y-101808503D01*
X126168366Y-101726835D01*
X125959056Y-101685200D01*
X125745644Y-101685200D01*
X125536334Y-101726835D01*
X125339168Y-101808503D01*
X125161723Y-101927068D01*
X125010818Y-102077973D01*
X124892253Y-102255418D01*
X124810585Y-102452584D01*
X124768950Y-102661894D01*
X123575750Y-102661894D01*
X123575750Y-99007691D01*
X123810950Y-99007691D01*
X123810950Y-99429509D01*
X123893243Y-99843223D01*
X124054666Y-100232933D01*
X124289016Y-100583663D01*
X124587287Y-100881934D01*
X124938017Y-101116284D01*
X125327727Y-101277707D01*
X125741441Y-101360000D01*
X126163259Y-101360000D01*
X126576973Y-101277707D01*
X126813336Y-101179802D01*
X126788969Y-101273875D01*
X126771266Y-101583577D01*
X126814323Y-101890784D01*
X126916485Y-102183686D01*
X127001627Y-102342977D01*
X127259874Y-102431471D01*
X128172745Y-101518600D01*
X128531955Y-101518600D01*
X129444826Y-102431471D01*
X129703073Y-102342977D01*
X129837947Y-102063624D01*
X129915731Y-101763325D01*
X129933434Y-101453623D01*
X129890377Y-101146416D01*
X129788215Y-100853514D01*
X129703073Y-100694223D01*
X129444826Y-100605729D01*
X128531955Y-101518600D01*
X128172745Y-101518600D01*
X128158603Y-101504458D01*
X128338208Y-101324853D01*
X128352350Y-101338995D01*
X129265221Y-100426124D01*
X129176727Y-100167877D01*
X128897374Y-100033003D01*
X128597075Y-99955219D01*
X128287373Y-99937516D01*
X127980166Y-99980573D01*
X127950242Y-99991010D01*
X128011457Y-99843223D01*
X128093750Y-99429509D01*
X128093750Y-99007691D01*
X128011457Y-98593977D01*
X127850034Y-98204267D01*
X127615684Y-97853537D01*
X127317413Y-97555266D01*
X126966683Y-97320916D01*
X126576973Y-97159493D01*
X126163259Y-97077200D01*
X125741441Y-97077200D01*
X125327727Y-97159493D01*
X124938017Y-97320916D01*
X124587287Y-97555266D01*
X124289016Y-97853537D01*
X124054666Y-98204267D01*
X123893243Y-98593977D01*
X123810950Y-99007691D01*
X123575750Y-99007691D01*
X123575750Y-92822607D01*
X123610000Y-92825980D01*
G37*
G04 #@! TD.AperFunction*
D22*
X171494047Y-92095286D02*
X171645443Y-92321866D01*
X171838134Y-92514557D01*
X172064714Y-92665953D01*
X172316477Y-92770237D01*
X172583747Y-92823400D01*
X172856253Y-92823400D01*
X173123523Y-92770237D01*
X173375286Y-92665953D01*
X173426451Y-92631766D01*
X173426451Y-94812368D01*
X173285750Y-94815000D01*
X173127000Y-94973750D01*
X173127000Y-96073000D01*
X173147000Y-96073000D01*
X173147000Y-96327000D01*
X173127000Y-96327000D01*
X173127000Y-97426250D01*
X173285750Y-97585000D01*
X173426451Y-97587632D01*
X173426450Y-112312368D01*
X173285750Y-112315000D01*
X173127000Y-112473750D01*
X173127000Y-113573000D01*
X173147000Y-113573000D01*
X173147000Y-113827000D01*
X173127000Y-113827000D01*
X173127000Y-114926250D01*
X173285750Y-115085000D01*
X173426450Y-115087632D01*
X173426450Y-117553234D01*
X173375286Y-117519047D01*
X173123523Y-117414763D01*
X172856253Y-117361600D01*
X172583747Y-117361600D01*
X172316477Y-117414763D01*
X172064714Y-117519047D01*
X171838134Y-117670443D01*
X171645443Y-117863134D01*
X171494047Y-118089714D01*
X171450000Y-118196053D01*
X171405953Y-118089714D01*
X171254557Y-117863134D01*
X171061866Y-117670443D01*
X170903900Y-117564893D01*
X170903900Y-117129556D01*
X170907402Y-117094000D01*
X170893425Y-116952090D01*
X170852032Y-116815635D01*
X170849546Y-116810984D01*
X170784813Y-116689877D01*
X170727741Y-116620335D01*
X170717016Y-116607267D01*
X170717015Y-116607266D01*
X170694350Y-116579649D01*
X170666734Y-116556985D01*
X169223900Y-115114152D01*
X169223900Y-114877330D01*
X169250000Y-114855910D01*
X169283824Y-114883669D01*
X169388781Y-114939769D01*
X169502665Y-114974315D01*
X169621100Y-114985980D01*
X170378900Y-114985980D01*
X170497335Y-114974315D01*
X170611219Y-114939769D01*
X170716176Y-114883669D01*
X170750000Y-114855910D01*
X170783824Y-114883669D01*
X170791600Y-114887826D01*
X170791600Y-114908373D01*
X170724981Y-114974992D01*
X170622832Y-115127869D01*
X170552470Y-115297737D01*
X170516600Y-115478068D01*
X170516600Y-115661932D01*
X170552470Y-115842263D01*
X170622832Y-116012131D01*
X170724981Y-116165008D01*
X170854992Y-116295019D01*
X171007869Y-116397168D01*
X171177737Y-116467530D01*
X171358068Y-116503400D01*
X171541932Y-116503400D01*
X171722263Y-116467530D01*
X171892131Y-116397168D01*
X172045008Y-116295019D01*
X172175019Y-116165008D01*
X172277168Y-116012131D01*
X172347530Y-115842263D01*
X172383400Y-115661932D01*
X172383400Y-115478068D01*
X172347530Y-115297737D01*
X172277168Y-115127869D01*
X172175019Y-114974992D01*
X172129842Y-114929815D01*
X172132179Y-114928566D01*
X172195506Y-114980537D01*
X172305820Y-115039502D01*
X172425518Y-115075812D01*
X172550000Y-115088072D01*
X172714250Y-115085000D01*
X172873000Y-114926250D01*
X172873000Y-113827000D01*
X172853000Y-113827000D01*
X172853000Y-113573000D01*
X172873000Y-113573000D01*
X172873000Y-112473750D01*
X172714250Y-112315000D01*
X172550000Y-112311928D01*
X172425518Y-112324188D01*
X172305820Y-112360498D01*
X172195506Y-112419463D01*
X172132179Y-112471434D01*
X172111219Y-112460231D01*
X171997335Y-112425685D01*
X171878900Y-112414020D01*
X171121100Y-112414020D01*
X171002665Y-112425685D01*
X170888781Y-112460231D01*
X170840400Y-112486091D01*
X170840400Y-112419627D01*
X170905019Y-112355008D01*
X171007168Y-112202131D01*
X171077530Y-112032263D01*
X171113400Y-111851932D01*
X171113400Y-111668068D01*
X171077530Y-111487737D01*
X171007168Y-111317869D01*
X170905019Y-111164992D01*
X170775008Y-111034981D01*
X170622131Y-110932832D01*
X170452263Y-110862470D01*
X170271932Y-110826600D01*
X170088068Y-110826600D01*
X169907737Y-110862470D01*
X169737869Y-110932832D01*
X169584992Y-111034981D01*
X169454981Y-111164992D01*
X169352832Y-111317869D01*
X169282470Y-111487737D01*
X169246600Y-111668068D01*
X169246600Y-111851932D01*
X169282470Y-112032263D01*
X169352832Y-112202131D01*
X169454981Y-112355008D01*
X169519600Y-112419627D01*
X169519600Y-112424017D01*
X169502665Y-112425685D01*
X169388781Y-112460231D01*
X169283824Y-112516331D01*
X169250000Y-112544090D01*
X169216176Y-112516331D01*
X169111219Y-112460231D01*
X168997335Y-112425685D01*
X168878900Y-112414020D01*
X168121100Y-112414020D01*
X168002665Y-112425685D01*
X167888781Y-112460231D01*
X167783824Y-112516331D01*
X167750000Y-112544090D01*
X167716176Y-112516331D01*
X167611219Y-112460231D01*
X167497335Y-112425685D01*
X167378900Y-112414020D01*
X166621100Y-112414020D01*
X166502665Y-112425685D01*
X166388781Y-112460231D01*
X166283824Y-112516331D01*
X166250000Y-112544090D01*
X166216176Y-112516331D01*
X166111219Y-112460231D01*
X165997335Y-112425685D01*
X165878900Y-112414020D01*
X165121100Y-112414020D01*
X165002665Y-112425685D01*
X164888781Y-112460231D01*
X164783824Y-112516331D01*
X164750000Y-112544090D01*
X164716176Y-112516331D01*
X164658400Y-112485449D01*
X164658400Y-111962327D01*
X164661584Y-111929999D01*
X164658400Y-111897671D01*
X164658400Y-111897662D01*
X164648873Y-111800931D01*
X164611225Y-111676822D01*
X164550088Y-111562443D01*
X164467811Y-111462189D01*
X164442693Y-111441575D01*
X163316857Y-110315740D01*
X163303910Y-110299964D01*
X162795918Y-109791972D01*
X162775233Y-109766767D01*
X162674674Y-109684241D01*
X162559947Y-109622918D01*
X162435461Y-109585156D01*
X162338439Y-109575600D01*
X162306000Y-109572405D01*
X162273561Y-109575600D01*
X153821627Y-109575600D01*
X153757008Y-109510981D01*
X153604131Y-109408832D01*
X153434263Y-109338470D01*
X153253932Y-109302600D01*
X153070068Y-109302600D01*
X152889737Y-109338470D01*
X152719869Y-109408832D01*
X152566992Y-109510981D01*
X152436981Y-109640992D01*
X152334832Y-109793869D01*
X152264470Y-109963737D01*
X152228600Y-110144068D01*
X152228600Y-110327932D01*
X152264470Y-110508263D01*
X152334832Y-110678131D01*
X152436981Y-110831008D01*
X152566992Y-110961019D01*
X152719869Y-111063168D01*
X152889737Y-111133530D01*
X153070068Y-111169400D01*
X153253932Y-111169400D01*
X153434263Y-111133530D01*
X153604131Y-111063168D01*
X153757008Y-110961019D01*
X153821627Y-110896400D01*
X162032454Y-110896400D01*
X162369964Y-111233910D01*
X162385740Y-111246857D01*
X162473483Y-111334600D01*
X162468068Y-111334600D01*
X162287737Y-111370470D01*
X162117869Y-111440832D01*
X161964992Y-111542981D01*
X161834981Y-111672992D01*
X161798000Y-111728338D01*
X161761019Y-111672992D01*
X161631008Y-111542981D01*
X161478131Y-111440832D01*
X161308263Y-111370470D01*
X161127932Y-111334600D01*
X160944068Y-111334600D01*
X160763737Y-111370470D01*
X160593869Y-111440832D01*
X160440992Y-111542981D01*
X160310981Y-111672992D01*
X160274000Y-111728338D01*
X160237019Y-111672992D01*
X160107008Y-111542981D01*
X159954131Y-111440832D01*
X159784263Y-111370470D01*
X159603932Y-111334600D01*
X159420068Y-111334600D01*
X159239737Y-111370470D01*
X159069869Y-111440832D01*
X158916992Y-111542981D01*
X158786981Y-111672992D01*
X158684832Y-111825869D01*
X158614470Y-111995737D01*
X158578600Y-112176068D01*
X158578600Y-112359932D01*
X158597737Y-112456141D01*
X158497335Y-112425685D01*
X158378900Y-112414020D01*
X157621100Y-112414020D01*
X157502665Y-112425685D01*
X157388781Y-112460231D01*
X157283824Y-112516331D01*
X157250000Y-112544090D01*
X157216176Y-112516331D01*
X157111219Y-112460231D01*
X156997335Y-112425685D01*
X156878900Y-112414020D01*
X156121100Y-112414020D01*
X156002665Y-112425685D01*
X155888781Y-112460231D01*
X155783824Y-112516331D01*
X155750000Y-112544090D01*
X155716176Y-112516331D01*
X155611219Y-112460231D01*
X155497335Y-112425685D01*
X155378900Y-112414020D01*
X154621100Y-112414020D01*
X154502665Y-112425685D01*
X154388781Y-112460231D01*
X154283824Y-112516331D01*
X154250000Y-112544090D01*
X154216176Y-112516331D01*
X154111219Y-112460231D01*
X153997335Y-112425685D01*
X153878900Y-112414020D01*
X153121100Y-112414020D01*
X153002665Y-112425685D01*
X152888781Y-112460231D01*
X152783824Y-112516331D01*
X152750000Y-112544090D01*
X152716176Y-112516331D01*
X152611219Y-112460231D01*
X152497335Y-112425685D01*
X152378900Y-112414020D01*
X151621100Y-112414020D01*
X151502665Y-112425685D01*
X151388781Y-112460231D01*
X151283824Y-112516331D01*
X151250000Y-112544090D01*
X151216176Y-112516331D01*
X151111219Y-112460231D01*
X151062152Y-112445347D01*
X151089502Y-112394180D01*
X151125812Y-112274482D01*
X151138072Y-112150000D01*
X151135000Y-111985750D01*
X150976250Y-111827000D01*
X149877000Y-111827000D01*
X149877000Y-111847000D01*
X149623000Y-111847000D01*
X149623000Y-111827000D01*
X148523750Y-111827000D01*
X148365000Y-111985750D01*
X148363088Y-112088004D01*
X148351812Y-111973518D01*
X148315502Y-111853820D01*
X148256537Y-111743506D01*
X148238932Y-111722055D01*
X148323674Y-111676759D01*
X148424233Y-111594233D01*
X148444918Y-111569028D01*
X148482348Y-111531598D01*
X148523750Y-111573000D01*
X149623000Y-111573000D01*
X149623000Y-111553000D01*
X149877000Y-111553000D01*
X149877000Y-111573000D01*
X150976250Y-111573000D01*
X151135000Y-111414250D01*
X151138072Y-111250000D01*
X151125812Y-111125518D01*
X151089502Y-111005820D01*
X151030537Y-110895506D01*
X150978566Y-110832179D01*
X150989769Y-110811219D01*
X151024315Y-110697335D01*
X151035980Y-110578900D01*
X151035980Y-109821100D01*
X151024315Y-109702665D01*
X150989769Y-109588781D01*
X150933669Y-109483824D01*
X150905910Y-109450000D01*
X150933669Y-109416176D01*
X150989769Y-109311219D01*
X151024315Y-109197335D01*
X151035980Y-109078900D01*
X151035980Y-108321100D01*
X151024315Y-108202665D01*
X150989769Y-108088781D01*
X150933669Y-107983824D01*
X150905910Y-107950000D01*
X150933669Y-107916176D01*
X150989769Y-107811219D01*
X151024315Y-107697335D01*
X151035980Y-107578900D01*
X151035980Y-106821100D01*
X151024315Y-106702665D01*
X150989769Y-106588781D01*
X150933669Y-106483824D01*
X150905910Y-106450000D01*
X150933669Y-106416176D01*
X150938741Y-106406687D01*
X151212600Y-106680547D01*
X151212600Y-106771932D01*
X151248470Y-106952263D01*
X151318832Y-107122131D01*
X151420981Y-107275008D01*
X151550992Y-107405019D01*
X151703869Y-107507168D01*
X151873737Y-107577530D01*
X152054068Y-107613400D01*
X152237932Y-107613400D01*
X152418263Y-107577530D01*
X152588131Y-107507168D01*
X152741008Y-107405019D01*
X152871019Y-107275008D01*
X152973168Y-107122131D01*
X153043530Y-106952263D01*
X153079400Y-106771932D01*
X153079400Y-106588068D01*
X153043530Y-106407737D01*
X152973168Y-106237869D01*
X152871019Y-106084992D01*
X152741008Y-105954981D01*
X152598859Y-105860000D01*
X162236928Y-105860000D01*
X162249188Y-105984482D01*
X162285498Y-106104180D01*
X162344463Y-106214494D01*
X162423815Y-106311185D01*
X162520506Y-106390537D01*
X162630820Y-106449502D01*
X162750518Y-106485812D01*
X162875000Y-106498072D01*
X163139250Y-106495000D01*
X163298000Y-106336250D01*
X163298000Y-105437000D01*
X162398750Y-105437000D01*
X162240000Y-105595750D01*
X162236928Y-105860000D01*
X152598859Y-105860000D01*
X152588131Y-105852832D01*
X152418263Y-105782470D01*
X152237932Y-105746600D01*
X152146547Y-105746600D01*
X151655918Y-105255972D01*
X151635233Y-105230767D01*
X151610028Y-105210082D01*
X151574035Y-105174089D01*
X151524455Y-105133400D01*
X151669932Y-105133400D01*
X151850263Y-105097530D01*
X152020131Y-105027168D01*
X152173008Y-104925019D01*
X152303019Y-104795008D01*
X152405168Y-104642131D01*
X152475530Y-104472263D01*
X152511400Y-104291932D01*
X152511400Y-104108068D01*
X152475530Y-103927737D01*
X152405168Y-103757869D01*
X152316002Y-103624423D01*
X152360008Y-103595019D01*
X152490019Y-103465008D01*
X152592168Y-103312131D01*
X152662530Y-103142263D01*
X152698400Y-102961932D01*
X152698400Y-102778068D01*
X152662530Y-102597737D01*
X152632016Y-102524068D01*
X152736600Y-102524068D01*
X152736600Y-102707932D01*
X152772470Y-102888263D01*
X152842832Y-103058131D01*
X152944981Y-103211008D01*
X153074992Y-103341019D01*
X153227869Y-103443168D01*
X153397737Y-103513530D01*
X153578068Y-103549400D01*
X153761932Y-103549400D01*
X153942263Y-103513530D01*
X154112131Y-103443168D01*
X154265008Y-103341019D01*
X154329627Y-103276400D01*
X158971561Y-103276400D01*
X159004000Y-103279595D01*
X159036439Y-103276400D01*
X159133461Y-103266844D01*
X159257947Y-103229082D01*
X159372674Y-103167759D01*
X159473233Y-103085233D01*
X159493918Y-103060028D01*
X159512546Y-103041400D01*
X159603932Y-103041400D01*
X159784263Y-103005530D01*
X159954131Y-102935168D01*
X160066628Y-102860000D01*
X162236928Y-102860000D01*
X162249188Y-102984482D01*
X162272096Y-103060000D01*
X162249188Y-103135518D01*
X162236928Y-103260000D01*
X162240000Y-103524250D01*
X162398750Y-103683000D01*
X163091307Y-103683000D01*
X163134605Y-103711931D01*
X163268075Y-103767216D01*
X163409766Y-103795400D01*
X163459800Y-103795400D01*
X163459800Y-103801800D01*
X163409766Y-103801800D01*
X163268075Y-103829984D01*
X163134605Y-103885269D01*
X163057184Y-103937000D01*
X162398750Y-103937000D01*
X162240000Y-104095750D01*
X162236928Y-104360000D01*
X162249188Y-104484482D01*
X162272096Y-104560000D01*
X162249188Y-104635518D01*
X162236928Y-104760000D01*
X162240000Y-105024250D01*
X162398750Y-105183000D01*
X163131416Y-105183000D01*
X163134605Y-105185131D01*
X163268075Y-105240416D01*
X163409766Y-105268600D01*
X163459800Y-105268600D01*
X163459800Y-105369434D01*
X163487984Y-105511125D01*
X163543269Y-105644595D01*
X163552000Y-105657662D01*
X163552000Y-106336250D01*
X163710750Y-106495000D01*
X163975000Y-106498072D01*
X164099482Y-106485812D01*
X164175000Y-106462904D01*
X164250518Y-106485812D01*
X164375000Y-106498072D01*
X164639250Y-106495000D01*
X164798000Y-106336250D01*
X164798000Y-105712138D01*
X164843131Y-105644595D01*
X164898416Y-105511125D01*
X164926600Y-105369434D01*
X164926600Y-105317975D01*
X164933000Y-105319248D01*
X164933000Y-105369434D01*
X164961184Y-105511125D01*
X165016469Y-105644595D01*
X165052000Y-105697771D01*
X165052000Y-106336250D01*
X165210750Y-106495000D01*
X165475000Y-106498072D01*
X165599482Y-106485812D01*
X165675000Y-106462904D01*
X165750518Y-106485812D01*
X165875000Y-106498072D01*
X166139250Y-106495000D01*
X166298000Y-106336250D01*
X166298000Y-105672029D01*
X166316331Y-105644595D01*
X166371616Y-105511125D01*
X166386360Y-105437000D01*
X166552000Y-105437000D01*
X166552000Y-106336250D01*
X166710750Y-106495000D01*
X166975000Y-106498072D01*
X167099482Y-106485812D01*
X167219180Y-106449502D01*
X167329494Y-106390537D01*
X167426185Y-106311185D01*
X167505537Y-106214494D01*
X167564502Y-106104180D01*
X167600812Y-105984482D01*
X167613072Y-105860000D01*
X167610000Y-105595750D01*
X167451250Y-105437000D01*
X166552000Y-105437000D01*
X166386360Y-105437000D01*
X166399800Y-105369434D01*
X166399800Y-105317975D01*
X166406966Y-105319400D01*
X166551434Y-105319400D01*
X166693125Y-105291216D01*
X166826595Y-105235931D01*
X166905811Y-105183000D01*
X167451250Y-105183000D01*
X167610000Y-105024250D01*
X167613072Y-104760000D01*
X167600812Y-104635518D01*
X167577904Y-104560000D01*
X167600812Y-104484482D01*
X167613072Y-104360000D01*
X167610000Y-104095750D01*
X167451250Y-103937000D01*
X166827988Y-103937000D01*
X166826595Y-103936069D01*
X166693125Y-103880784D01*
X166551434Y-103852600D01*
X166406966Y-103852600D01*
X166399800Y-103854025D01*
X166399800Y-103793975D01*
X166406966Y-103795400D01*
X166551434Y-103795400D01*
X166693125Y-103767216D01*
X166826595Y-103711931D01*
X166869893Y-103683000D01*
X167451250Y-103683000D01*
X167610000Y-103524250D01*
X167613072Y-103260000D01*
X167600812Y-103135518D01*
X167577904Y-103060000D01*
X167600812Y-102984482D01*
X167613072Y-102860000D01*
X167610000Y-102595750D01*
X167451250Y-102437000D01*
X166863907Y-102437000D01*
X166826595Y-102412069D01*
X166693125Y-102356784D01*
X166551434Y-102328600D01*
X166406966Y-102328600D01*
X166399800Y-102330025D01*
X166399800Y-102227766D01*
X166371616Y-102086075D01*
X166316331Y-101952605D01*
X166298000Y-101925171D01*
X166298000Y-101283750D01*
X166552000Y-101283750D01*
X166552000Y-102183000D01*
X167451250Y-102183000D01*
X167610000Y-102024250D01*
X167613072Y-101760000D01*
X167600812Y-101635518D01*
X167564502Y-101515820D01*
X167505537Y-101405506D01*
X167426185Y-101308815D01*
X167329494Y-101229463D01*
X167219180Y-101170498D01*
X167099482Y-101134188D01*
X166975000Y-101121928D01*
X166710750Y-101125000D01*
X166552000Y-101283750D01*
X166298000Y-101283750D01*
X166139250Y-101125000D01*
X165875000Y-101121928D01*
X165750518Y-101134188D01*
X165675000Y-101157096D01*
X165599482Y-101134188D01*
X165475000Y-101121928D01*
X165210750Y-101125000D01*
X165052000Y-101283750D01*
X165052000Y-101899429D01*
X165016469Y-101952605D01*
X164961184Y-102086075D01*
X164933000Y-102227766D01*
X164933000Y-102328600D01*
X164926600Y-102328600D01*
X164926600Y-102227766D01*
X164898416Y-102086075D01*
X164843131Y-101952605D01*
X164798000Y-101885062D01*
X164798000Y-101283750D01*
X164639250Y-101125000D01*
X164375000Y-101121928D01*
X164250518Y-101134188D01*
X164175000Y-101157096D01*
X164099482Y-101134188D01*
X163975000Y-101121928D01*
X163710750Y-101125000D01*
X163552000Y-101283750D01*
X163552000Y-101939538D01*
X163543269Y-101952605D01*
X163487984Y-102086075D01*
X163459800Y-102227766D01*
X163459800Y-102328600D01*
X163409766Y-102328600D01*
X163268075Y-102356784D01*
X163134605Y-102412069D01*
X163097293Y-102437000D01*
X162398750Y-102437000D01*
X162240000Y-102595750D01*
X162236928Y-102860000D01*
X160066628Y-102860000D01*
X160107008Y-102833019D01*
X160237019Y-102703008D01*
X160339168Y-102550131D01*
X160409530Y-102380263D01*
X160445400Y-102199932D01*
X160445400Y-102016068D01*
X160409530Y-101835737D01*
X160378159Y-101760000D01*
X162236928Y-101760000D01*
X162240000Y-102024250D01*
X162398750Y-102183000D01*
X163298000Y-102183000D01*
X163298000Y-101283750D01*
X163139250Y-101125000D01*
X162875000Y-101121928D01*
X162750518Y-101134188D01*
X162630820Y-101170498D01*
X162520506Y-101229463D01*
X162423815Y-101308815D01*
X162344463Y-101405506D01*
X162285498Y-101515820D01*
X162249188Y-101635518D01*
X162236928Y-101760000D01*
X160378159Y-101760000D01*
X160339168Y-101665869D01*
X160237019Y-101512992D01*
X160107008Y-101382981D01*
X159954131Y-101280832D01*
X159784263Y-101210470D01*
X159603932Y-101174600D01*
X159420068Y-101174600D01*
X159239737Y-101210470D01*
X159069869Y-101280832D01*
X158916992Y-101382981D01*
X158786981Y-101512992D01*
X158684832Y-101665869D01*
X158614470Y-101835737D01*
X158590628Y-101955600D01*
X154329627Y-101955600D01*
X154265008Y-101890981D01*
X154112131Y-101788832D01*
X153942263Y-101718470D01*
X153761932Y-101682600D01*
X153578068Y-101682600D01*
X153397737Y-101718470D01*
X153227869Y-101788832D01*
X153074992Y-101890981D01*
X152944981Y-102020992D01*
X152842832Y-102173869D01*
X152772470Y-102343737D01*
X152736600Y-102524068D01*
X152632016Y-102524068D01*
X152592168Y-102427869D01*
X152490019Y-102274992D01*
X152360008Y-102144981D01*
X152207131Y-102042832D01*
X152037263Y-101972470D01*
X151856932Y-101936600D01*
X151673068Y-101936600D01*
X151492737Y-101972470D01*
X151322869Y-102042832D01*
X151169992Y-102144981D01*
X151103373Y-102211600D01*
X151025195Y-102211600D01*
X151024315Y-102202665D01*
X150989769Y-102088781D01*
X150933669Y-101983824D01*
X150905910Y-101950000D01*
X150933669Y-101916176D01*
X150964551Y-101858400D01*
X151482766Y-101858400D01*
X151492737Y-101862530D01*
X151673068Y-101898400D01*
X151856932Y-101898400D01*
X152037263Y-101862530D01*
X152207131Y-101792168D01*
X152360008Y-101690019D01*
X152490019Y-101560008D01*
X152592168Y-101407131D01*
X152662530Y-101237263D01*
X152698400Y-101056932D01*
X152698400Y-100873068D01*
X152662530Y-100692737D01*
X152592168Y-100522869D01*
X152490019Y-100369992D01*
X152360008Y-100239981D01*
X152207131Y-100137832D01*
X152037263Y-100067470D01*
X151856932Y-100031600D01*
X151724517Y-100031600D01*
X152207694Y-99548424D01*
X152232811Y-99527811D01*
X152299278Y-99446822D01*
X152315088Y-99427557D01*
X152376225Y-99313178D01*
X152413873Y-99189069D01*
X152414562Y-99182072D01*
X152423400Y-99092338D01*
X152423400Y-99092331D01*
X152424023Y-99086004D01*
X152490019Y-99020008D01*
X152592168Y-98867131D01*
X152662530Y-98697263D01*
X152698400Y-98516932D01*
X152698400Y-98333068D01*
X152662530Y-98152737D01*
X152592168Y-97982869D01*
X152490019Y-97829992D01*
X152360008Y-97699981D01*
X152207131Y-97597832D01*
X152037263Y-97527470D01*
X151856932Y-97491600D01*
X151673068Y-97491600D01*
X151492737Y-97527470D01*
X151322869Y-97597832D01*
X151169992Y-97699981D01*
X151039981Y-97829992D01*
X151035980Y-97835980D01*
X151035980Y-97821100D01*
X151024315Y-97702665D01*
X150989769Y-97588781D01*
X150933669Y-97483824D01*
X150931210Y-97480828D01*
X150997335Y-97474315D01*
X151111219Y-97439769D01*
X151216176Y-97383669D01*
X151250000Y-97355910D01*
X151283824Y-97383669D01*
X151388781Y-97439769D01*
X151502665Y-97474315D01*
X151621100Y-97485980D01*
X152378900Y-97485980D01*
X152497335Y-97474315D01*
X152611219Y-97439769D01*
X152716176Y-97383669D01*
X152750000Y-97355910D01*
X152783824Y-97383669D01*
X152888781Y-97439769D01*
X153002665Y-97474315D01*
X153121100Y-97485980D01*
X153878900Y-97485980D01*
X153997335Y-97474315D01*
X154111219Y-97439769D01*
X154216176Y-97383669D01*
X154250000Y-97355910D01*
X154283824Y-97383669D01*
X154388781Y-97439769D01*
X154502665Y-97474315D01*
X154621100Y-97485980D01*
X155378900Y-97485980D01*
X155497335Y-97474315D01*
X155611219Y-97439769D01*
X155716176Y-97383669D01*
X155750000Y-97355910D01*
X155783824Y-97383669D01*
X155888781Y-97439769D01*
X156002665Y-97474315D01*
X156121100Y-97485980D01*
X156878900Y-97485980D01*
X156997335Y-97474315D01*
X157111219Y-97439769D01*
X157216176Y-97383669D01*
X157250000Y-97355910D01*
X157283824Y-97383669D01*
X157388781Y-97439769D01*
X157502665Y-97474315D01*
X157621100Y-97485980D01*
X158378900Y-97485980D01*
X158497335Y-97474315D01*
X158611219Y-97439769D01*
X158716176Y-97383669D01*
X158750000Y-97355910D01*
X158783824Y-97383669D01*
X158888781Y-97439769D01*
X159002665Y-97474315D01*
X159121100Y-97485980D01*
X159878900Y-97485980D01*
X159997335Y-97474315D01*
X160111219Y-97439769D01*
X160216176Y-97383669D01*
X160250000Y-97355910D01*
X160283824Y-97383669D01*
X160388781Y-97439769D01*
X160502665Y-97474315D01*
X160621100Y-97485980D01*
X161378900Y-97485980D01*
X161497335Y-97474315D01*
X161611219Y-97439769D01*
X161716176Y-97383669D01*
X161750000Y-97355910D01*
X161783824Y-97383669D01*
X161888781Y-97439769D01*
X162002665Y-97474315D01*
X162121100Y-97485980D01*
X162878900Y-97485980D01*
X162997335Y-97474315D01*
X163111219Y-97439769D01*
X163216176Y-97383669D01*
X163250000Y-97355910D01*
X163283824Y-97383669D01*
X163388781Y-97439769D01*
X163502665Y-97474315D01*
X163621100Y-97485980D01*
X164378900Y-97485980D01*
X164497335Y-97474315D01*
X164611219Y-97439769D01*
X164716176Y-97383669D01*
X164750000Y-97355910D01*
X164783824Y-97383669D01*
X164888781Y-97439769D01*
X165002665Y-97474315D01*
X165121100Y-97485980D01*
X165878900Y-97485980D01*
X165997335Y-97474315D01*
X166111219Y-97439769D01*
X166216176Y-97383669D01*
X166250000Y-97355910D01*
X166283824Y-97383669D01*
X166388781Y-97439769D01*
X166502665Y-97474315D01*
X166621100Y-97485980D01*
X167378900Y-97485980D01*
X167497335Y-97474315D01*
X167611219Y-97439769D01*
X167716176Y-97383669D01*
X167750000Y-97355910D01*
X167776101Y-97377331D01*
X167776101Y-97729172D01*
X167758470Y-97771737D01*
X167722600Y-97952068D01*
X167722600Y-98135932D01*
X167758470Y-98316263D01*
X167828832Y-98486131D01*
X167930981Y-98639008D01*
X168060992Y-98769019D01*
X168213869Y-98871168D01*
X168383737Y-98941530D01*
X168564068Y-98977400D01*
X168747932Y-98977400D01*
X168928263Y-98941530D01*
X169098131Y-98871168D01*
X169251008Y-98769019D01*
X169381019Y-98639008D01*
X169418000Y-98583662D01*
X169454981Y-98639008D01*
X169584992Y-98769019D01*
X169737869Y-98871168D01*
X169907737Y-98941530D01*
X170088068Y-98977400D01*
X170271932Y-98977400D01*
X170452263Y-98941530D01*
X170622131Y-98871168D01*
X170775008Y-98769019D01*
X170905019Y-98639008D01*
X171007168Y-98486131D01*
X171077530Y-98316263D01*
X171113400Y-98135932D01*
X171113400Y-97952068D01*
X171077530Y-97771737D01*
X171007168Y-97601869D01*
X170905019Y-97448992D01*
X170898851Y-97442824D01*
X171002665Y-97474315D01*
X171121100Y-97485980D01*
X171878900Y-97485980D01*
X171997335Y-97474315D01*
X172111219Y-97439769D01*
X172132179Y-97428566D01*
X172195506Y-97480537D01*
X172305820Y-97539502D01*
X172425518Y-97575812D01*
X172550000Y-97588072D01*
X172714250Y-97585000D01*
X172873000Y-97426250D01*
X172873000Y-96327000D01*
X172853000Y-96327000D01*
X172853000Y-96073000D01*
X172873000Y-96073000D01*
X172873000Y-94973750D01*
X172714250Y-94815000D01*
X172550000Y-94811928D01*
X172425518Y-94824188D01*
X172305820Y-94860498D01*
X172287400Y-94870344D01*
X172287400Y-94576665D01*
X172291208Y-94538000D01*
X172287400Y-94499335D01*
X172287400Y-94499327D01*
X172276006Y-94383643D01*
X172230982Y-94235217D01*
X172222465Y-94219283D01*
X172157866Y-94098427D01*
X172084122Y-94008570D01*
X172084119Y-94008567D01*
X172059469Y-93978531D01*
X172029434Y-93953882D01*
X171462627Y-93387077D01*
X171437969Y-93357031D01*
X171318072Y-93258634D01*
X171181283Y-93185518D01*
X171032857Y-93140494D01*
X170917173Y-93129100D01*
X170917163Y-93129100D01*
X170878500Y-93125292D01*
X170839837Y-93129100D01*
X169157648Y-93129100D01*
X169098131Y-93089332D01*
X168928263Y-93018970D01*
X168747932Y-92983100D01*
X168564068Y-92983100D01*
X168383737Y-93018970D01*
X168213869Y-93089332D01*
X168060992Y-93191481D01*
X167930981Y-93321492D01*
X167828832Y-93474369D01*
X167758470Y-93644237D01*
X167723900Y-93818032D01*
X167723900Y-93294248D01*
X168126729Y-92891419D01*
X168154351Y-92868751D01*
X168244813Y-92758523D01*
X168294010Y-92666481D01*
X168295286Y-92665953D01*
X168521866Y-92514557D01*
X168714557Y-92321866D01*
X168865953Y-92095286D01*
X168910000Y-91988947D01*
X168954047Y-92095286D01*
X169105443Y-92321866D01*
X169298134Y-92514557D01*
X169524714Y-92665953D01*
X169776477Y-92770237D01*
X170043747Y-92823400D01*
X170316253Y-92823400D01*
X170583523Y-92770237D01*
X170835286Y-92665953D01*
X171061866Y-92514557D01*
X171254557Y-92321866D01*
X171405953Y-92095286D01*
X171450000Y-91988947D01*
X171494047Y-92095286D01*
G04 #@! TA.AperFunction,Conductor*
D26*
G36*
X171494047Y-92095286D02*
G01*
X171645443Y-92321866D01*
X171838134Y-92514557D01*
X172064714Y-92665953D01*
X172316477Y-92770237D01*
X172583747Y-92823400D01*
X172856253Y-92823400D01*
X173123523Y-92770237D01*
X173375286Y-92665953D01*
X173426451Y-92631766D01*
X173426451Y-94812368D01*
X173285750Y-94815000D01*
X173127000Y-94973750D01*
X173127000Y-96073000D01*
X173147000Y-96073000D01*
X173147000Y-96327000D01*
X173127000Y-96327000D01*
X173127000Y-97426250D01*
X173285750Y-97585000D01*
X173426451Y-97587632D01*
X173426450Y-112312368D01*
X173285750Y-112315000D01*
X173127000Y-112473750D01*
X173127000Y-113573000D01*
X173147000Y-113573000D01*
X173147000Y-113827000D01*
X173127000Y-113827000D01*
X173127000Y-114926250D01*
X173285750Y-115085000D01*
X173426450Y-115087632D01*
X173426450Y-117553234D01*
X173375286Y-117519047D01*
X173123523Y-117414763D01*
X172856253Y-117361600D01*
X172583747Y-117361600D01*
X172316477Y-117414763D01*
X172064714Y-117519047D01*
X171838134Y-117670443D01*
X171645443Y-117863134D01*
X171494047Y-118089714D01*
X171450000Y-118196053D01*
X171405953Y-118089714D01*
X171254557Y-117863134D01*
X171061866Y-117670443D01*
X170903900Y-117564893D01*
X170903900Y-117129556D01*
X170907402Y-117094000D01*
X170893425Y-116952090D01*
X170852032Y-116815635D01*
X170849546Y-116810984D01*
X170784813Y-116689877D01*
X170727741Y-116620335D01*
X170717016Y-116607267D01*
X170717015Y-116607266D01*
X170694350Y-116579649D01*
X170666734Y-116556985D01*
X169223900Y-115114152D01*
X169223900Y-114877330D01*
X169250000Y-114855910D01*
X169283824Y-114883669D01*
X169388781Y-114939769D01*
X169502665Y-114974315D01*
X169621100Y-114985980D01*
X170378900Y-114985980D01*
X170497335Y-114974315D01*
X170611219Y-114939769D01*
X170716176Y-114883669D01*
X170750000Y-114855910D01*
X170783824Y-114883669D01*
X170791600Y-114887826D01*
X170791600Y-114908373D01*
X170724981Y-114974992D01*
X170622832Y-115127869D01*
X170552470Y-115297737D01*
X170516600Y-115478068D01*
X170516600Y-115661932D01*
X170552470Y-115842263D01*
X170622832Y-116012131D01*
X170724981Y-116165008D01*
X170854992Y-116295019D01*
X171007869Y-116397168D01*
X171177737Y-116467530D01*
X171358068Y-116503400D01*
X171541932Y-116503400D01*
X171722263Y-116467530D01*
X171892131Y-116397168D01*
X172045008Y-116295019D01*
X172175019Y-116165008D01*
X172277168Y-116012131D01*
X172347530Y-115842263D01*
X172383400Y-115661932D01*
X172383400Y-115478068D01*
X172347530Y-115297737D01*
X172277168Y-115127869D01*
X172175019Y-114974992D01*
X172129842Y-114929815D01*
X172132179Y-114928566D01*
X172195506Y-114980537D01*
X172305820Y-115039502D01*
X172425518Y-115075812D01*
X172550000Y-115088072D01*
X172714250Y-115085000D01*
X172873000Y-114926250D01*
X172873000Y-113827000D01*
X172853000Y-113827000D01*
X172853000Y-113573000D01*
X172873000Y-113573000D01*
X172873000Y-112473750D01*
X172714250Y-112315000D01*
X172550000Y-112311928D01*
X172425518Y-112324188D01*
X172305820Y-112360498D01*
X172195506Y-112419463D01*
X172132179Y-112471434D01*
X172111219Y-112460231D01*
X171997335Y-112425685D01*
X171878900Y-112414020D01*
X171121100Y-112414020D01*
X171002665Y-112425685D01*
X170888781Y-112460231D01*
X170840400Y-112486091D01*
X170840400Y-112419627D01*
X170905019Y-112355008D01*
X171007168Y-112202131D01*
X171077530Y-112032263D01*
X171113400Y-111851932D01*
X171113400Y-111668068D01*
X171077530Y-111487737D01*
X171007168Y-111317869D01*
X170905019Y-111164992D01*
X170775008Y-111034981D01*
X170622131Y-110932832D01*
X170452263Y-110862470D01*
X170271932Y-110826600D01*
X170088068Y-110826600D01*
X169907737Y-110862470D01*
X169737869Y-110932832D01*
X169584992Y-111034981D01*
X169454981Y-111164992D01*
X169352832Y-111317869D01*
X169282470Y-111487737D01*
X169246600Y-111668068D01*
X169246600Y-111851932D01*
X169282470Y-112032263D01*
X169352832Y-112202131D01*
X169454981Y-112355008D01*
X169519600Y-112419627D01*
X169519600Y-112424017D01*
X169502665Y-112425685D01*
X169388781Y-112460231D01*
X169283824Y-112516331D01*
X169250000Y-112544090D01*
X169216176Y-112516331D01*
X169111219Y-112460231D01*
X168997335Y-112425685D01*
X168878900Y-112414020D01*
X168121100Y-112414020D01*
X168002665Y-112425685D01*
X167888781Y-112460231D01*
X167783824Y-112516331D01*
X167750000Y-112544090D01*
X167716176Y-112516331D01*
X167611219Y-112460231D01*
X167497335Y-112425685D01*
X167378900Y-112414020D01*
X166621100Y-112414020D01*
X166502665Y-112425685D01*
X166388781Y-112460231D01*
X166283824Y-112516331D01*
X166250000Y-112544090D01*
X166216176Y-112516331D01*
X166111219Y-112460231D01*
X165997335Y-112425685D01*
X165878900Y-112414020D01*
X165121100Y-112414020D01*
X165002665Y-112425685D01*
X164888781Y-112460231D01*
X164783824Y-112516331D01*
X164750000Y-112544090D01*
X164716176Y-112516331D01*
X164658400Y-112485449D01*
X164658400Y-111962327D01*
X164661584Y-111929999D01*
X164658400Y-111897671D01*
X164658400Y-111897662D01*
X164648873Y-111800931D01*
X164611225Y-111676822D01*
X164550088Y-111562443D01*
X164467811Y-111462189D01*
X164442693Y-111441575D01*
X163316857Y-110315740D01*
X163303910Y-110299964D01*
X162795918Y-109791972D01*
X162775233Y-109766767D01*
X162674674Y-109684241D01*
X162559947Y-109622918D01*
X162435461Y-109585156D01*
X162338439Y-109575600D01*
X162306000Y-109572405D01*
X162273561Y-109575600D01*
X153821627Y-109575600D01*
X153757008Y-109510981D01*
X153604131Y-109408832D01*
X153434263Y-109338470D01*
X153253932Y-109302600D01*
X153070068Y-109302600D01*
X152889737Y-109338470D01*
X152719869Y-109408832D01*
X152566992Y-109510981D01*
X152436981Y-109640992D01*
X152334832Y-109793869D01*
X152264470Y-109963737D01*
X152228600Y-110144068D01*
X152228600Y-110327932D01*
X152264470Y-110508263D01*
X152334832Y-110678131D01*
X152436981Y-110831008D01*
X152566992Y-110961019D01*
X152719869Y-111063168D01*
X152889737Y-111133530D01*
X153070068Y-111169400D01*
X153253932Y-111169400D01*
X153434263Y-111133530D01*
X153604131Y-111063168D01*
X153757008Y-110961019D01*
X153821627Y-110896400D01*
X162032454Y-110896400D01*
X162369964Y-111233910D01*
X162385740Y-111246857D01*
X162473483Y-111334600D01*
X162468068Y-111334600D01*
X162287737Y-111370470D01*
X162117869Y-111440832D01*
X161964992Y-111542981D01*
X161834981Y-111672992D01*
X161798000Y-111728338D01*
X161761019Y-111672992D01*
X161631008Y-111542981D01*
X161478131Y-111440832D01*
X161308263Y-111370470D01*
X161127932Y-111334600D01*
X160944068Y-111334600D01*
X160763737Y-111370470D01*
X160593869Y-111440832D01*
X160440992Y-111542981D01*
X160310981Y-111672992D01*
X160274000Y-111728338D01*
X160237019Y-111672992D01*
X160107008Y-111542981D01*
X159954131Y-111440832D01*
X159784263Y-111370470D01*
X159603932Y-111334600D01*
X159420068Y-111334600D01*
X159239737Y-111370470D01*
X159069869Y-111440832D01*
X158916992Y-111542981D01*
X158786981Y-111672992D01*
X158684832Y-111825869D01*
X158614470Y-111995737D01*
X158578600Y-112176068D01*
X158578600Y-112359932D01*
X158597737Y-112456141D01*
X158497335Y-112425685D01*
X158378900Y-112414020D01*
X157621100Y-112414020D01*
X157502665Y-112425685D01*
X157388781Y-112460231D01*
X157283824Y-112516331D01*
X157250000Y-112544090D01*
X157216176Y-112516331D01*
X157111219Y-112460231D01*
X156997335Y-112425685D01*
X156878900Y-112414020D01*
X156121100Y-112414020D01*
X156002665Y-112425685D01*
X155888781Y-112460231D01*
X155783824Y-112516331D01*
X155750000Y-112544090D01*
X155716176Y-112516331D01*
X155611219Y-112460231D01*
X155497335Y-112425685D01*
X155378900Y-112414020D01*
X154621100Y-112414020D01*
X154502665Y-112425685D01*
X154388781Y-112460231D01*
X154283824Y-112516331D01*
X154250000Y-112544090D01*
X154216176Y-112516331D01*
X154111219Y-112460231D01*
X153997335Y-112425685D01*
X153878900Y-112414020D01*
X153121100Y-112414020D01*
X153002665Y-112425685D01*
X152888781Y-112460231D01*
X152783824Y-112516331D01*
X152750000Y-112544090D01*
X152716176Y-112516331D01*
X152611219Y-112460231D01*
X152497335Y-112425685D01*
X152378900Y-112414020D01*
X151621100Y-112414020D01*
X151502665Y-112425685D01*
X151388781Y-112460231D01*
X151283824Y-112516331D01*
X151250000Y-112544090D01*
X151216176Y-112516331D01*
X151111219Y-112460231D01*
X151062152Y-112445347D01*
X151089502Y-112394180D01*
X151125812Y-112274482D01*
X151138072Y-112150000D01*
X151135000Y-111985750D01*
X150976250Y-111827000D01*
X149877000Y-111827000D01*
X149877000Y-111847000D01*
X149623000Y-111847000D01*
X149623000Y-111827000D01*
X148523750Y-111827000D01*
X148365000Y-111985750D01*
X148363088Y-112088004D01*
X148351812Y-111973518D01*
X148315502Y-111853820D01*
X148256537Y-111743506D01*
X148238932Y-111722055D01*
X148323674Y-111676759D01*
X148424233Y-111594233D01*
X148444918Y-111569028D01*
X148482348Y-111531598D01*
X148523750Y-111573000D01*
X149623000Y-111573000D01*
X149623000Y-111553000D01*
X149877000Y-111553000D01*
X149877000Y-111573000D01*
X150976250Y-111573000D01*
X151135000Y-111414250D01*
X151138072Y-111250000D01*
X151125812Y-111125518D01*
X151089502Y-111005820D01*
X151030537Y-110895506D01*
X150978566Y-110832179D01*
X150989769Y-110811219D01*
X151024315Y-110697335D01*
X151035980Y-110578900D01*
X151035980Y-109821100D01*
X151024315Y-109702665D01*
X150989769Y-109588781D01*
X150933669Y-109483824D01*
X150905910Y-109450000D01*
X150933669Y-109416176D01*
X150989769Y-109311219D01*
X151024315Y-109197335D01*
X151035980Y-109078900D01*
X151035980Y-108321100D01*
X151024315Y-108202665D01*
X150989769Y-108088781D01*
X150933669Y-107983824D01*
X150905910Y-107950000D01*
X150933669Y-107916176D01*
X150989769Y-107811219D01*
X151024315Y-107697335D01*
X151035980Y-107578900D01*
X151035980Y-106821100D01*
X151024315Y-106702665D01*
X150989769Y-106588781D01*
X150933669Y-106483824D01*
X150905910Y-106450000D01*
X150933669Y-106416176D01*
X150938741Y-106406687D01*
X151212600Y-106680547D01*
X151212600Y-106771932D01*
X151248470Y-106952263D01*
X151318832Y-107122131D01*
X151420981Y-107275008D01*
X151550992Y-107405019D01*
X151703869Y-107507168D01*
X151873737Y-107577530D01*
X152054068Y-107613400D01*
X152237932Y-107613400D01*
X152418263Y-107577530D01*
X152588131Y-107507168D01*
X152741008Y-107405019D01*
X152871019Y-107275008D01*
X152973168Y-107122131D01*
X153043530Y-106952263D01*
X153079400Y-106771932D01*
X153079400Y-106588068D01*
X153043530Y-106407737D01*
X152973168Y-106237869D01*
X152871019Y-106084992D01*
X152741008Y-105954981D01*
X152598859Y-105860000D01*
X162236928Y-105860000D01*
X162249188Y-105984482D01*
X162285498Y-106104180D01*
X162344463Y-106214494D01*
X162423815Y-106311185D01*
X162520506Y-106390537D01*
X162630820Y-106449502D01*
X162750518Y-106485812D01*
X162875000Y-106498072D01*
X163139250Y-106495000D01*
X163298000Y-106336250D01*
X163298000Y-105437000D01*
X162398750Y-105437000D01*
X162240000Y-105595750D01*
X162236928Y-105860000D01*
X152598859Y-105860000D01*
X152588131Y-105852832D01*
X152418263Y-105782470D01*
X152237932Y-105746600D01*
X152146547Y-105746600D01*
X151655918Y-105255972D01*
X151635233Y-105230767D01*
X151610028Y-105210082D01*
X151574035Y-105174089D01*
X151524455Y-105133400D01*
X151669932Y-105133400D01*
X151850263Y-105097530D01*
X152020131Y-105027168D01*
X152173008Y-104925019D01*
X152303019Y-104795008D01*
X152405168Y-104642131D01*
X152475530Y-104472263D01*
X152511400Y-104291932D01*
X152511400Y-104108068D01*
X152475530Y-103927737D01*
X152405168Y-103757869D01*
X152316002Y-103624423D01*
X152360008Y-103595019D01*
X152490019Y-103465008D01*
X152592168Y-103312131D01*
X152662530Y-103142263D01*
X152698400Y-102961932D01*
X152698400Y-102778068D01*
X152662530Y-102597737D01*
X152632016Y-102524068D01*
X152736600Y-102524068D01*
X152736600Y-102707932D01*
X152772470Y-102888263D01*
X152842832Y-103058131D01*
X152944981Y-103211008D01*
X153074992Y-103341019D01*
X153227869Y-103443168D01*
X153397737Y-103513530D01*
X153578068Y-103549400D01*
X153761932Y-103549400D01*
X153942263Y-103513530D01*
X154112131Y-103443168D01*
X154265008Y-103341019D01*
X154329627Y-103276400D01*
X158971561Y-103276400D01*
X159004000Y-103279595D01*
X159036439Y-103276400D01*
X159133461Y-103266844D01*
X159257947Y-103229082D01*
X159372674Y-103167759D01*
X159473233Y-103085233D01*
X159493918Y-103060028D01*
X159512546Y-103041400D01*
X159603932Y-103041400D01*
X159784263Y-103005530D01*
X159954131Y-102935168D01*
X160066628Y-102860000D01*
X162236928Y-102860000D01*
X162249188Y-102984482D01*
X162272096Y-103060000D01*
X162249188Y-103135518D01*
X162236928Y-103260000D01*
X162240000Y-103524250D01*
X162398750Y-103683000D01*
X163091307Y-103683000D01*
X163134605Y-103711931D01*
X163268075Y-103767216D01*
X163409766Y-103795400D01*
X163459800Y-103795400D01*
X163459800Y-103801800D01*
X163409766Y-103801800D01*
X163268075Y-103829984D01*
X163134605Y-103885269D01*
X163057184Y-103937000D01*
X162398750Y-103937000D01*
X162240000Y-104095750D01*
X162236928Y-104360000D01*
X162249188Y-104484482D01*
X162272096Y-104560000D01*
X162249188Y-104635518D01*
X162236928Y-104760000D01*
X162240000Y-105024250D01*
X162398750Y-105183000D01*
X163131416Y-105183000D01*
X163134605Y-105185131D01*
X163268075Y-105240416D01*
X163409766Y-105268600D01*
X163459800Y-105268600D01*
X163459800Y-105369434D01*
X163487984Y-105511125D01*
X163543269Y-105644595D01*
X163552000Y-105657662D01*
X163552000Y-106336250D01*
X163710750Y-106495000D01*
X163975000Y-106498072D01*
X164099482Y-106485812D01*
X164175000Y-106462904D01*
X164250518Y-106485812D01*
X164375000Y-106498072D01*
X164639250Y-106495000D01*
X164798000Y-106336250D01*
X164798000Y-105712138D01*
X164843131Y-105644595D01*
X164898416Y-105511125D01*
X164926600Y-105369434D01*
X164926600Y-105317975D01*
X164933000Y-105319248D01*
X164933000Y-105369434D01*
X164961184Y-105511125D01*
X165016469Y-105644595D01*
X165052000Y-105697771D01*
X165052000Y-106336250D01*
X165210750Y-106495000D01*
X165475000Y-106498072D01*
X165599482Y-106485812D01*
X165675000Y-106462904D01*
X165750518Y-106485812D01*
X165875000Y-106498072D01*
X166139250Y-106495000D01*
X166298000Y-106336250D01*
X166298000Y-105672029D01*
X166316331Y-105644595D01*
X166371616Y-105511125D01*
X166386360Y-105437000D01*
X166552000Y-105437000D01*
X166552000Y-106336250D01*
X166710750Y-106495000D01*
X166975000Y-106498072D01*
X167099482Y-106485812D01*
X167219180Y-106449502D01*
X167329494Y-106390537D01*
X167426185Y-106311185D01*
X167505537Y-106214494D01*
X167564502Y-106104180D01*
X167600812Y-105984482D01*
X167613072Y-105860000D01*
X167610000Y-105595750D01*
X167451250Y-105437000D01*
X166552000Y-105437000D01*
X166386360Y-105437000D01*
X166399800Y-105369434D01*
X166399800Y-105317975D01*
X166406966Y-105319400D01*
X166551434Y-105319400D01*
X166693125Y-105291216D01*
X166826595Y-105235931D01*
X166905811Y-105183000D01*
X167451250Y-105183000D01*
X167610000Y-105024250D01*
X167613072Y-104760000D01*
X167600812Y-104635518D01*
X167577904Y-104560000D01*
X167600812Y-104484482D01*
X167613072Y-104360000D01*
X167610000Y-104095750D01*
X167451250Y-103937000D01*
X166827988Y-103937000D01*
X166826595Y-103936069D01*
X166693125Y-103880784D01*
X166551434Y-103852600D01*
X166406966Y-103852600D01*
X166399800Y-103854025D01*
X166399800Y-103793975D01*
X166406966Y-103795400D01*
X166551434Y-103795400D01*
X166693125Y-103767216D01*
X166826595Y-103711931D01*
X166869893Y-103683000D01*
X167451250Y-103683000D01*
X167610000Y-103524250D01*
X167613072Y-103260000D01*
X167600812Y-103135518D01*
X167577904Y-103060000D01*
X167600812Y-102984482D01*
X167613072Y-102860000D01*
X167610000Y-102595750D01*
X167451250Y-102437000D01*
X166863907Y-102437000D01*
X166826595Y-102412069D01*
X166693125Y-102356784D01*
X166551434Y-102328600D01*
X166406966Y-102328600D01*
X166399800Y-102330025D01*
X166399800Y-102227766D01*
X166371616Y-102086075D01*
X166316331Y-101952605D01*
X166298000Y-101925171D01*
X166298000Y-101283750D01*
X166552000Y-101283750D01*
X166552000Y-102183000D01*
X167451250Y-102183000D01*
X167610000Y-102024250D01*
X167613072Y-101760000D01*
X167600812Y-101635518D01*
X167564502Y-101515820D01*
X167505537Y-101405506D01*
X167426185Y-101308815D01*
X167329494Y-101229463D01*
X167219180Y-101170498D01*
X167099482Y-101134188D01*
X166975000Y-101121928D01*
X166710750Y-101125000D01*
X166552000Y-101283750D01*
X166298000Y-101283750D01*
X166139250Y-101125000D01*
X165875000Y-101121928D01*
X165750518Y-101134188D01*
X165675000Y-101157096D01*
X165599482Y-101134188D01*
X165475000Y-101121928D01*
X165210750Y-101125000D01*
X165052000Y-101283750D01*
X165052000Y-101899429D01*
X165016469Y-101952605D01*
X164961184Y-102086075D01*
X164933000Y-102227766D01*
X164933000Y-102328600D01*
X164926600Y-102328600D01*
X164926600Y-102227766D01*
X164898416Y-102086075D01*
X164843131Y-101952605D01*
X164798000Y-101885062D01*
X164798000Y-101283750D01*
X164639250Y-101125000D01*
X164375000Y-101121928D01*
X164250518Y-101134188D01*
X164175000Y-101157096D01*
X164099482Y-101134188D01*
X163975000Y-101121928D01*
X163710750Y-101125000D01*
X163552000Y-101283750D01*
X163552000Y-101939538D01*
X163543269Y-101952605D01*
X163487984Y-102086075D01*
X163459800Y-102227766D01*
X163459800Y-102328600D01*
X163409766Y-102328600D01*
X163268075Y-102356784D01*
X163134605Y-102412069D01*
X163097293Y-102437000D01*
X162398750Y-102437000D01*
X162240000Y-102595750D01*
X162236928Y-102860000D01*
X160066628Y-102860000D01*
X160107008Y-102833019D01*
X160237019Y-102703008D01*
X160339168Y-102550131D01*
X160409530Y-102380263D01*
X160445400Y-102199932D01*
X160445400Y-102016068D01*
X160409530Y-101835737D01*
X160378159Y-101760000D01*
X162236928Y-101760000D01*
X162240000Y-102024250D01*
X162398750Y-102183000D01*
X163298000Y-102183000D01*
X163298000Y-101283750D01*
X163139250Y-101125000D01*
X162875000Y-101121928D01*
X162750518Y-101134188D01*
X162630820Y-101170498D01*
X162520506Y-101229463D01*
X162423815Y-101308815D01*
X162344463Y-101405506D01*
X162285498Y-101515820D01*
X162249188Y-101635518D01*
X162236928Y-101760000D01*
X160378159Y-101760000D01*
X160339168Y-101665869D01*
X160237019Y-101512992D01*
X160107008Y-101382981D01*
X159954131Y-101280832D01*
X159784263Y-101210470D01*
X159603932Y-101174600D01*
X159420068Y-101174600D01*
X159239737Y-101210470D01*
X159069869Y-101280832D01*
X158916992Y-101382981D01*
X158786981Y-101512992D01*
X158684832Y-101665869D01*
X158614470Y-101835737D01*
X158590628Y-101955600D01*
X154329627Y-101955600D01*
X154265008Y-101890981D01*
X154112131Y-101788832D01*
X153942263Y-101718470D01*
X153761932Y-101682600D01*
X153578068Y-101682600D01*
X153397737Y-101718470D01*
X153227869Y-101788832D01*
X153074992Y-101890981D01*
X152944981Y-102020992D01*
X152842832Y-102173869D01*
X152772470Y-102343737D01*
X152736600Y-102524068D01*
X152632016Y-102524068D01*
X152592168Y-102427869D01*
X152490019Y-102274992D01*
X152360008Y-102144981D01*
X152207131Y-102042832D01*
X152037263Y-101972470D01*
X151856932Y-101936600D01*
X151673068Y-101936600D01*
X151492737Y-101972470D01*
X151322869Y-102042832D01*
X151169992Y-102144981D01*
X151103373Y-102211600D01*
X151025195Y-102211600D01*
X151024315Y-102202665D01*
X150989769Y-102088781D01*
X150933669Y-101983824D01*
X150905910Y-101950000D01*
X150933669Y-101916176D01*
X150964551Y-101858400D01*
X151482766Y-101858400D01*
X151492737Y-101862530D01*
X151673068Y-101898400D01*
X151856932Y-101898400D01*
X152037263Y-101862530D01*
X152207131Y-101792168D01*
X152360008Y-101690019D01*
X152490019Y-101560008D01*
X152592168Y-101407131D01*
X152662530Y-101237263D01*
X152698400Y-101056932D01*
X152698400Y-100873068D01*
X152662530Y-100692737D01*
X152592168Y-100522869D01*
X152490019Y-100369992D01*
X152360008Y-100239981D01*
X152207131Y-100137832D01*
X152037263Y-100067470D01*
X151856932Y-100031600D01*
X151724517Y-100031600D01*
X152207694Y-99548424D01*
X152232811Y-99527811D01*
X152299278Y-99446822D01*
X152315088Y-99427557D01*
X152376225Y-99313178D01*
X152413873Y-99189069D01*
X152414562Y-99182072D01*
X152423400Y-99092338D01*
X152423400Y-99092331D01*
X152424023Y-99086004D01*
X152490019Y-99020008D01*
X152592168Y-98867131D01*
X152662530Y-98697263D01*
X152698400Y-98516932D01*
X152698400Y-98333068D01*
X152662530Y-98152737D01*
X152592168Y-97982869D01*
X152490019Y-97829992D01*
X152360008Y-97699981D01*
X152207131Y-97597832D01*
X152037263Y-97527470D01*
X151856932Y-97491600D01*
X151673068Y-97491600D01*
X151492737Y-97527470D01*
X151322869Y-97597832D01*
X151169992Y-97699981D01*
X151039981Y-97829992D01*
X151035980Y-97835980D01*
X151035980Y-97821100D01*
X151024315Y-97702665D01*
X150989769Y-97588781D01*
X150933669Y-97483824D01*
X150931210Y-97480828D01*
X150997335Y-97474315D01*
X151111219Y-97439769D01*
X151216176Y-97383669D01*
X151250000Y-97355910D01*
X151283824Y-97383669D01*
X151388781Y-97439769D01*
X151502665Y-97474315D01*
X151621100Y-97485980D01*
X152378900Y-97485980D01*
X152497335Y-97474315D01*
X152611219Y-97439769D01*
X152716176Y-97383669D01*
X152750000Y-97355910D01*
X152783824Y-97383669D01*
X152888781Y-97439769D01*
X153002665Y-97474315D01*
X153121100Y-97485980D01*
X153878900Y-97485980D01*
X153997335Y-97474315D01*
X154111219Y-97439769D01*
X154216176Y-97383669D01*
X154250000Y-97355910D01*
X154283824Y-97383669D01*
X154388781Y-97439769D01*
X154502665Y-97474315D01*
X154621100Y-97485980D01*
X155378900Y-97485980D01*
X155497335Y-97474315D01*
X155611219Y-97439769D01*
X155716176Y-97383669D01*
X155750000Y-97355910D01*
X155783824Y-97383669D01*
X155888781Y-97439769D01*
X156002665Y-97474315D01*
X156121100Y-97485980D01*
X156878900Y-97485980D01*
X156997335Y-97474315D01*
X157111219Y-97439769D01*
X157216176Y-97383669D01*
X157250000Y-97355910D01*
X157283824Y-97383669D01*
X157388781Y-97439769D01*
X157502665Y-97474315D01*
X157621100Y-97485980D01*
X158378900Y-97485980D01*
X158497335Y-97474315D01*
X158611219Y-97439769D01*
X158716176Y-97383669D01*
X158750000Y-97355910D01*
X158783824Y-97383669D01*
X158888781Y-97439769D01*
X159002665Y-97474315D01*
X159121100Y-97485980D01*
X159878900Y-97485980D01*
X159997335Y-97474315D01*
X160111219Y-97439769D01*
X160216176Y-97383669D01*
X160250000Y-97355910D01*
X160283824Y-97383669D01*
X160388781Y-97439769D01*
X160502665Y-97474315D01*
X160621100Y-97485980D01*
X161378900Y-97485980D01*
X161497335Y-97474315D01*
X161611219Y-97439769D01*
X161716176Y-97383669D01*
X161750000Y-97355910D01*
X161783824Y-97383669D01*
X161888781Y-97439769D01*
X162002665Y-97474315D01*
X162121100Y-97485980D01*
X162878900Y-97485980D01*
X162997335Y-97474315D01*
X163111219Y-97439769D01*
X163216176Y-97383669D01*
X163250000Y-97355910D01*
X163283824Y-97383669D01*
X163388781Y-97439769D01*
X163502665Y-97474315D01*
X163621100Y-97485980D01*
X164378900Y-97485980D01*
X164497335Y-97474315D01*
X164611219Y-97439769D01*
X164716176Y-97383669D01*
X164750000Y-97355910D01*
X164783824Y-97383669D01*
X164888781Y-97439769D01*
X165002665Y-97474315D01*
X165121100Y-97485980D01*
X165878900Y-97485980D01*
X165997335Y-97474315D01*
X166111219Y-97439769D01*
X166216176Y-97383669D01*
X166250000Y-97355910D01*
X166283824Y-97383669D01*
X166388781Y-97439769D01*
X166502665Y-97474315D01*
X166621100Y-97485980D01*
X167378900Y-97485980D01*
X167497335Y-97474315D01*
X167611219Y-97439769D01*
X167716176Y-97383669D01*
X167750000Y-97355910D01*
X167776101Y-97377331D01*
X167776101Y-97729172D01*
X167758470Y-97771737D01*
X167722600Y-97952068D01*
X167722600Y-98135932D01*
X167758470Y-98316263D01*
X167828832Y-98486131D01*
X167930981Y-98639008D01*
X168060992Y-98769019D01*
X168213869Y-98871168D01*
X168383737Y-98941530D01*
X168564068Y-98977400D01*
X168747932Y-98977400D01*
X168928263Y-98941530D01*
X169098131Y-98871168D01*
X169251008Y-98769019D01*
X169381019Y-98639008D01*
X169418000Y-98583662D01*
X169454981Y-98639008D01*
X169584992Y-98769019D01*
X169737869Y-98871168D01*
X169907737Y-98941530D01*
X170088068Y-98977400D01*
X170271932Y-98977400D01*
X170452263Y-98941530D01*
X170622131Y-98871168D01*
X170775008Y-98769019D01*
X170905019Y-98639008D01*
X171007168Y-98486131D01*
X171077530Y-98316263D01*
X171113400Y-98135932D01*
X171113400Y-97952068D01*
X171077530Y-97771737D01*
X171007168Y-97601869D01*
X170905019Y-97448992D01*
X170898851Y-97442824D01*
X171002665Y-97474315D01*
X171121100Y-97485980D01*
X171878900Y-97485980D01*
X171997335Y-97474315D01*
X172111219Y-97439769D01*
X172132179Y-97428566D01*
X172195506Y-97480537D01*
X172305820Y-97539502D01*
X172425518Y-97575812D01*
X172550000Y-97588072D01*
X172714250Y-97585000D01*
X172873000Y-97426250D01*
X172873000Y-96327000D01*
X172853000Y-96327000D01*
X172853000Y-96073000D01*
X172873000Y-96073000D01*
X172873000Y-94973750D01*
X172714250Y-94815000D01*
X172550000Y-94811928D01*
X172425518Y-94824188D01*
X172305820Y-94860498D01*
X172287400Y-94870344D01*
X172287400Y-94576665D01*
X172291208Y-94538000D01*
X172287400Y-94499335D01*
X172287400Y-94499327D01*
X172276006Y-94383643D01*
X172230982Y-94235217D01*
X172222465Y-94219283D01*
X172157866Y-94098427D01*
X172084122Y-94008570D01*
X172084119Y-94008567D01*
X172059469Y-93978531D01*
X172029434Y-93953882D01*
X171462627Y-93387077D01*
X171437969Y-93357031D01*
X171318072Y-93258634D01*
X171181283Y-93185518D01*
X171032857Y-93140494D01*
X170917173Y-93129100D01*
X170917163Y-93129100D01*
X170878500Y-93125292D01*
X170839837Y-93129100D01*
X169157648Y-93129100D01*
X169098131Y-93089332D01*
X168928263Y-93018970D01*
X168747932Y-92983100D01*
X168564068Y-92983100D01*
X168383737Y-93018970D01*
X168213869Y-93089332D01*
X168060992Y-93191481D01*
X167930981Y-93321492D01*
X167828832Y-93474369D01*
X167758470Y-93644237D01*
X167723900Y-93818032D01*
X167723900Y-93294248D01*
X168126729Y-92891419D01*
X168154351Y-92868751D01*
X168244813Y-92758523D01*
X168294010Y-92666481D01*
X168295286Y-92665953D01*
X168521866Y-92514557D01*
X168714557Y-92321866D01*
X168865953Y-92095286D01*
X168910000Y-91988947D01*
X168954047Y-92095286D01*
X169105443Y-92321866D01*
X169298134Y-92514557D01*
X169524714Y-92665953D01*
X169776477Y-92770237D01*
X170043747Y-92823400D01*
X170316253Y-92823400D01*
X170583523Y-92770237D01*
X170835286Y-92665953D01*
X171061866Y-92514557D01*
X171254557Y-92321866D01*
X171405953Y-92095286D01*
X171450000Y-91988947D01*
X171494047Y-92095286D01*
G37*
G04 #@! TD.AperFunction*
D22*
X164933000Y-103852752D02*
X164924821Y-103854379D01*
X164926600Y-103845434D01*
X164926600Y-103795400D01*
X164933000Y-103795400D01*
X164933000Y-103852752D01*
G04 #@! TA.AperFunction,Conductor*
D26*
G36*
X164933000Y-103852752D02*
G01*
X164924821Y-103854379D01*
X164926600Y-103845434D01*
X164926600Y-103795400D01*
X164933000Y-103795400D01*
X164933000Y-103852752D01*
G37*
G04 #@! TD.AperFunction*
D22*
X148374188Y-112274482D02*
X148410498Y-112394180D01*
X148469463Y-112504494D01*
X148548815Y-112601185D01*
X148645506Y-112680537D01*
X148755820Y-112739502D01*
X148875518Y-112775812D01*
X149000000Y-112788072D01*
X149464250Y-112785000D01*
X149622998Y-112626252D01*
X149622998Y-112675700D01*
X149616331Y-112683824D01*
X149560231Y-112788781D01*
X149525685Y-112902665D01*
X149514020Y-113021100D01*
X149514020Y-113117403D01*
X149456326Y-113148241D01*
X149355767Y-113230767D01*
X149335088Y-113255965D01*
X148951454Y-113639600D01*
X148059797Y-113639600D01*
X148080494Y-113628537D01*
X148177185Y-113549185D01*
X148256537Y-113452494D01*
X148315502Y-113342180D01*
X148351812Y-113222482D01*
X148364072Y-113098000D01*
X148361000Y-112883750D01*
X148202250Y-112725000D01*
X147103000Y-112725000D01*
X147103000Y-112745000D01*
X146849000Y-112745000D01*
X146849000Y-112725000D01*
X146829000Y-112725000D01*
X146829000Y-112471000D01*
X146849000Y-112471000D01*
X146849000Y-112451000D01*
X147103000Y-112451000D01*
X147103000Y-112471000D01*
X148202250Y-112471000D01*
X148361000Y-112312250D01*
X148363149Y-112162394D01*
X148374188Y-112274482D01*
G04 #@! TA.AperFunction,Conductor*
D26*
G36*
X148374188Y-112274482D02*
G01*
X148410498Y-112394180D01*
X148469463Y-112504494D01*
X148548815Y-112601185D01*
X148645506Y-112680537D01*
X148755820Y-112739502D01*
X148875518Y-112775812D01*
X149000000Y-112788072D01*
X149464250Y-112785000D01*
X149622998Y-112626252D01*
X149622998Y-112675700D01*
X149616331Y-112683824D01*
X149560231Y-112788781D01*
X149525685Y-112902665D01*
X149514020Y-113021100D01*
X149514020Y-113117403D01*
X149456326Y-113148241D01*
X149355767Y-113230767D01*
X149335088Y-113255965D01*
X148951454Y-113639600D01*
X148059797Y-113639600D01*
X148080494Y-113628537D01*
X148177185Y-113549185D01*
X148256537Y-113452494D01*
X148315502Y-113342180D01*
X148351812Y-113222482D01*
X148364072Y-113098000D01*
X148361000Y-112883750D01*
X148202250Y-112725000D01*
X147103000Y-112725000D01*
X147103000Y-112745000D01*
X146849000Y-112745000D01*
X146849000Y-112725000D01*
X146829000Y-112725000D01*
X146829000Y-112471000D01*
X146849000Y-112471000D01*
X146849000Y-112451000D01*
X147103000Y-112451000D01*
X147103000Y-112471000D01*
X148202250Y-112471000D01*
X148361000Y-112312250D01*
X148363149Y-112162394D01*
X148374188Y-112274482D01*
G37*
G04 #@! TD.AperFunction*
D22*
X136586498Y-106847820D02*
X136550188Y-106967518D01*
X136537928Y-107092000D01*
X136541000Y-107156250D01*
X136699750Y-107315000D01*
X137349000Y-107315000D01*
X137349000Y-107295000D01*
X137603000Y-107295000D01*
X137603000Y-107315000D01*
X137623000Y-107315000D01*
X137623000Y-107569000D01*
X137603000Y-107569000D01*
X137603000Y-108839000D01*
X137623000Y-108839000D01*
X137623000Y-109093000D01*
X137603000Y-109093000D01*
X137603000Y-109113000D01*
X137349000Y-109113000D01*
X137349000Y-109093000D01*
X137329000Y-109093000D01*
X137329000Y-108839000D01*
X137349000Y-108839000D01*
X137349000Y-107569000D01*
X136699750Y-107569000D01*
X136541000Y-107727750D01*
X136537928Y-107792000D01*
X136550188Y-107916482D01*
X136586498Y-108036180D01*
X136645463Y-108146494D01*
X136692657Y-108204000D01*
X136645463Y-108261506D01*
X136586498Y-108371820D01*
X136550188Y-108491518D01*
X136537928Y-108616000D01*
X136541000Y-108680250D01*
X136699748Y-108838998D01*
X136541000Y-108838998D01*
X136541000Y-108937054D01*
X136379918Y-108775972D01*
X136359233Y-108750767D01*
X136258674Y-108668241D01*
X136143947Y-108606918D01*
X136019461Y-108569156D01*
X135981861Y-108565453D01*
X135999651Y-108543775D01*
X136049181Y-108451111D01*
X136079681Y-108350565D01*
X136089980Y-108246000D01*
X136089980Y-107146000D01*
X136079681Y-107041435D01*
X136049181Y-106940889D01*
X135999651Y-106848225D01*
X135964998Y-106806000D01*
X136608852Y-106806000D01*
X136586498Y-106847820D01*
G04 #@! TA.AperFunction,Conductor*
D26*
G36*
X136586498Y-106847820D02*
G01*
X136550188Y-106967518D01*
X136537928Y-107092000D01*
X136541000Y-107156250D01*
X136699750Y-107315000D01*
X137349000Y-107315000D01*
X137349000Y-107295000D01*
X137603000Y-107295000D01*
X137603000Y-107315000D01*
X137623000Y-107315000D01*
X137623000Y-107569000D01*
X137603000Y-107569000D01*
X137603000Y-108839000D01*
X137623000Y-108839000D01*
X137623000Y-109093000D01*
X137603000Y-109093000D01*
X137603000Y-109113000D01*
X137349000Y-109113000D01*
X137349000Y-109093000D01*
X137329000Y-109093000D01*
X137329000Y-108839000D01*
X137349000Y-108839000D01*
X137349000Y-107569000D01*
X136699750Y-107569000D01*
X136541000Y-107727750D01*
X136537928Y-107792000D01*
X136550188Y-107916482D01*
X136586498Y-108036180D01*
X136645463Y-108146494D01*
X136692657Y-108204000D01*
X136645463Y-108261506D01*
X136586498Y-108371820D01*
X136550188Y-108491518D01*
X136537928Y-108616000D01*
X136541000Y-108680250D01*
X136699748Y-108838998D01*
X136541000Y-108838998D01*
X136541000Y-108937054D01*
X136379918Y-108775972D01*
X136359233Y-108750767D01*
X136258674Y-108668241D01*
X136143947Y-108606918D01*
X136019461Y-108569156D01*
X135981861Y-108565453D01*
X135999651Y-108543775D01*
X136049181Y-108451111D01*
X136079681Y-108350565D01*
X136089980Y-108246000D01*
X136089980Y-107146000D01*
X136079681Y-107041435D01*
X136049181Y-106940889D01*
X135999651Y-106848225D01*
X135964998Y-106806000D01*
X136608852Y-106806000D01*
X136586498Y-106847820D01*
G37*
G04 #@! TD.AperFunction*
D22*
X127127000Y-91313000D02*
X127147000Y-91313000D01*
X127147000Y-91567000D01*
X127127000Y-91567000D01*
X127127000Y-92760155D01*
X127356890Y-92881476D01*
X127504099Y-92836825D01*
X127766920Y-92711641D01*
X128000269Y-92537588D01*
X128195178Y-92321355D01*
X128322397Y-92107782D01*
X128465443Y-92321866D01*
X128658134Y-92514557D01*
X128884714Y-92665953D01*
X129136477Y-92770237D01*
X129403747Y-92823400D01*
X129676253Y-92823400D01*
X129943523Y-92770237D01*
X130195286Y-92665953D01*
X130421866Y-92514557D01*
X130614557Y-92321866D01*
X130765953Y-92095286D01*
X130810000Y-91988947D01*
X130854047Y-92095286D01*
X131005443Y-92321866D01*
X131198134Y-92514557D01*
X131424714Y-92665953D01*
X131676477Y-92770237D01*
X131943747Y-92823400D01*
X132216253Y-92823400D01*
X132483523Y-92770237D01*
X132735286Y-92665953D01*
X132961866Y-92514557D01*
X133154557Y-92321866D01*
X133305953Y-92095286D01*
X133350000Y-91988947D01*
X133394047Y-92095286D01*
X133545443Y-92321866D01*
X133738134Y-92514557D01*
X133964714Y-92665953D01*
X134216477Y-92770237D01*
X134483747Y-92823400D01*
X134756253Y-92823400D01*
X135023523Y-92770237D01*
X135275286Y-92665953D01*
X135501866Y-92514557D01*
X135694557Y-92321866D01*
X135845953Y-92095286D01*
X135890000Y-91988947D01*
X135934047Y-92095286D01*
X136085443Y-92321866D01*
X136278134Y-92514557D01*
X136501600Y-92663872D01*
X136501600Y-92677669D01*
X136498416Y-92710000D01*
X136501600Y-92742330D01*
X136501600Y-92742337D01*
X136511127Y-92839068D01*
X136548775Y-92963177D01*
X136609912Y-93077556D01*
X136692189Y-93177811D01*
X136717312Y-93198429D01*
X137941574Y-94422692D01*
X137962189Y-94447811D01*
X138062443Y-94530088D01*
X138176822Y-94591225D01*
X138300931Y-94628873D01*
X138397662Y-94638400D01*
X138397671Y-94638400D01*
X138429999Y-94641584D01*
X138462327Y-94638400D01*
X141332283Y-94638400D01*
X141778104Y-95084222D01*
X141798719Y-95109341D01*
X141898973Y-95191618D01*
X142013352Y-95252755D01*
X142137461Y-95290403D01*
X142234192Y-95299930D01*
X142234199Y-95299930D01*
X142266530Y-95303114D01*
X142298861Y-95299930D01*
X147054757Y-95299930D01*
X147455032Y-95700206D01*
X147475642Y-95725319D01*
X147500754Y-95745928D01*
X147500760Y-95745934D01*
X147575896Y-95807597D01*
X147690275Y-95868734D01*
X147814384Y-95906382D01*
X147943453Y-95919093D01*
X147975792Y-95915908D01*
X148324792Y-95915909D01*
X148566601Y-96157719D01*
X148566600Y-97483496D01*
X148566331Y-97483824D01*
X148510231Y-97588781D01*
X148475685Y-97702665D01*
X148464020Y-97821100D01*
X148464020Y-98578900D01*
X148475685Y-98697335D01*
X148510231Y-98811219D01*
X148566331Y-98916176D01*
X148594090Y-98950000D01*
X148566331Y-98983824D01*
X148510231Y-99088781D01*
X148475685Y-99202665D01*
X148464020Y-99321100D01*
X148464020Y-100078900D01*
X148475685Y-100197335D01*
X148510231Y-100311219D01*
X148566331Y-100416176D01*
X148594090Y-100450000D01*
X148566331Y-100483824D01*
X148510231Y-100588781D01*
X148475685Y-100702665D01*
X148464020Y-100821100D01*
X148464020Y-101578900D01*
X148475685Y-101697335D01*
X148510231Y-101811219D01*
X148566331Y-101916176D01*
X148594090Y-101950000D01*
X148566331Y-101983824D01*
X148510231Y-102088781D01*
X148475685Y-102202665D01*
X148464020Y-102321100D01*
X148464020Y-103078900D01*
X148475685Y-103197335D01*
X148510231Y-103311219D01*
X148566331Y-103416176D01*
X148594090Y-103450000D01*
X148569798Y-103479600D01*
X148285547Y-103479600D01*
X148313537Y-103445494D01*
X148372502Y-103335180D01*
X148408812Y-103215482D01*
X148421072Y-103091000D01*
X148418000Y-102901750D01*
X148259250Y-102743000D01*
X147460000Y-102743000D01*
X147460000Y-102763000D01*
X147206000Y-102763000D01*
X147206000Y-102743000D01*
X147186000Y-102743000D01*
X147186000Y-102489000D01*
X147206000Y-102489000D01*
X147206000Y-101664750D01*
X147193000Y-101651750D01*
X147193000Y-101219000D01*
X147447000Y-101219000D01*
X147447000Y-102043250D01*
X147460000Y-102056250D01*
X147460000Y-102489000D01*
X148259250Y-102489000D01*
X148418000Y-102330250D01*
X148421072Y-102141000D01*
X148408812Y-102016518D01*
X148372502Y-101896820D01*
X148343114Y-101841840D01*
X148359502Y-101811180D01*
X148395812Y-101691482D01*
X148408072Y-101567000D01*
X148405000Y-101377750D01*
X148246250Y-101219000D01*
X147447000Y-101219000D01*
X147193000Y-101219000D01*
X147173000Y-101219000D01*
X147173000Y-100965000D01*
X147193000Y-100965000D01*
X147193000Y-100278250D01*
X147206000Y-100265250D01*
X147206000Y-100140750D01*
X147447000Y-100140750D01*
X147447000Y-100965000D01*
X148246250Y-100965000D01*
X148405000Y-100806250D01*
X148408072Y-100617000D01*
X148395812Y-100492518D01*
X148359502Y-100372820D01*
X148300537Y-100262506D01*
X148258202Y-100210920D01*
X148313537Y-100143494D01*
X148372502Y-100033180D01*
X148408812Y-99913482D01*
X148421072Y-99789000D01*
X148418000Y-99599750D01*
X148259250Y-99441000D01*
X147460000Y-99441000D01*
X147460000Y-100127750D01*
X147447000Y-100140750D01*
X147206000Y-100140750D01*
X147206000Y-99441000D01*
X147186000Y-99441000D01*
X147186000Y-99187000D01*
X147206000Y-99187000D01*
X147206000Y-97917000D01*
X147460000Y-97917000D01*
X147460000Y-99187000D01*
X148259250Y-99187000D01*
X148418000Y-99028250D01*
X148421072Y-98839000D01*
X148408812Y-98714518D01*
X148372502Y-98594820D01*
X148349614Y-98552000D01*
X148372502Y-98509180D01*
X148408812Y-98389482D01*
X148421072Y-98265000D01*
X148418000Y-98075750D01*
X148259250Y-97917000D01*
X147460000Y-97917000D01*
X147206000Y-97917000D01*
X147186000Y-97917000D01*
X147186000Y-97663000D01*
X147206000Y-97663000D01*
X147206000Y-96838750D01*
X147460000Y-96838750D01*
X147460000Y-97663000D01*
X148259250Y-97663000D01*
X148418000Y-97504250D01*
X148421072Y-97315000D01*
X148408812Y-97190518D01*
X148372502Y-97070820D01*
X148313537Y-96960506D01*
X148234185Y-96863815D01*
X148137494Y-96784463D01*
X148027180Y-96725498D01*
X147907482Y-96689188D01*
X147783000Y-96676928D01*
X147618750Y-96680000D01*
X147460000Y-96838750D01*
X147206000Y-96838750D01*
X147047250Y-96680000D01*
X146883000Y-96676928D01*
X146758518Y-96689188D01*
X146638820Y-96725498D01*
X146528506Y-96784463D01*
X146431815Y-96863815D01*
X146406711Y-96894404D01*
X146299214Y-96836946D01*
X146156460Y-96793642D01*
X146008000Y-96779020D01*
X145558000Y-96779020D01*
X145409540Y-96793642D01*
X145266786Y-96836946D01*
X145135222Y-96907268D01*
X145019906Y-97001906D01*
X144925268Y-97117222D01*
X144854946Y-97248786D01*
X144811642Y-97391540D01*
X144797020Y-97540000D01*
X144797020Y-98040000D01*
X144811642Y-98188460D01*
X144854946Y-98331214D01*
X144925268Y-98462778D01*
X144945601Y-98487554D01*
X144945601Y-98616446D01*
X144925268Y-98641222D01*
X144854946Y-98772786D01*
X144811642Y-98915540D01*
X144797020Y-99064000D01*
X144797020Y-99564000D01*
X144811642Y-99712460D01*
X144854946Y-99855214D01*
X144925268Y-99986778D01*
X144945601Y-100011553D01*
X144945601Y-100255500D01*
X144798263Y-100194470D01*
X144617932Y-100158600D01*
X144434068Y-100158600D01*
X144327028Y-100179892D01*
X144308502Y-100118820D01*
X144279114Y-100063840D01*
X144295502Y-100033180D01*
X144331812Y-99913482D01*
X144344072Y-99789000D01*
X144341000Y-99599750D01*
X144182250Y-99441000D01*
X143383000Y-99441000D01*
X143383000Y-100265250D01*
X143396000Y-100278250D01*
X143396000Y-100711000D01*
X143416000Y-100711000D01*
X143416000Y-100965000D01*
X143396000Y-100965000D01*
X143396000Y-100985000D01*
X143142000Y-100985000D01*
X143142000Y-100965000D01*
X143122000Y-100965000D01*
X143122000Y-100711000D01*
X143142000Y-100711000D01*
X143142000Y-99886750D01*
X143129000Y-99873750D01*
X143129000Y-99441000D01*
X143109000Y-99441000D01*
X143109000Y-99187000D01*
X143129000Y-99187000D01*
X143129000Y-98754250D01*
X143142000Y-98741250D01*
X143142000Y-98362750D01*
X143383000Y-98362750D01*
X143383000Y-99187000D01*
X144182250Y-99187000D01*
X144341000Y-99028250D01*
X144344072Y-98839000D01*
X144331812Y-98714518D01*
X144295502Y-98594820D01*
X144279114Y-98564160D01*
X144308502Y-98509180D01*
X144344812Y-98389482D01*
X144357072Y-98265000D01*
X144354000Y-98075750D01*
X144195250Y-97917000D01*
X143396000Y-97917000D01*
X143396000Y-98349750D01*
X143383000Y-98362750D01*
X143142000Y-98362750D01*
X143142000Y-97917000D01*
X143122000Y-97917000D01*
X143122000Y-97663000D01*
X143142000Y-97663000D01*
X143142000Y-96838750D01*
X143396000Y-96838750D01*
X143396000Y-97663000D01*
X144195250Y-97663000D01*
X144354000Y-97504250D01*
X144357072Y-97315000D01*
X144344812Y-97190518D01*
X144308502Y-97070820D01*
X144249537Y-96960506D01*
X144170185Y-96863815D01*
X144073494Y-96784463D01*
X143963180Y-96725498D01*
X143843482Y-96689188D01*
X143719000Y-96676928D01*
X143554750Y-96680000D01*
X143396000Y-96838750D01*
X143142000Y-96838750D01*
X142983250Y-96680000D01*
X142819000Y-96676928D01*
X142694518Y-96689188D01*
X142574820Y-96725498D01*
X142464506Y-96784463D01*
X142367815Y-96863815D01*
X142342711Y-96894404D01*
X142235214Y-96836946D01*
X142092460Y-96793642D01*
X141944000Y-96779020D01*
X141494000Y-96779020D01*
X141345540Y-96793642D01*
X141202786Y-96836946D01*
X141071222Y-96907268D01*
X140955906Y-97001906D01*
X140955336Y-97002600D01*
X139304665Y-97002600D01*
X139266000Y-96998792D01*
X139227335Y-97002600D01*
X139227327Y-97002600D01*
X139111643Y-97013994D01*
X138963217Y-97059018D01*
X138826427Y-97132134D01*
X138769596Y-97178775D01*
X138706531Y-97230531D01*
X138700385Y-97238020D01*
X137532000Y-97238020D01*
X137427435Y-97248319D01*
X137326889Y-97278819D01*
X137234225Y-97328349D01*
X137153005Y-97395005D01*
X137086349Y-97476225D01*
X137036819Y-97568889D01*
X137006319Y-97669435D01*
X136996020Y-97774000D01*
X136996020Y-97934635D01*
X136967131Y-97915332D01*
X136797263Y-97844970D01*
X136616932Y-97809100D01*
X136433068Y-97809100D01*
X136252737Y-97844970D01*
X136082869Y-97915332D01*
X135929992Y-98017481D01*
X135799981Y-98147492D01*
X135697832Y-98300369D01*
X135627470Y-98470237D01*
X135591600Y-98650568D01*
X135591600Y-98834432D01*
X135627470Y-99014763D01*
X135697832Y-99184631D01*
X135799981Y-99337508D01*
X135929992Y-99467519D01*
X136082869Y-99569668D01*
X136252737Y-99640030D01*
X136433068Y-99675900D01*
X136616932Y-99675900D01*
X136797263Y-99640030D01*
X136967131Y-99569668D01*
X137026648Y-99529900D01*
X137063966Y-99529900D01*
X137086349Y-99571775D01*
X137153005Y-99652995D01*
X137178599Y-99674000D01*
X137153005Y-99695005D01*
X137086349Y-99776225D01*
X137036819Y-99868889D01*
X137006319Y-99969435D01*
X136999704Y-100036600D01*
X133767980Y-100036600D01*
X133767980Y-98924000D01*
X133757681Y-98819435D01*
X133727181Y-98718889D01*
X133677651Y-98626225D01*
X133610995Y-98545005D01*
X133529775Y-98478349D01*
X133437111Y-98428819D01*
X133336565Y-98398319D01*
X133232000Y-98388020D01*
X133019400Y-98388020D01*
X133019400Y-97980662D01*
X133023208Y-97941999D01*
X133019400Y-97903336D01*
X133019400Y-97784150D01*
X136002056Y-94801495D01*
X136072263Y-94787530D01*
X136242131Y-94717168D01*
X136395008Y-94615019D01*
X136525019Y-94485008D01*
X136627168Y-94332131D01*
X136697530Y-94162263D01*
X136733400Y-93981932D01*
X136733400Y-93798068D01*
X136697530Y-93617737D01*
X136627168Y-93447869D01*
X136525019Y-93294992D01*
X136395008Y-93164981D01*
X136242131Y-93062832D01*
X136072263Y-92992470D01*
X135891932Y-92956600D01*
X135708068Y-92956600D01*
X135527737Y-92992470D01*
X135357869Y-93062832D01*
X135204992Y-93164981D01*
X135074981Y-93294992D01*
X134972832Y-93447869D01*
X134902470Y-93617737D01*
X134888505Y-93687944D01*
X131990001Y-96586449D01*
X130886127Y-95482577D01*
X130861469Y-95452531D01*
X130741572Y-95354134D01*
X130604783Y-95281018D01*
X130456357Y-95235994D01*
X130340673Y-95224600D01*
X130340663Y-95224600D01*
X130302000Y-95220792D01*
X130263337Y-95224600D01*
X126564152Y-95224600D01*
X125247400Y-93907850D01*
X125247400Y-92825980D01*
X125310000Y-92825980D01*
X125414565Y-92815681D01*
X125515111Y-92785181D01*
X125607775Y-92735651D01*
X125688995Y-92668995D01*
X125755651Y-92587775D01*
X125805181Y-92495111D01*
X125835681Y-92394565D01*
X125839142Y-92359429D01*
X125999731Y-92537588D01*
X126233080Y-92711641D01*
X126495901Y-92836825D01*
X126643110Y-92881476D01*
X126873000Y-92760155D01*
X126873000Y-91567000D01*
X126853000Y-91567000D01*
X126853000Y-91313000D01*
X126873000Y-91313000D01*
X126873000Y-91293000D01*
X127127000Y-91293000D01*
X127127000Y-91313000D01*
G04 #@! TA.AperFunction,Conductor*
D26*
G36*
X127127000Y-91313000D02*
G01*
X127147000Y-91313000D01*
X127147000Y-91567000D01*
X127127000Y-91567000D01*
X127127000Y-92760155D01*
X127356890Y-92881476D01*
X127504099Y-92836825D01*
X127766920Y-92711641D01*
X128000269Y-92537588D01*
X128195178Y-92321355D01*
X128322397Y-92107782D01*
X128465443Y-92321866D01*
X128658134Y-92514557D01*
X128884714Y-92665953D01*
X129136477Y-92770237D01*
X129403747Y-92823400D01*
X129676253Y-92823400D01*
X129943523Y-92770237D01*
X130195286Y-92665953D01*
X130421866Y-92514557D01*
X130614557Y-92321866D01*
X130765953Y-92095286D01*
X130810000Y-91988947D01*
X130854047Y-92095286D01*
X131005443Y-92321866D01*
X131198134Y-92514557D01*
X131424714Y-92665953D01*
X131676477Y-92770237D01*
X131943747Y-92823400D01*
X132216253Y-92823400D01*
X132483523Y-92770237D01*
X132735286Y-92665953D01*
X132961866Y-92514557D01*
X133154557Y-92321866D01*
X133305953Y-92095286D01*
X133350000Y-91988947D01*
X133394047Y-92095286D01*
X133545443Y-92321866D01*
X133738134Y-92514557D01*
X133964714Y-92665953D01*
X134216477Y-92770237D01*
X134483747Y-92823400D01*
X134756253Y-92823400D01*
X135023523Y-92770237D01*
X135275286Y-92665953D01*
X135501866Y-92514557D01*
X135694557Y-92321866D01*
X135845953Y-92095286D01*
X135890000Y-91988947D01*
X135934047Y-92095286D01*
X136085443Y-92321866D01*
X136278134Y-92514557D01*
X136501600Y-92663872D01*
X136501600Y-92677669D01*
X136498416Y-92710000D01*
X136501600Y-92742330D01*
X136501600Y-92742337D01*
X136511127Y-92839068D01*
X136548775Y-92963177D01*
X136609912Y-93077556D01*
X136692189Y-93177811D01*
X136717312Y-93198429D01*
X137941574Y-94422692D01*
X137962189Y-94447811D01*
X138062443Y-94530088D01*
X138176822Y-94591225D01*
X138300931Y-94628873D01*
X138397662Y-94638400D01*
X138397671Y-94638400D01*
X138429999Y-94641584D01*
X138462327Y-94638400D01*
X141332283Y-94638400D01*
X141778104Y-95084222D01*
X141798719Y-95109341D01*
X141898973Y-95191618D01*
X142013352Y-95252755D01*
X142137461Y-95290403D01*
X142234192Y-95299930D01*
X142234199Y-95299930D01*
X142266530Y-95303114D01*
X142298861Y-95299930D01*
X147054757Y-95299930D01*
X147455032Y-95700206D01*
X147475642Y-95725319D01*
X147500754Y-95745928D01*
X147500760Y-95745934D01*
X147575896Y-95807597D01*
X147690275Y-95868734D01*
X147814384Y-95906382D01*
X147943453Y-95919093D01*
X147975792Y-95915908D01*
X148324792Y-95915909D01*
X148566601Y-96157719D01*
X148566600Y-97483496D01*
X148566331Y-97483824D01*
X148510231Y-97588781D01*
X148475685Y-97702665D01*
X148464020Y-97821100D01*
X148464020Y-98578900D01*
X148475685Y-98697335D01*
X148510231Y-98811219D01*
X148566331Y-98916176D01*
X148594090Y-98950000D01*
X148566331Y-98983824D01*
X148510231Y-99088781D01*
X148475685Y-99202665D01*
X148464020Y-99321100D01*
X148464020Y-100078900D01*
X148475685Y-100197335D01*
X148510231Y-100311219D01*
X148566331Y-100416176D01*
X148594090Y-100450000D01*
X148566331Y-100483824D01*
X148510231Y-100588781D01*
X148475685Y-100702665D01*
X148464020Y-100821100D01*
X148464020Y-101578900D01*
X148475685Y-101697335D01*
X148510231Y-101811219D01*
X148566331Y-101916176D01*
X148594090Y-101950000D01*
X148566331Y-101983824D01*
X148510231Y-102088781D01*
X148475685Y-102202665D01*
X148464020Y-102321100D01*
X148464020Y-103078900D01*
X148475685Y-103197335D01*
X148510231Y-103311219D01*
X148566331Y-103416176D01*
X148594090Y-103450000D01*
X148569798Y-103479600D01*
X148285547Y-103479600D01*
X148313537Y-103445494D01*
X148372502Y-103335180D01*
X148408812Y-103215482D01*
X148421072Y-103091000D01*
X148418000Y-102901750D01*
X148259250Y-102743000D01*
X147460000Y-102743000D01*
X147460000Y-102763000D01*
X147206000Y-102763000D01*
X147206000Y-102743000D01*
X147186000Y-102743000D01*
X147186000Y-102489000D01*
X147206000Y-102489000D01*
X147206000Y-101664750D01*
X147193000Y-101651750D01*
X147193000Y-101219000D01*
X147447000Y-101219000D01*
X147447000Y-102043250D01*
X147460000Y-102056250D01*
X147460000Y-102489000D01*
X148259250Y-102489000D01*
X148418000Y-102330250D01*
X148421072Y-102141000D01*
X148408812Y-102016518D01*
X148372502Y-101896820D01*
X148343114Y-101841840D01*
X148359502Y-101811180D01*
X148395812Y-101691482D01*
X148408072Y-101567000D01*
X148405000Y-101377750D01*
X148246250Y-101219000D01*
X147447000Y-101219000D01*
X147193000Y-101219000D01*
X147173000Y-101219000D01*
X147173000Y-100965000D01*
X147193000Y-100965000D01*
X147193000Y-100278250D01*
X147206000Y-100265250D01*
X147206000Y-100140750D01*
X147447000Y-100140750D01*
X147447000Y-100965000D01*
X148246250Y-100965000D01*
X148405000Y-100806250D01*
X148408072Y-100617000D01*
X148395812Y-100492518D01*
X148359502Y-100372820D01*
X148300537Y-100262506D01*
X148258202Y-100210920D01*
X148313537Y-100143494D01*
X148372502Y-100033180D01*
X148408812Y-99913482D01*
X148421072Y-99789000D01*
X148418000Y-99599750D01*
X148259250Y-99441000D01*
X147460000Y-99441000D01*
X147460000Y-100127750D01*
X147447000Y-100140750D01*
X147206000Y-100140750D01*
X147206000Y-99441000D01*
X147186000Y-99441000D01*
X147186000Y-99187000D01*
X147206000Y-99187000D01*
X147206000Y-97917000D01*
X147460000Y-97917000D01*
X147460000Y-99187000D01*
X148259250Y-99187000D01*
X148418000Y-99028250D01*
X148421072Y-98839000D01*
X148408812Y-98714518D01*
X148372502Y-98594820D01*
X148349614Y-98552000D01*
X148372502Y-98509180D01*
X148408812Y-98389482D01*
X148421072Y-98265000D01*
X148418000Y-98075750D01*
X148259250Y-97917000D01*
X147460000Y-97917000D01*
X147206000Y-97917000D01*
X147186000Y-97917000D01*
X147186000Y-97663000D01*
X147206000Y-97663000D01*
X147206000Y-96838750D01*
X147460000Y-96838750D01*
X147460000Y-97663000D01*
X148259250Y-97663000D01*
X148418000Y-97504250D01*
X148421072Y-97315000D01*
X148408812Y-97190518D01*
X148372502Y-97070820D01*
X148313537Y-96960506D01*
X148234185Y-96863815D01*
X148137494Y-96784463D01*
X148027180Y-96725498D01*
X147907482Y-96689188D01*
X147783000Y-96676928D01*
X147618750Y-96680000D01*
X147460000Y-96838750D01*
X147206000Y-96838750D01*
X147047250Y-96680000D01*
X146883000Y-96676928D01*
X146758518Y-96689188D01*
X146638820Y-96725498D01*
X146528506Y-96784463D01*
X146431815Y-96863815D01*
X146406711Y-96894404D01*
X146299214Y-96836946D01*
X146156460Y-96793642D01*
X146008000Y-96779020D01*
X145558000Y-96779020D01*
X145409540Y-96793642D01*
X145266786Y-96836946D01*
X145135222Y-96907268D01*
X145019906Y-97001906D01*
X144925268Y-97117222D01*
X144854946Y-97248786D01*
X144811642Y-97391540D01*
X144797020Y-97540000D01*
X144797020Y-98040000D01*
X144811642Y-98188460D01*
X144854946Y-98331214D01*
X144925268Y-98462778D01*
X144945601Y-98487554D01*
X144945601Y-98616446D01*
X144925268Y-98641222D01*
X144854946Y-98772786D01*
X144811642Y-98915540D01*
X144797020Y-99064000D01*
X144797020Y-99564000D01*
X144811642Y-99712460D01*
X144854946Y-99855214D01*
X144925268Y-99986778D01*
X144945601Y-100011553D01*
X144945601Y-100255500D01*
X144798263Y-100194470D01*
X144617932Y-100158600D01*
X144434068Y-100158600D01*
X144327028Y-100179892D01*
X144308502Y-100118820D01*
X144279114Y-100063840D01*
X144295502Y-100033180D01*
X144331812Y-99913482D01*
X144344072Y-99789000D01*
X144341000Y-99599750D01*
X144182250Y-99441000D01*
X143383000Y-99441000D01*
X143383000Y-100265250D01*
X143396000Y-100278250D01*
X143396000Y-100711000D01*
X143416000Y-100711000D01*
X143416000Y-100965000D01*
X143396000Y-100965000D01*
X143396000Y-100985000D01*
X143142000Y-100985000D01*
X143142000Y-100965000D01*
X143122000Y-100965000D01*
X143122000Y-100711000D01*
X143142000Y-100711000D01*
X143142000Y-99886750D01*
X143129000Y-99873750D01*
X143129000Y-99441000D01*
X143109000Y-99441000D01*
X143109000Y-99187000D01*
X143129000Y-99187000D01*
X143129000Y-98754250D01*
X143142000Y-98741250D01*
X143142000Y-98362750D01*
X143383000Y-98362750D01*
X143383000Y-99187000D01*
X144182250Y-99187000D01*
X144341000Y-99028250D01*
X144344072Y-98839000D01*
X144331812Y-98714518D01*
X144295502Y-98594820D01*
X144279114Y-98564160D01*
X144308502Y-98509180D01*
X144344812Y-98389482D01*
X144357072Y-98265000D01*
X144354000Y-98075750D01*
X144195250Y-97917000D01*
X143396000Y-97917000D01*
X143396000Y-98349750D01*
X143383000Y-98362750D01*
X143142000Y-98362750D01*
X143142000Y-97917000D01*
X143122000Y-97917000D01*
X143122000Y-97663000D01*
X143142000Y-97663000D01*
X143142000Y-96838750D01*
X143396000Y-96838750D01*
X143396000Y-97663000D01*
X144195250Y-97663000D01*
X144354000Y-97504250D01*
X144357072Y-97315000D01*
X144344812Y-97190518D01*
X144308502Y-97070820D01*
X144249537Y-96960506D01*
X144170185Y-96863815D01*
X144073494Y-96784463D01*
X143963180Y-96725498D01*
X143843482Y-96689188D01*
X143719000Y-96676928D01*
X143554750Y-96680000D01*
X143396000Y-96838750D01*
X143142000Y-96838750D01*
X142983250Y-96680000D01*
X142819000Y-96676928D01*
X142694518Y-96689188D01*
X142574820Y-96725498D01*
X142464506Y-96784463D01*
X142367815Y-96863815D01*
X142342711Y-96894404D01*
X142235214Y-96836946D01*
X142092460Y-96793642D01*
X141944000Y-96779020D01*
X141494000Y-96779020D01*
X141345540Y-96793642D01*
X141202786Y-96836946D01*
X141071222Y-96907268D01*
X140955906Y-97001906D01*
X140955336Y-97002600D01*
X139304665Y-97002600D01*
X139266000Y-96998792D01*
X139227335Y-97002600D01*
X139227327Y-97002600D01*
X139111643Y-97013994D01*
X138963217Y-97059018D01*
X138826427Y-97132134D01*
X138769596Y-97178775D01*
X138706531Y-97230531D01*
X138700385Y-97238020D01*
X137532000Y-97238020D01*
X137427435Y-97248319D01*
X137326889Y-97278819D01*
X137234225Y-97328349D01*
X137153005Y-97395005D01*
X137086349Y-97476225D01*
X137036819Y-97568889D01*
X137006319Y-97669435D01*
X136996020Y-97774000D01*
X136996020Y-97934635D01*
X136967131Y-97915332D01*
X136797263Y-97844970D01*
X136616932Y-97809100D01*
X136433068Y-97809100D01*
X136252737Y-97844970D01*
X136082869Y-97915332D01*
X135929992Y-98017481D01*
X135799981Y-98147492D01*
X135697832Y-98300369D01*
X135627470Y-98470237D01*
X135591600Y-98650568D01*
X135591600Y-98834432D01*
X135627470Y-99014763D01*
X135697832Y-99184631D01*
X135799981Y-99337508D01*
X135929992Y-99467519D01*
X136082869Y-99569668D01*
X136252737Y-99640030D01*
X136433068Y-99675900D01*
X136616932Y-99675900D01*
X136797263Y-99640030D01*
X136967131Y-99569668D01*
X137026648Y-99529900D01*
X137063966Y-99529900D01*
X137086349Y-99571775D01*
X137153005Y-99652995D01*
X137178599Y-99674000D01*
X137153005Y-99695005D01*
X137086349Y-99776225D01*
X137036819Y-99868889D01*
X137006319Y-99969435D01*
X136999704Y-100036600D01*
X133767980Y-100036600D01*
X133767980Y-98924000D01*
X133757681Y-98819435D01*
X133727181Y-98718889D01*
X133677651Y-98626225D01*
X133610995Y-98545005D01*
X133529775Y-98478349D01*
X133437111Y-98428819D01*
X133336565Y-98398319D01*
X133232000Y-98388020D01*
X133019400Y-98388020D01*
X133019400Y-97980662D01*
X133023208Y-97941999D01*
X133019400Y-97903336D01*
X133019400Y-97784150D01*
X136002056Y-94801495D01*
X136072263Y-94787530D01*
X136242131Y-94717168D01*
X136395008Y-94615019D01*
X136525019Y-94485008D01*
X136627168Y-94332131D01*
X136697530Y-94162263D01*
X136733400Y-93981932D01*
X136733400Y-93798068D01*
X136697530Y-93617737D01*
X136627168Y-93447869D01*
X136525019Y-93294992D01*
X136395008Y-93164981D01*
X136242131Y-93062832D01*
X136072263Y-92992470D01*
X135891932Y-92956600D01*
X135708068Y-92956600D01*
X135527737Y-92992470D01*
X135357869Y-93062832D01*
X135204992Y-93164981D01*
X135074981Y-93294992D01*
X134972832Y-93447869D01*
X134902470Y-93617737D01*
X134888505Y-93687944D01*
X131990001Y-96586449D01*
X130886127Y-95482577D01*
X130861469Y-95452531D01*
X130741572Y-95354134D01*
X130604783Y-95281018D01*
X130456357Y-95235994D01*
X130340673Y-95224600D01*
X130340663Y-95224600D01*
X130302000Y-95220792D01*
X130263337Y-95224600D01*
X126564152Y-95224600D01*
X125247400Y-93907850D01*
X125247400Y-92825980D01*
X125310000Y-92825980D01*
X125414565Y-92815681D01*
X125515111Y-92785181D01*
X125607775Y-92735651D01*
X125688995Y-92668995D01*
X125755651Y-92587775D01*
X125805181Y-92495111D01*
X125835681Y-92394565D01*
X125839142Y-92359429D01*
X125999731Y-92537588D01*
X126233080Y-92711641D01*
X126495901Y-92836825D01*
X126643110Y-92881476D01*
X126873000Y-92760155D01*
X126873000Y-91567000D01*
X126853000Y-91567000D01*
X126853000Y-91313000D01*
X126873000Y-91313000D01*
X126873000Y-91293000D01*
X127127000Y-91293000D01*
X127127000Y-91313000D01*
G37*
G04 #@! TD.AperFunction*
M02*
