G04 #@! TF.GenerationSoftware,KiCad,Pcbnew,5.1.8-db9833491~87~ubuntu18.04.1*
G04 #@! TF.CreationDate,2020-11-18T16:13:40-03:00*
G04 #@! TF.ProjectId,Franzininho WIFI,4672616e-7a69-46e6-996e-686f20574946,rev?*
G04 #@! TF.SameCoordinates,Original*
G04 #@! TF.FileFunction,Soldermask,Bot*
G04 #@! TF.FilePolarity,Negative*
%FSLAX46Y46*%
G04 Gerber Fmt 4.6, Leading zero omitted, Abs format (unit mm)*
G04 Created by KiCad (PCBNEW 5.1.8-db9833491~87~ubuntu18.04.1) date 2020-11-18 16:13:40*
%MOMM*%
%LPD*%
G01*
G04 APERTURE LIST*
%ADD10R,1.700000X1.700000*%
%ADD11O,1.700000X1.700000*%
%ADD12C,0.400000*%
%ADD13C,2.082800*%
%ADD14C,3.419200*%
%ADD15R,0.740000X2.400000*%
G04 APERTURE END LIST*
D10*
X124460000Y-118745000D03*
D11*
X127000000Y-118745000D03*
X129540000Y-118745000D03*
X132080000Y-118745000D03*
X134620000Y-118745000D03*
X137160000Y-118745000D03*
X139700000Y-118745000D03*
X142240000Y-118745000D03*
X144780000Y-118745000D03*
X147320000Y-118745000D03*
X149860000Y-118745000D03*
X152400000Y-118745000D03*
X154940000Y-118745000D03*
X157480000Y-118745000D03*
X160020000Y-118745000D03*
X162560000Y-118745000D03*
X165100000Y-118745000D03*
X167640000Y-118745000D03*
X170180000Y-118745000D03*
X172720000Y-118745000D03*
D12*
X164193200Y-103773200D03*
X165666400Y-103824000D03*
X165006000Y-104586000D03*
X164955200Y-103062000D03*
X164193200Y-102300000D03*
X163482000Y-103062000D03*
X163482000Y-104535200D03*
X164193200Y-105297200D03*
X165666400Y-105297200D03*
X166479200Y-104586000D03*
X166479200Y-103062000D03*
X165666400Y-102300000D03*
D13*
X128352350Y-101518600D03*
X128352350Y-103891600D03*
X128352350Y-106145600D03*
X128352350Y-108518600D03*
D14*
X125952350Y-110818600D03*
X125952350Y-99218600D03*
D10*
X124460000Y-91440000D03*
D11*
X127000000Y-91440000D03*
X129540000Y-91440000D03*
X132080000Y-91440000D03*
X134620000Y-91440000D03*
X137160000Y-91440000D03*
X139700000Y-91440000D03*
X142240000Y-91440000D03*
X144780000Y-91440000D03*
X147320000Y-91440000D03*
X149860000Y-91440000D03*
X152400000Y-91440000D03*
X154940000Y-91440000D03*
X157480000Y-91440000D03*
X160020000Y-91440000D03*
X162560000Y-91440000D03*
X165100000Y-91440000D03*
X167640000Y-91440000D03*
X170180000Y-91440000D03*
X172720000Y-91440000D03*
D15*
X154432000Y-105238000D03*
X154432000Y-109138000D03*
X155702000Y-105238000D03*
X155702000Y-109138000D03*
X156972000Y-105238000D03*
X156972000Y-109138000D03*
X158242000Y-105238000D03*
X158242000Y-109138000D03*
X159512000Y-105238000D03*
X159512000Y-109138000D03*
M02*
