M48
; DRILL file {KiCad 5.1.8-db9833491~87~ubuntu18.04.1} date Wed Nov 18 16:13:44 2020
; FORMAT={-:-/ absolute / inch / decimal}
; #@! TF.CreationDate,2020-11-18T16:13:44-03:00
; #@! TF.GenerationSoftware,Kicad,Pcbnew,5.1.8-db9833491~87~ubuntu18.04.1
; #@! TF.FileFunction,Plated,1,2,PTH
FMAT,2
INCH
T1C0.0098
T2C0.0157
T3C0.0360
T4C0.0394
T5C0.0866
%
G90
G05
T2
X5.26Y-4.24
X5.29Y-4.58
X5.31Y-4.54
X5.33Y-4.41
X5.3465Y-3.6965
X5.37Y-4.25
X5.375Y-3.8875
X5.48Y-4.1503
X5.52Y-3.97
X5.5274Y-4.22
X5.53Y-4.16
X5.59Y-4.37
X5.66Y-4.32
X5.69Y-3.98
X5.69Y-4.1
X5.69Y-4.16
X5.69Y-4.22
X5.73Y-4.31
X5.86Y-4.45
X5.9676Y-4.1024
X5.97Y-4.4
X5.975Y-3.875
X5.975Y-3.975
X5.975Y-4.05
X5.99Y-4.2
X6.03Y-4.34
X6.05Y-4.04
X6.28Y-4.02
X6.28Y-4.42
X6.34Y-4.42
X6.4Y-4.42
X6.64Y-3.6975
X6.64Y-3.86
X6.7Y-3.86
X6.7Y-4.4
X6.75Y-4.55
X6.75Y-4.6
T3
X5.0532Y-3.9968
X5.0532Y-4.0902
X5.0532Y-4.179
X5.0532Y-4.2724
T4
X4.9Y-3.6
X5.0Y-3.6
X5.1Y-3.6
X5.2Y-3.6
X5.3Y-3.6
X5.4Y-3.6
X5.5Y-3.6
X5.6Y-3.6
X5.7Y-3.6
X5.8Y-3.6
X5.9Y-3.6
X6.0Y-3.6
X6.1Y-3.6
X6.2Y-3.6
X6.3Y-3.6
X6.4Y-3.6
X6.5Y-3.6
X6.6Y-3.6
X6.7Y-3.6
X6.8Y-3.6
X4.9Y-4.675
X5.0Y-4.675
X5.1Y-4.675
X5.2Y-4.675
X5.3Y-4.675
X5.4Y-4.675
X5.5Y-4.675
X5.6Y-4.675
X5.7Y-4.675
X5.8Y-4.675
X5.9Y-4.675
X6.0Y-4.675
X6.1Y-4.675
X6.2Y-4.675
X6.3Y-4.675
X6.4Y-4.675
X6.5Y-4.675
X6.6Y-4.675
X6.7Y-4.675
X6.8Y-4.675
T5
X4.9588Y-3.9062
X4.9588Y-4.3629
T1
G00X6.4363Y-4.0576
M15
G01X6.4363Y-4.0576
M16
G05
G00X6.4363Y-4.1156
M15
G01X6.4363Y-4.1156
M16
G05
G00X6.4643Y-4.0276
M15
G01X6.4643Y-4.0276
M16
G05
G00X6.4643Y-4.0856
M15
G01X6.4643Y-4.0856
M16
G05
G00X6.4643Y-4.1456
M15
G01X6.4643Y-4.1456
M16
G05
G00X6.4943Y-4.0576
M15
G01X6.4943Y-4.0576
M16
G05
G00X6.4963Y-4.1176
M15
G01X6.4963Y-4.1176
M16
G05
G00X6.5223Y-4.0276
M15
G01X6.5223Y-4.0276
M16
G05
G00X6.5223Y-4.0876
M15
G01X6.5223Y-4.0876
M16
G05
G00X6.5223Y-4.1456
M15
G01X6.5223Y-4.1456
M16
G05
G00X6.5543Y-4.0576
M15
G01X6.5543Y-4.0576
M16
G05
G00X6.5543Y-4.1176
M15
G01X6.5543Y-4.1176
M16
G05
T0
M30
